{
.appVersion = "1075";
DisplayStrings = (
"THE FIVE BOXING WIZARDS JUMP QUICKLY PACK MY RED BOX WITH FIVE DOZEN QUALITY JUGS A VERY BIG BOX SAILED UP THEN WHIZZED QUICKLY FROM JAPAN\0120123456789\012the five boxing wizards jump quickly pack my red box with five dozen quality jugs a very big box sailed up then whizzed quickly from japan /idotless/jdotless \012\012novonvn\012nnnooononono noononnoon noonnonnonnon nonnoon on noon onnoon non",
"q/_bowl.d dg\012p/_bowl.b obqodg",
"CGJS/Germandbls/Schwa \012eac\U00F0fg/jdotless lrs\U00DFt\0122356?&/literSign"
);
classes = (
{
automatic = 1;

glyphs = (
{
glyphname = A;
lastChange = "2017-10-26 21:50:42 +0000";
layers = (
{
anchors = (
{
name = bottom;
position = "{352, 0}";
},
{
name = ogonek;
position = "{638, 10}";
},
{
name = top;
position = "{352, 694}";
}
);
layerId = "F333AEC5-BB61-4D5E-9EDD-6124322D28F2";
paths = (
{
closed = 1;
nodes = (
"132 0 LINE",
"359 636 LINE",
"350 636 LINE",
"564 0 LINE",
"657 0 LINE",
"413 694 LINE",
"305 694 LINE",
"45 0 LINE"
);
},
{
closed = 1;
nodes = (
"523 206 LINE",
"523 278 LINE",
"176 278 LINE",
"176 206 LINE"
);
}
);
width = 702;
},
{
anchors = (
{
name = bottom;
position = "{371, 0}";
},
{
name = ogonek;
position = "{676, 10}";
},
{
name = top;
position = "{371, 694}";
}
);
layerId = "51C2DFEF-3776-4D13-9284-96485B799B57";
paths = (
{
closed = 1;
nodes = (
"196 0 LINE",
"401 590 LINE",
"331 590 LINE",
"544 0 LINE",
"727 0 LINE",
"463 694 LINE",
"279 694 LINE",
"15 0 LINE"
);
},
{
closed = 1;
nodes = (
"534 141 LINE",
"500 297 LINE",
"240 297 LINE",
"206 141 LINE"
);
}
);
width = 742;
},
{
anchors = (
{
name = bottom;
position = "{345, 0}";
},
{
name = ogonek;
position = "{604, 10}";
},
{
name = top;
position = "{348, 694}";
}
);
layerId = "0B2E441B-685E-400D-9B9B-E078DEED62EF";
paths = (
{
closed = 1;
nodes = (
"93 0 LINE",
"348 676 LINE",
"344 676 LINE",
"582 0 LINE",
"606 0 LINE",
"359 694 LINE",
"336 694 LINE",
"71 0 LINE"
);
},
{
closed = 1;
nodes = (
"508 243 LINE",
"502 262 LINE",
"182 262 LINE",
"177 243 LINE"
);
}
);
width = 677;
}
);
note = A;
unicode = 0041;
},
{
glyphname = B;
lastChange = "2017-10-26 21:50:42 +0000";
layers = (
{
anchors = (
{
name = bottom;
position = "{329, 0}";
},
{
name = top;
position = "{329, 694}";
}
);
layerId = "F333AEC5-BB61-4D5E-9EDD-6124322D28F2";
paths = (
{
closed = 1;
nodes = (
"349 0 LINE SMOOTH",
"509 0 OFFCURVE",
"603 74 OFFCURVE",
"603 201 CURVE SMOOTH",
"603 322 OFFCURVE",
"518 396 OFFCURVE",
"382 396 CURVE SMOOTH",
"156 396 LINE",
"156 327 LINE",
"373 327 LINE SMOOTH",
"467 327 OFFCURVE",
"518 278 OFFCURVE",
"518 190 CURVE SMOOTH",
"518 106 OFFCURVE",
"471 71 OFFCURVE",
"359 71 CURVE SMOOTH",
"190 71 LINE",
"190 623 LINE",
"308 623 LINE SMOOTH",
"414 623 OFFCURVE",
"466 584 OFFCURVE",
"466 505 CURVE SMOOTH",
"466 444 OFFCURVE",
"432 409 OFFCURVE",
"340 375 CURVE",
"460 375 LINE",
"516 399 OFFCURVE",
"551 457 OFFCURVE",
"551 524 CURVE SMOOTH",
"551 631 OFFCURVE",
"464 694 OFFCURVE",
"318 694 CURVE SMOOTH",
"107 694 LINE",
"107 0 LINE"
);
}
);
width = 664;
},
{
anchors = (
{
name = bottom;
position = "{330, 0}";
},
{
name = top;
position = "{330, 694}";
}
);
layerId = "51C2DFEF-3776-4D13-9284-96485B799B57";
paths = (
{
closed = 1;
nodes = (
"360 0 LINE SMOOTH",
"536 0 OFFCURVE",
"640 81 OFFCURVE",
"640 218 CURVE SMOOTH",
"640 344 OFFCURVE",
"552 418 OFFCURVE",
"402 418 CURVE SMOOTH",
"190 418 LINE",
"190 283 LINE",
"364 283 LINE SMOOTH",
"418 283 OFFCURVE",
"460 249 OFFCURVE",
"460 206 CURVE SMOOTH",
"460 163 OFFCURVE",
"423 136 OFFCURVE",
"364 136 CURVE SMOOTH",
"247 136 LINE",
"247 558 LINE",
"327 558 LINE SMOOTH",
"383 558 OFFCURVE",
"415 532 OFFCURVE",
"415 488 CURVE SMOOTH",
"415 453 OFFCURVE",
"394 422 OFFCURVE",
"356 401 CURVE",
"498 371 LINE",
"560 423 OFFCURVE",
"589 474 OFFCURVE",
"589 531 CURVE SMOOTH",
"589 634 OFFCURVE",
"493 694 OFFCURVE",
"327 694 CURVE SMOOTH",
"77 694 LINE",
"77 0 LINE"
);
}
);
width = 672;
},
{
anchors = (
{
name = bottom;
position = "{293, 0}";
},
{
name = top;
position = "{293, 694}";
}
);
layerId = "0B2E441B-685E-400D-9B9B-E078DEED62EF";
paths = (
{
closed = 1;
nodes = (
"340 0 LINE SMOOTH",
"490 0 OFFCURVE",
"579 66 OFFCURVE",
"579 187 CURVE SMOOTH",
"579 298 OFFCURVE",
"501 371 OFFCURVE",
"374 371 CURVE SMOOTH",
"147 371 LINE",
"147 354 LINE",
"364 354 LINE SMOOTH",
"485 354 OFFCURVE",
"558 288 OFFCURVE",
"558 184 CURVE SMOOTH",
"558 77 OFFCURVE",
"480 18 OFFCURVE",
"351 18 CURVE SMOOTH",
"153 18 LINE",
"153 676 LINE",
"313 676 LINE SMOOTH",
"441 676 OFFCURVE",
"517 622 OFFCURVE",
"517 525 CURVE SMOOTH",
"517 441 OFFCURVE",
"460 383 OFFCURVE",
"386 367 CURVE",
"412 363 LINE",
"476 372 OFFCURVE",
"538 438 OFFCURVE",
"538 529 CURVE SMOOTH",
"538 635 OFFCURVE",
"454 694 OFFCURVE",
"313 694 CURVE SMOOTH",
"133 694 LINE",
"133 0 LINE"
);
}
);
width = 668;
},
{
anchors = (
{
name = bottom;
position = "{296, 0}";
},
{
name = top;
position = "{296, 694}";
}
);
associatedMasterId = "0B2E441B-685E-400D-9B9B-E078DEED62EF";
layerId = "02F76483-B2BE-466D-9D0F-F50903A7EF04";
name = "Sep 26 17, 20:18";
paths = (
{
closed = 1;
nodes = (
"343 0 LINE SMOOTH",
"502 0 OFFCURVE",
"582 69 OFFCURVE",
"582 187 CURVE SMOOTH",
"582 304 OFFCURVE",
"501 371 OFFCURVE",
"377 371 CURVE SMOOTH",
"150 371 LINE",
"150 353 LINE",
"367 353 LINE SMOOTH",
"487 353 OFFCURVE",
"560 294 OFFCURVE",
"560 185 CURVE SMOOTH",
"560 75 OFFCURVE",
"486 18 OFFCURVE",
"354 18 CURVE SMOOTH",
"156 18 LINE",
"156 676 LINE",
"316 676 LINE SMOOTH",
"442 676 OFFCURVE",
"519 621 OFFCURVE",
"519 522 CURVE SMOOTH",
"519 447 OFFCURVE",
"473 385 OFFCURVE",
"359 367 CURVE",
"385 360 LINE",
"479 369 OFFCURVE",
"541 437 OFFCURVE",
"541 526 CURVE SMOOTH",
"541 633 OFFCURVE",
"454 694 OFFCURVE",
"316 694 CURVE SMOOTH",
"136 694 LINE",
"136 0 LINE"
);
}
);
width = 672;
}
);
note = B;
unicode = 0042;
},
{
glyphname = C;
lastChange = "2017-10-26 21:50:43 +0000";
layers = (
{
anchors = (
{
name = bottom;
position = "{381, 0}";
},
{
name = top;
position = "{381, 694}";
}
);
layerId = "F333AEC5-BB61-4D5E-9EDD-6124322D28F2";
paths = (
{
closed = 1;
nodes = (
"477 -10 OFFCURVE",
"547 5 OFFCURVE",
"613 34 CURVE",
"594 95 LINE",
"541 74 OFFCURVE",
"479 63 OFFCURVE",
"429 63 CURVE SMOOTH",
"264 63 OFFCURVE",
"153 183 OFFCURVE",
"153 358 CURVE SMOOTH",
"153 526 OFFCURVE",
"255 630 OFFCURVE",
"421 630 CURVE SMOOTH",
"478 630 OFFCURVE",
"541 618 OFFCURVE",
"593 597 CURVE",
"617 662 LINE",
"567 687 OFFCURVE",
"495 703 OFFCURVE",
"426 703 CURVE SMOOTH",
"214 703 OFFCURVE",
"68 554 OFFCURVE",
"68 339 CURVE SMOOTH",
"68 130 OFFCURVE",
"206 -10 OFFCURVE",
"410 -10 CURVE SMOOTH"
);
}
);
width = 671;
},
{
anchors = (
{
name = bottom;
position = "{356, 0}";
},
{
name = top;
position = "{356, 694}";
}
);
layerId = "51C2DFEF-3776-4D13-9284-96485B799B57";
paths = (
{
closed = 1;
nodes = (
"467 -10 OFFCURVE",
"544 4 OFFCURVE",
"605 30 CURVE",
"568 165 LINE",
"527 150 OFFCURVE",
"470 140 OFFCURVE",
"428 140 CURVE SMOOTH",
"304 140 OFFCURVE",
"218 227 OFFCURVE",
"218 355 CURVE SMOOTH",
"218 477 OFFCURVE",
"295 554 OFFCURVE",
"420 554 CURVE SMOOTH",
"466 554 OFFCURVE",
"517 544 OFFCURVE",
"574 523 CURVE",
"611 664 LINE",
"550 691 OFFCURVE",
"491 704 OFFCURVE",
"422 704 CURVE SMOOTH",
"192 704 OFFCURVE",
"38 560 OFFCURVE",
"38 339 CURVE SMOOTH",
"38 129 OFFCURVE",
"176 -10 OFFCURVE",
"397 -10 CURVE SMOOTH"
);
}
);
width = 643;
},
{
anchors = (
{
name = bottom;
position = "{376, 0}";
},
{
name = top;
position = "{376, 694}";
}
);
layerId = "0B2E441B-685E-400D-9B9B-E078DEED62EF";
paths = (
{
closed = 1;
nodes = (
"477 -10 OFFCURVE",
"541 6 OFFCURVE",
"604 35 CURVE",
"597 50 LINE",
"536 23 OFFCURVE",
"475 9 OFFCURVE",
"417 9 CURVE SMOOTH",
"238 9 OFFCURVE",
"117 144 OFFCURVE",
"117 348 CURVE SMOOTH",
"117 549 OFFCURVE",
"240 683 OFFCURVE",
"425 683 CURVE SMOOTH",
"482 683 OFFCURVE",
"543 670 OFFCURVE",
"600 644 CURVE",
"607 660 LINE",
"552 688 OFFCURVE",
"491 702 OFFCURVE",
"428 702 CURVE SMOOTH",
"228 702 OFFCURVE",
"95 556 OFFCURVE",
"95 338 CURVE SMOOTH",
"95 129 OFFCURVE",
"223 -10 OFFCURVE",
"413 -10 CURVE SMOOTH"
);
}
);
width = 682;
}
);
note = C;
unicode = 0043;
},
{
glyphname = D;
lastChange = "2017-10-26 21:50:43 +0000";
layers = (
{
anchors = (
{
name = bottom;
position = "{337, 0}";
},
{
name = center;
position = "{174, 347}";
},
{
name = top;
position = "{337, 694}";
}
);
layerId = "F333AEC5-BB61-4D5E-9EDD-6124322D28F2";
paths = (
{
closed = 1;
nodes = (
"319 0 LINE SMOOTH",
"548 0 OFFCURVE",
"671 153 OFFCURVE",
"671 356 CURVE SMOOTH",
"671 570 OFFCURVE",
"533 694 OFFCURVE",
"334 694 CURVE SMOOTH",
"107 694 LINE",
"107 0 LINE"
);
},
{
closed = 1;
nodes = (
"190 622 LINE",
"324 622 LINE SMOOTH",
"502 622 OFFCURVE",
"588 513 OFFCURVE",
"588 347 CURVE SMOOTH",
"588 184 OFFCURVE",
"505 72 OFFCURVE",
"329 72 CURVE SMOOTH",
"190 72 LINE"
);
}
);
width = 739;
},
{
anchors = (
{
name = bottom;
position = "{363, 0}";
},
{
name = center;
position = "{185, 344}";
},
{
name = top;
position = "{339, 694}";
}
);
layerId = "51C2DFEF-3776-4D13-9284-96485B799B57";
paths = (
{
closed = 1;
nodes = (
"320 0 LINE SMOOTH",
"563 0 OFFCURVE",
"704 146 OFFCURVE",
"704 356 CURVE SMOOTH",
"704 563 OFFCURVE",
"565 694 OFFCURVE",
"329 694 CURVE SMOOTH",
"77 694 LINE",
"77 0 LINE"
);
},
{
closed = 1;
nodes = (
"247 545 LINE",
"321 545 LINE SMOOTH",
"456 545 OFFCURVE",
"524 465 OFFCURVE",
"524 346 CURVE SMOOTH",
"524 228 OFFCURVE",
"458 149 OFFCURVE",
"327 149 CURVE SMOOTH",
"247 149 LINE"
);
}
);
width = 741;
},
{
anchors = (
{
name = bottom;
position = "{363, 0}";
},
{
name = center;
position = "{196, 364}";
},
{
name = top;
position = "{353, 694}";
}
);
layerId = "0B2E441B-685E-400D-9B9B-E078DEED62EF";
paths = (
{
closed = 1;
nodes = (
"296 0 LINE SMOOTH",
"533 0 OFFCURVE",
"644 142 OFFCURVE",
"644 351 CURVE SMOOTH",
"644 558 OFFCURVE",
"535 694 OFFCURVE",
"302 694 CURVE SMOOTH",
"133 694 LINE",
"133 0 LINE"
);
},
{
closed = 1;
nodes = (
"155 676 LINE",
"296 676 LINE SMOOTH",
"519 676 OFFCURVE",
"622 545 OFFCURVE",
"622 348 CURVE SMOOTH",
"622 153 OFFCURVE",
"522 18 OFFCURVE",
"302 18 CURVE SMOOTH",
"155 18 LINE"
);
}
);
width = 740;
}
);
note = D;
unicode = 0044;
},
{
glyphname = E;
lastChange = "2017-10-26 21:50:42 +0000";
layers = (
{
anchors = (
{
name = "#entry";
position = "{147, 291}";
},
{
name = bottom;
position = "{316, 0}";
},
{
name = ogonek;
position = "{525, 10}";
},
{
name = top;
position = "{336, 694}";
},
{
name = topleft;
position = "{18, 694}";
}
);
layerId = "F333AEC5-BB61-4D5E-9EDD-6124322D28F2";
paths = (
{
closed = 1;
nodes = (
"190 0 LINE",
"190 694 LINE",
"107 694 LINE",
"107 0 LINE"
);
},
{
closed = 1;
nodes = (
"543 0 LINE",
"543 72 LINE",
"147 72 LINE",
"147 0 LINE"
);
},
{
closed = 1;
nodes = (
"516 323 LINE",
"516 395 LINE",
"147 395 LINE",
"147 323 LINE"
);
},
{
closed = 1;
nodes = (
"543 622 LINE",
"543 694 LINE",
"147 694 LINE",
"147 622 LINE"
);
}
);
width = 607;
},
{
anchors = (
{
name = "#entry";
position = "{157, 291}";
},
{
name = bottom;
position = "{330, 0}";
},
{
name = ogonek;
position = "{513, 10}";
},
{
name = top;
position = "{323, 694}";
},
{
name = topleft;
position = "{25, 694}";
}
);
layerId = "51C2DFEF-3776-4D13-9284-96485B799B57";
paths = (
{
closed = 1;
nodes = (
"250 0 LINE",
"250 694 LINE",
"77 694 LINE",
"77 0 LINE"
);
},
{
closed = 1;
nodes = (
"563 0 LINE",
"563 152 LINE",
"157 152 LINE",
"157 0 LINE"
);
},
{
closed = 1;
nodes = (
"535 284 LINE",
"535 436 LINE",
"157 436 LINE",
"157 284 LINE"
);
},
{
closed = 1;
nodes = (
"563 542 LINE",
"563 694 LINE",
"157 694 LINE",
"157 542 LINE"
);
}
);
width = 619;
},
{
anchors = (
{
name = "#entry";
position = "{142, 291}";
},
{
name = bottom;
position = "{327, 0}";
},
{
name = ogonek;
position = "{518, 10}";
},
{
name = top;
position = "{326, 694}";
},
{
name = topleft;
position = "{16, 694}";
}
);
layerId = "0B2E441B-685E-400D-9B9B-E078DEED62EF";
paths = (
{
closed = 1;
nodes = (
"154 0 LINE",
"154 694 LINE",
"133 694 LINE",
"133 0 LINE"
);
},
{
closed = 1;
nodes = (
"520 0 LINE",
"520 18 LINE",
"142 18 LINE",
"142 0 LINE"
);
},
{
closed = 1;
nodes = (
"495 351 LINE",
"495 369 LINE",
"142 369 LINE",
"142 351 LINE"
);
},
{
closed = 1;
nodes = (
"520 676 LINE",
"520 694 LINE",
"142 694 LINE",
"142 676 LINE"
);
}
);
width = 595;
}
);
note = E;
unicode = 0045;
},
{
glyphname = F;
lastChange = "2017-10-26 21:50:42 +0000";
layers = (
{
anchors = (
{
name = bottom;
position = "{274, 0}";
},
{
name = top;
position = "{274, 694}";
}
);
layerId = "F333AEC5-BB61-4D5E-9EDD-6124322D28F2";
paths = (
{
closed = 1;
nodes = (
"190 0 LINE",
"190 694 LINE",
"107 694 LINE",
"107 0 LINE"
);
},
{
closed = 1;
nodes = (
"509 322 LINE",
"509 394 LINE",
"139 394 LINE",
"139 322 LINE"
);
},
{
closed = 1;
nodes = (
"538 622 LINE",
"538 694 LINE",
"139 694 LINE",
"139 622 LINE"
);
}
);
width = 590;
},
{
anchors = (
{
name = bottom;
position = "{175, 0}";
},
{
name = top;
position = "{285, 694}";
}
);
layerId = "51C2DFEF-3776-4D13-9284-96485B799B57";
paths = (
{
closed = 1;
nodes = (
"253 0 LINE",
"253 694 LINE",
"77 694 LINE",
"77 0 LINE"
);
},
{
closed = 1;
nodes = (
"521 264 LINE",
"521 416 LINE",
"157 416 LINE",
"157 264 LINE"
);
},
{
closed = 1;
nodes = (
"548 542 LINE",
"548 694 LINE",
"157 694 LINE",
"157 542 LINE"
);
}
);
width = 585;
},
{
anchors = (
{
name = bottom;
position = "{297, 0}";
},
{
name = top;
position = "{297, 694}";
}
);
layerId = "0B2E441B-685E-400D-9B9B-E078DEED62EF";
paths = (
{
closed = 1;
nodes = (
"155 0 LINE",
"155 694 LINE",
"133 694 LINE",
"133 0 LINE"
);
},
{
closed = 1;
nodes = (
"495 351 LINE",
"495 369 LINE",
"142 369 LINE",
"142 351 LINE"
);
},
{
closed = 1;
nodes = (
"520 676 LINE",
"520 694 LINE",
"142 694 LINE",
"142 676 LINE"
);
}
);
width = 590;
}
);
note = F;
unicode = 0046;
},
{
glyphname = G;
lastChange = "2017-10-26 21:50:43 +0000";
layers = (
{
anchors = (
{
name = bottom;
position = "{407, 0}";
},
{
name = top;
position = "{407, 694}";
}
);
layerId = "F333AEC5-BB61-4D5E-9EDD-6124322D28F2";
paths = (
{
closed = 1;
nodes = (
"512 -9 OFFCURVE",
"599 19 OFFCURVE",
"669 74 CURVE",
"669 368 LINE",
"389 368 LINE",
"389 296 LINE",
"586 296 LINE",
"586 102 LINE",
"537 77 OFFCURVE",
"483 64 OFFCURVE",
"428 64 CURVE SMOOTH",
"261 64 OFFCURVE",
"153 179 OFFCURVE",
"153 357 CURVE SMOOTH",
"153 530 OFFCURVE",
"252 630 OFFCURVE",
"421 630 CURVE SMOOTH",
"485 630 OFFCURVE",
"555 615 OFFCURVE",
"618 589 CURVE",
"642 655 LINE",
"581 687 OFFCURVE",
"509 703 OFFCURVE",
"432 703 CURVE SMOOTH",
"213 703 OFFCURVE",
"68 560 OFFCURVE",
"68 342 CURVE SMOOTH",
"68 130 OFFCURVE",
"206 -9 OFFCURVE",
"416 -9 CURVE SMOOTH"
);
}
);
width = 746;
},
{
anchors = (
{
name = bottom;
position = "{361, 0}";
},
{
name = top;
position = "{381, 694}";
}
);
layerId = "51C2DFEF-3776-4D13-9284-96485B799B57";
paths = (
{
closed = 1;
nodes = (
"514 -10 OFFCURVE",
"619 21 OFFCURVE",
"679 72 CURVE",
"679 405 LINE",
"380 405 LINE",
"380 255 LINE",
"509 255 LINE",
"509 153 LINE",
"480 144 OFFCURVE",
"451 140 OFFCURVE",
"423 140 CURVE SMOOTH",
"297 140 OFFCURVE",
"218 224 OFFCURVE",
"218 352 CURVE SMOOTH",
"218 480 OFFCURVE",
"297 554 OFFCURVE",
"431 554 CURVE SMOOTH",
"482 554 OFFCURVE",
"539 543 OFFCURVE",
"611 521 CURVE",
"653 661 LINE",
"596 688 OFFCURVE",
"513 704 OFFCURVE",
"434 704 CURVE SMOOTH",
"196 704 OFFCURVE",
"38 556 OFFCURVE",
"38 334 CURVE SMOOTH",
"38 123 OFFCURVE",
"181 -10 OFFCURVE",
"405 -10 CURVE SMOOTH"
);
}
);
width = 733;
},
{
anchors = (
{
name = bottom;
position = "{374, 0}";
},
{
name = top;
position = "{394, 694}";
}
);
layerId = "0B2E441B-685E-400D-9B9B-E078DEED62EF";
paths = (
{
closed = 1;
nodes = (
"509 -10 OFFCURVE",
"607 18 OFFCURVE",
"665 60 CURVE",
"665 338 LINE",
"408 338 LINE",
"408 319 LINE",
"643 319 LINE",
"643 66 LINE",
"590 36 OFFCURVE",
"507 9 OFFCURVE",
"424 9 CURVE SMOOTH",
"240 9 OFFCURVE",
"117 143 OFFCURVE",
"117 344 CURVE SMOOTH",
"117 548 OFFCURVE",
"245 680 OFFCURVE",
"440 680 CURVE SMOOTH",
"509 680 OFFCURVE",
"579 663 OFFCURVE",
"634 633 CURVE",
"643 651 LINE",
"581 683 OFFCURVE",
"513 699 OFFCURVE",
"443 699 CURVE SMOOTH",
"234 699 OFFCURVE",
"94 556 OFFCURVE",
"94 341 CURVE SMOOTH",
"94 130 OFFCURVE",
"225 -10 OFFCURVE",
"421 -10 CURVE SMOOTH"
);
}
);
width = 766;
}
);
note = G;
unicode = 0047;
},
{
glyphname = H;
lastChange = "2017-10-26 21:50:42 +0000";
layers = (
{
anchors = (
{
name = bottom;
position = "{376, 0}";
},
{
name = center;
position = "{376, 539}";
},
{
name = top;
position = "{376, 694}";
},
{
name = topleft;
position = "{18, 694}";
}
);
background = {
components = (
{
name = O;
transform = "{1, 0, 0, 1, -17, 0}";
}
);
};
layerId = "F333AEC5-BB61-4D5E-9EDD-6124322D28F2";
paths = (
{
closed = 1;
nodes = (
"644 0 LINE",
"644 694 LINE",
"561 694 LINE",
"561 0 LINE"
);
},
{
closed = 1;
nodes = (
"190 0 LINE",
"190 694 LINE",
"107 694 LINE",
"107 0 LINE"
);
},
{
closed = 1;
nodes = (
"609 323 LINE",
"609 395 LINE",
"139 395 LINE",
"139 323 LINE"
);
}
);
width = 751;
},
{
anchors = (
{
name = bottom;
position = "{381, 0}";
},
{
name = center;
position = "{381, 566}";
},
{
name = top;
position = "{381, 694}";
},
{
name = topleft;
position = "{20, 694}";
}
);
background = {
components = (
{
name = O;
transform = "{1, 0, 0, 1, -9, 0}";
}
);
};
layerId = "51C2DFEF-3776-4D13-9284-96485B799B57";
paths = (
{
closed = 1;
nodes = (
"685 0 LINE",
"685 694 LINE",
"509 694 LINE",
"509 0 LINE"
);
},
{
closed = 1;
nodes = (
"253 0 LINE",
"253 694 LINE",
"77 694 LINE",
"77 0 LINE"
);
},
{
closed = 1;
nodes = (
"525 277 LINE",
"525 433 LINE",
"236 433 LINE",
"236 277 LINE"
);
}
);
width = 762;
},
{
anchors = (
{
name = bottom;
position = "{367, 0}";
},
{
name = center;
position = "{367, 534}";
},
{
name = top;
position = "{367, 694}";
},
{
name = topleft;
position = "{28, 694}";
}
);
background = {
components = (
{
name = O;
transform = "{1, 0, 0, 1, -15, 0}";
}
);
};
layerId = "0B2E441B-685E-400D-9B9B-E078DEED62EF";
paths = (
{
closed = 1;
nodes = (
"600 0 LINE",
"600 694 LINE",
"578 694 LINE",
"578 0 LINE"
);
},
{
closed = 1;
nodes = (
"155 0 LINE",
"155 694 LINE",
"133 694 LINE",
"133 0 LINE"
);
},
{
closed = 1;
nodes = (
"584 345 LINE",
"584 364 LINE",
"148 364 LINE",
"148 345 LINE"
);
}
);
width = 733;
}
);
note = H;
unicode = 0048;
},
{
glyphname = I;
lastChange = "2017-10-26 21:50:43 +0000";
layers = (
{
anchors = (
{
name = bottom;
position = "{149, 0}";
},
{
name = ogonek;
position = "{178, 10}";
},
{
name = top;
position = "{149, 694}";
},
{
name = topleft;
position = "{18, 694}";
}
);
layerId = "F333AEC5-BB61-4D5E-9EDD-6124322D28F2";
paths = (
{
closed = 1;
nodes = (
"190 0 LINE",
"190 694 LINE",
"107 694 LINE",
"107 0 LINE"
);
}
);
width = 297;
},
{
anchors = (
{
name = bottom;
position = "{165, 0}";
},
{
name = ogonek;
position = "{213, 10}";
},
{
name = top;
position = "{165, 694}";
},
{
name = topleft;
position = "{34, 694}";
}
);
layerId = "51C2DFEF-3776-4D13-9284-96485B799B57";
paths = (
{
closed = 1;
nodes = (
"253 0 LINE",
"253 694 LINE",
"77 694 LINE",
"77 0 LINE"
);
}
);
width = 330;
},
{
anchors = (
{
name = bottom;
position = "{144, 0}";
},
{
name = ogonek;
position = "{152, 10}";
},
{
name = top;
position = "{144, 694}";
},
{
name = topleft;
position = "{17, 694}";
}
);
layerId = "0B2E441B-685E-400D-9B9B-E078DEED62EF";
paths = (
{
closed = 1;
nodes = (
"154 0 LINE",
"154 694 LINE",
"133 694 LINE",
"133 0 LINE"
);
}
);
width = 287;
}
);
note = I;
unicode = 0049;
},
{
glyphname = J;
lastChange = "2017-10-26 21:50:42 +0000";
layers = (
{
anchors = (
{
name = bottom;
position = "{235, 0}";
},
{
name = top;
position = "{310, 694}";
}
);
layerId = "F333AEC5-BB61-4D5E-9EDD-6124322D28F2";
paths = (
{
closed = 1;
nodes = (
"286 -10 OFFCURVE",
"353 65 OFFCURVE",
"353 200 CURVE SMOOTH",
"353 694 LINE",
"270 694 LINE",
"270 191 LINE SMOOTH",
"270 104 OFFCURVE",
"239 63 OFFCURVE",
"169 63 CURVE SMOOTH",
"136 63 OFFCURVE",
"99 72 OFFCURVE",
"68 87 CURVE",
"44 21 LINE",
"79 2 OFFCURVE",
"121 -10 OFFCURVE",
"168 -10 CURVE SMOOTH"
);
}
);
width = 453;
},
{
anchors = (
{
name = bottom;
position = "{263, 0}";
},
{
name = top;
position = "{343, 694}";
}
);
layerId = "51C2DFEF-3776-4D13-9284-96485B799B57";
paths = (
{
closed = 1;
nodes = (
"325 -10 OFFCURVE",
"431 94 OFFCURVE",
"431 243 CURVE SMOOTH",
"431 694 LINE",
"258 694 LINE",
"258 233 LINE SMOOTH",
"258 179 OFFCURVE",
"218 140 OFFCURVE",
"162 140 CURVE SMOOTH",
"134 140 OFFCURVE",
"90 150 OFFCURVE",
"57 162 CURVE",
"19 22 LINE",
"58 3 OFFCURVE",
"112 -10 OFFCURVE",
"167 -10 CURVE SMOOTH"
);
}
);
width = 496;
},
{
anchors = (
{
name = bottom;
position = "{299, 0}";
},
{
name = top;
position = "{324, 694}";
}
);
layerId = "0B2E441B-685E-400D-9B9B-E078DEED62EF";
paths = (
{
closed = 1;
nodes = (
"268 -10 OFFCURVE",
"335 53 OFFCURVE",
"335 158 CURVE SMOOTH",
"335 694 LINE",
"314 694 LINE",
"314 154 LINE SMOOTH",
"314 64 OFFCURVE",
"263 9 OFFCURVE",
"186 9 CURVE SMOOTH",
"152 9 OFFCURVE",
"113 20 OFFCURVE",
"74 42 CURVE",
"68 25 LINE",
"111 1 OFFCURVE",
"148 -10 OFFCURVE",
"183 -10 CURVE SMOOTH"
);
}
);
width = 462;
}
);
note = J;
unicode = 004A;
},
{
glyphname = K;
lastChange = "2017-10-26 21:50:42 +0000";
layers = (
{
anchors = (
{
name = bottom;
position = "{321, 0}";
},
{
name = top;
position = "{321, 694}";
}
);
layerId = "F333AEC5-BB61-4D5E-9EDD-6124322D28F2";
paths = (
{
closed = 1;
nodes = (
"618 0 LINE",
"274 375 LINE",
"273 353 LINE",
"599 694 LINE",
"498 694 LINE",
"181 356 LINE",
"504 0 LINE"
);
},
{
closed = 1;
nodes = (
"190 0 LINE",
"190 694 LINE",
"107 694 LINE",
"107 0 LINE"
);
}
);
width = 659;
},
{
anchors = (
{
name = bottom;
position = "{341, 0}";
},
{
name = top;
position = "{341, 694}";
}
);
layerId = "51C2DFEF-3776-4D13-9284-96485B799B57";
paths = (
{
closed = 1;
nodes = (
"712 0 LINE",
"435 375 LINE",
"443 353 LINE",
"705 694 LINE",
"501 694 LINE",
"245 356 LINE",
"504 0 LINE"
);
},
{
closed = 1;
nodes = (
"255 0 LINE",
"255 694 LINE",
"77 694 LINE",
"77 0 LINE"
);
}
);
width = 726;
},
{
anchors = (
{
name = bottom;
position = "{302, 0}";
},
{
name = top;
position = "{302, 694}";
}
);
layerId = "0B2E441B-685E-400D-9B9B-E078DEED62EF";
paths = (
{
closed = 1;
nodes = (
"537 0 LINE",
"164 362 LINE",
"164 352 LINE",
"528 694 LINE",
"501 694 LINE",
"145 356 LINE",
"508 0 LINE"
);
},
{
closed = 1;
nodes = (
"153 0 LINE",
"153 694 LINE",
"133 694 LINE",
"133 0 LINE"
);
}
);
width = 604;
}
);
note = K;
unicode = 004B;
},
{
glyphname = L;
lastChange = "2017-10-26 21:50:41 +0000";
layers = (
{
anchors = (
{
name = "#periodcentered";
position = "{416, 352}";
},
{
name = bottom;
position = "{305, 0}";
},
{
name = center;
position = "{175, 347}";
},
{
name = top;
position = "{150, 694}";
},
{
name = topright;
position = "{314, 482}";
}
);
layerId = "F333AEC5-BB61-4D5E-9EDD-6124322D28F2";
paths = (
{
closed = 1;
nodes = (
"190 0 LINE",
"190 694 LINE",
"107 694 LINE",
"107 0 LINE"
);
},
{
closed = 1;
nodes = (
"501 0 LINE",
"501 74 LINE",
"139 74 LINE",
"139 0 LINE"
);
}
);
width = 547;
},
{
anchors = (
{
name = "#periodcentered";
position = "{441, 352}";
},
{
name = bottom;
position = "{275, 0}";
},
{
name = center;
position = "{175, 377}";
},
{
name = top;
position = "{162, 694}";
},
{
name = topright;
position = "{354, 490}";
}
);
layerId = "51C2DFEF-3776-4D13-9284-96485B799B57";
paths = (
{
closed = 1;
nodes = (
"250 0 LINE",
"250 694 LINE",
"77 694 LINE",
"77 0 LINE"
);
},
{
closed = 1;
nodes = (
"531 0 LINE",
"531 153 LINE",
"169 153 LINE",
"169 0 LINE"
);
}
);
width = 555;
},
{
anchors = (
{
name = "#periodcentered";
position = "{399, 352}";
},
{
name = bottom;
position = "{311, 0}";
},
{
name = center;
position = "{185, 367}";
},
{
name = top;
position = "{145, 694}";
},
{
name = topright;
position = "{230, 480}";
}
);
layerId = "0B2E441B-685E-400D-9B9B-E078DEED62EF";
paths = (
{
closed = 1;
nodes = (
"154 0 LINE",
"154 694 LINE",
"133 694 LINE",
"133 0 LINE"
);
},
{
closed = 1;
nodes = (
"482 0 LINE",
"482 19 LINE",
"145 19 LINE",
"145 0 LINE"
);
}
);
width = 548;
}
);
note = L;
unicode = 004C;
},
{
glyphname = M;
lastChange = "2017-10-26 21:55:04 +0000";
layers = (
{
anchors = (
{
name = bottom;
position = "{445, 0}";
},
{
name = top;
position = "{445, 694}";
}
);
layerId = "F333AEC5-BB61-4D5E-9EDD-6124322D28F2";
paths = (
{
closed = 1;
nodes = (
"185 0 LINE",
"185 581 LINE",
"169 581 LINE",
"420 108 LINE",
"478 108 LINE",
"720 581 LINE",
"704 581 LINE",
"704 0 LINE",
"782 0 LINE",
"782 694 LINE",
"700 694 LINE",
"445 198 LINE",
"458 198 LINE",
"195 694 LINE",
"107 694 LINE",
"107 0 LINE"
);
}
);
width = 889;
},
{
anchors = (
{
name = bottom;
position = "{459, 0}";
},
{
name = top;
position = "{459, 694}";
}
);
layerId = "51C2DFEF-3776-4D13-9284-96485B799B57";
paths = (
{
closed = 1;
nodes = (
"239 0 LINE",
"239 444 LINE",
"215 429 LINE",
"415 93 LINE",
"505 93 LINE",
"700 434 LINE",
"679 444 LINE",
"679 0 LINE",
"842 0 LINE",
"842 694 LINE",
"668 694 LINE",
"440 289 LINE",
"490 289 LINE",
"259 694 LINE",
"76 694 LINE",
"76 0 LINE"
);
}
);
width = 918;
},
{
anchors = (
{
name = bottom;
position = "{471, 0}";
},
{
name = top;
position = "{471, 694}";
}
);
layerId = "0B2E441B-685E-400D-9B9B-E078DEED62EF";
paths = (
{
closed = 1;
nodes = (
"154 0 LINE",
"154 677 LINE",
"147 677 LINE",
"450 108 LINE",
"470 108 LINE",
"764 676 LINE",
"757 676 LINE",
"757 0 LINE",
"778 0 LINE",
"778 694 LINE",
"751 694 LINE",
"454 118 LINE",
"468 118 LINE",
"162 694 LINE",
"133 694 LINE",
"133 0 LINE"
);
}
);
width = 911;
}
);
note = M;
unicode = 004D;
},
{
glyphname = N;
lastChange = "2017-10-26 21:57:39 +0000";
layers = (
{
anchors = (
{
name = "#hook";
position = "{634, 0}";
},
{
name = bottom;
position = "{390, 0}";
},
{
name = top;
position = "{390, 694}";
}
);
layerId = "F333AEC5-BB61-4D5E-9EDD-6124322D28F2";
paths = (
{
closed = 1;
nodes = (
"185 0 LINE",
"185 605 LINE",
"168 605 LINE",
"578 0 LINE",
"673 0 LINE",
"673 694 LINE",
"595 694 LINE",
"595 87 LINE",
"613 87 LINE",
"202 694 LINE",
"107 694 LINE",
"107 0 LINE"
);
}
);
width = 780;
},
{
anchors = (
{
name = "#hook";
position = "{627, 0}";
},
{
name = bottom;
position = "{399, 0}";
},
{
name = top;
position = "{399, 694}";
}
);
layerId = "51C2DFEF-3776-4D13-9284-96485B799B57";
paths = (
{
closed = 1;
nodes = (
"239 0 LINE",
"239 470 LINE",
"211 460 LINE",
"533 0 LINE",
"722 0 LINE",
"722 694 LINE",
"559 694 LINE",
"559 216 LINE",
"585 226 LINE",
"265 694 LINE",
"76 694 LINE",
"76 0 LINE"
);
}
);
width = 798;
},
{
anchors = (
{
name = "#hook";
position = "{617, 0}";
},
{
name = bottom;
position = "{391, 0}";
},
{
name = top;
position = "{391, 694}";
}
);
layerId = "0B2E441B-685E-400D-9B9B-E078DEED62EF";
paths = (
{
closed = 1;
nodes = (
"153 0 LINE",
"153 674 LINE",
"151 674 LINE",
"602 0 LINE",
"629 0 LINE",
"629 694 LINE",
"609 694 LINE",
"609 20 LINE",
"613 20 LINE",
"162 694 LINE",
"133 694 LINE",
"133 0 LINE"
);
}
);
width = 762;
}
);
note = N;
unicode = 004E;
},
{
glyphname = O;
lastChange = "2017-10-26 21:50:42 +0000";
layers = (
{
anchors = (
{
name = "#Qtail";
position = "{555, 65}";
},
{
name = "#exit";
position = "{672, 291}";
},
{
name = bottom;
position = "{391, 0}";
},
{
name = center;
position = "{391, 347}";
},
{
name = ogonek;
position = "{503, 10}";
},
{
name = top;
position = "{391, 694}";
},
{
name = topleft;
position = "{20, 694}";
},
{
name = topright;
position = "{582, 694}";
}
);
associatedMasterId = "F333AEC5-BB61-4D5E-9EDD-6124322D28F2";
layerId = "EC4D3195-D96F-470D-9C91-AC6DC99AADFD";
name = "Aug 31 17, 20:13";
paths = (
{
closed = 1;
nodes = (
"578 -7 OFFCURVE",
"717 141 OFFCURVE",
"717 356 CURVE SMOOTH",
"717 566 OFFCURVE",
"586 703 OFFCURVE",
"393 703 CURVE SMOOTH",
"194 703 OFFCURVE",
"65 558 OFFCURVE",
"65 344 CURVE SMOOTH",
"65 135 OFFCURVE",
"192 -7 OFFCURVE",
"383 -7 CURVE SMOOTH"
);
},
{
closed = 1;
nodes = (
"249 65 OFFCURVE",
"150 186 OFFCURVE",
"150 356 CURVE SMOOTH",
"150 524 OFFCURVE",
"236 630 OFFCURVE",
"383 630 CURVE SMOOTH",
"526 630 OFFCURVE",
"632 513 OFFCURVE",
"632 344 CURVE SMOOTH",
"632 178 OFFCURVE",
"533 65 OFFCURVE",
"393 65 CURVE SMOOTH"
);
}
);
width = 782;
},
{
anchors = (
{
name = "#Qtail";
position = "{559, 65}";
},
{
name = "#exit";
position = "{676, 291}";
},
{
name = bottom;
position = "{395, 0}";
},
{
name = center;
position = "{395, 347}";
},
{
name = ogonek;
position = "{507, 10}";
},
{
name = top;
position = "{395, 694}";
},
{
name = topleft;
position = "{24, 694}";
},
{
name = topright;
position = "{586, 694}";
}
);
layerId = "F333AEC5-BB61-4D5E-9EDD-6124322D28F2";
paths = (
{
closed = 1;
nodes = (
"587 -7 OFFCURVE",
"721 138 OFFCURVE",
"721 356 CURVE SMOOTH",
"721 564 OFFCURVE",
"591 703 OFFCURVE",
"397 703 CURVE SMOOTH",
"200 703 OFFCURVE",
"69 559 OFFCURVE",
"69 344 CURVE SMOOTH",
"69 133 OFFCURVE",
"196 -7 OFFCURVE",
"387 -7 CURVE SMOOTH"
);
},
{
closed = 1;
nodes = (
"251 65 OFFCURVE",
"154 181 OFFCURVE",
"154 356 CURVE SMOOTH",
"154 520 OFFCURVE",
"247 630 OFFCURVE",
"387 630 CURVE SMOOTH",
"536 630 OFFCURVE",
"636 516 OFFCURVE",
"636 344 CURVE SMOOTH",
"636 177 OFFCURVE",
"540 65 OFFCURVE",
"397 65 CURVE SMOOTH"
);
}
);
width = 790;
},
{
anchors = (
{
name = "#Qtail";
position = "{580, 90}";
},
{
name = "#exit";
position = "{643, 284}";
},
{
name = bottom;
position = "{400, 0}";
},
{
name = center;
position = "{423, 347}";
},
{
name = ogonek;
position = "{482, 10}";
},
{
name = top;
position = "{400, 694}";
},
{
name = topleft;
position = "{92, 694}";
},
{
name = topright;
position = "{611, 694}";
}
);
layerId = "51C2DFEF-3776-4D13-9284-96485B799B57";
paths = (
{
closed = 1;
nodes = (
"615 -10 OFFCURVE",
"761 134 OFFCURVE",
"761 351 CURVE SMOOTH",
"761 563 OFFCURVE",
"619 704 OFFCURVE",
"403 704 CURVE SMOOTH",
"184 704 OFFCURVE",
"38 559 OFFCURVE",
"38 341 CURVE SMOOTH",
"38 130 OFFCURVE",
"180 -10 OFFCURVE",
"393 -10 CURVE SMOOTH"
);
},
{
closed = 1;
nodes = (
"292 140 OFFCURVE",
"218 224 OFFCURVE",
"218 351 CURVE SMOOTH",
"218 473 OFFCURVE",
"287 554 OFFCURVE",
"393 554 CURVE SMOOTH",
"506 554 OFFCURVE",
"581 469 OFFCURVE",
"581 341 CURVE SMOOTH",
"581 220 OFFCURVE",
"511 140 OFFCURVE",
"403 140 CURVE SMOOTH"
);
}
);
width = 799;
},
{
anchors = (
{
name = "#Qtail";
position = "{544, 45}";
},
{
name = "#exit";
position = "{676, 285}";
},
{
name = bottom;
position = "{395, 0}";
},
{
name = center;
position = "{396, 345}";
},
{
name = ogonek;
position = "{495, 10}";
},
{
name = top;
position = "{395, 694}";
},
{
name = topleft;
position = "{24, 694}";
},
{
name = topright;
position = "{591, 694}";
}
);
layerId = "0B2E441B-685E-400D-9B9B-E078DEED62EF";
paths = (
{
closed = 1;
nodes = (
"572 -10 OFFCURVE",
"692 133 OFFCURVE",
"692 346 CURVE SMOOTH",
"692 558 OFFCURVE",
"574 699 OFFCURVE",
"396 699 CURVE SMOOTH",
"216 699 OFFCURVE",
"96 555 OFFCURVE",
"96 343 CURVE SMOOTH",
"96 131 OFFCURVE",
"215 -10 OFFCURVE",
"393 -10 CURVE SMOOTH"
);
},
{
closed = 1;
nodes = (
"229 9 OFFCURVE",
"118 145 OFFCURVE",
"118 346 CURVE SMOOTH",
"118 547 OFFCURVE",
"228 680 OFFCURVE",
"393 680 CURVE SMOOTH",
"559 680 OFFCURVE",
"670 544 OFFCURVE",
"670 343 CURVE SMOOTH",
"670 143 OFFCURVE",
"561 9 OFFCURVE",
"395 9 CURVE SMOOTH"
);
}
);
width = 788;
}
);
note = O;
unicode = 004F;
},
{
glyphname = R;
lastChange = "2017-10-26 21:50:42 +0000";
layers = (
{
anchors = (
{
name = bottom;
position = "{324, 0}";
},
{
name = top;
position = "{324, 694}";
}
);
layerId = "F333AEC5-BB61-4D5E-9EDD-6124322D28F2";
paths = (
{
closed = 1;
nodes = (
"190 0 LINE",
"190 694 LINE",
"107 694 LINE",
"107 0 LINE"
);
},
{
closed = 1;
nodes = (
"327 281 LINE SMOOTH",
"470 281 OFFCURVE",
"569 370 OFFCURVE",
"569 497 CURVE SMOOTH",
"569 623 OFFCURVE",
"471 694 OFFCURVE",
"337 694 CURVE SMOOTH",
"160 694 LINE",
"160 622 LINE",
"327 622 LINE SMOOTH",
"424 622 OFFCURVE",
"484 574 OFFCURVE",
"484 486 CURVE SMOOTH",
"484 397 OFFCURVE",
"428 351 OFFCURVE",
"337 351 CURVE SMOOTH",
"160 351 LINE",
"160 281 LINE"
);
},
{
closed = 1;
nodes = (
"609 0 LINE",
"417 328 LINE",
"322 328 LINE",
"510 0 LINE"
);
}
);
width = 657;
},
{
anchors = (
{
name = bottom;
position = "{336, 0}";
},
{
name = top;
position = "{346, 694}";
}
);
layerId = "51C2DFEF-3776-4D13-9284-96485B799B57";
paths = (
{
closed = 1;
nodes = (
"250 0 LINE",
"250 694 LINE",
"77 694 LINE",
"77 0 LINE"
);
},
{
closed = 1;
nodes = (
"341 214 LINE SMOOTH",
"524 214 OFFCURVE",
"632 312 OFFCURVE",
"632 458 CURVE SMOOTH",
"632 602 OFFCURVE",
"526 694 OFFCURVE",
"347 694 CURVE SMOOTH",
"198 694 LINE",
"198 543 LINE",
"341 543 LINE SMOOTH",
"416 543 OFFCURVE",
"452 506 OFFCURVE",
"452 449 CURVE SMOOTH",
"452 393 OFFCURVE",
"418 364 OFFCURVE",
"347 364 CURVE SMOOTH",
"198 364 LINE",
"198 214 LINE"
);
},
{
closed = 1;
nodes = (
"680 0 LINE",
"517 281 LINE",
"336 281 LINE",
"489 0 LINE"
);
}
);
width = 697;
},
{
anchors = (
{
name = bottom;
position = "{336, 0}";
},
{
name = top;
position = "{306, 694}";
}
);
layerId = "0B2E441B-685E-400D-9B9B-E078DEED62EF";
paths = (
{
closed = 1;
nodes = (
"154 0 LINE",
"154 694 LINE",
"133 694 LINE",
"133 0 LINE"
);
},
{
closed = 1;
nodes = (
"314 303 LINE SMOOTH",
"472 303 OFFCURVE",
"557 378 OFFCURVE",
"557 502 CURVE SMOOTH",
"557 623 OFFCURVE",
"474 694 OFFCURVE",
"319 694 CURVE SMOOTH",
"144 694 LINE",
"144 676 LINE",
"314 676 LINE SMOOTH",
"460 676 OFFCURVE",
"535 612 OFFCURVE",
"535 499 CURVE SMOOTH",
"535 387 OFFCURVE",
"460 321 OFFCURVE",
"321 321 CURVE SMOOTH",
"144 321 LINE",
"144 303 LINE"
);
},
{
closed = 1;
nodes = (
"590 0 LINE",
"401 317 LINE",
"379 317 LINE",
"564 0 LINE"
);
}
);
width = 667;
}
);
note = R;
unicode = 0052;
},
{
glyphname = S;
lastChange = "2017-10-26 21:50:42 +0000";
layers = (
{
anchors = (
{
name = bottom;
position = "{301, 0}";
},
{
name = top;
position = "{301, 694}";
}
);
layerId = "F333AEC5-BB61-4D5E-9EDD-6124322D28F2";
paths = (
{
closed = 1;
nodes = (
"445 -10 OFFCURVE",
"539 67 OFFCURVE",
"539 196 CURVE SMOOTH",
"539 452 OFFCURVE",
"159 335 OFFCURVE",
"159 514 CURVE SMOOTH",
"159 587 OFFCURVE",
"222 631 OFFCURVE",
"327 631 CURVE SMOOTH",
"381 631 OFFCURVE",
"443 619 OFFCURVE",
"491 600 CURVE",
"515 665 LINE",
"459 691 OFFCURVE",
"402 704 OFFCURVE",
"338 704 CURVE SMOOTH",
"176 704 OFFCURVE",
"74 626 OFFCURVE",
"74 501 CURVE SMOOTH",
"74 258 OFFCURVE",
"454 373 OFFCURVE",
"454 183 CURVE SMOOTH",
"454 107 OFFCURVE",
"395 63 OFFCURVE",
"292 63 CURVE SMOOTH",
"232 63 OFFCURVE",
"162 78 OFFCURVE",
"85 109 CURVE",
"61 40 LINE",
"134 8 OFFCURVE",
"215 -10 OFFCURVE",
"289 -10 CURVE SMOOTH"
);
}
);
width = 601;
},
{
anchors = (
{
name = bottom;
position = "{301, 0}";
},
{
name = top;
position = "{294, 694}";
}
);
layerId = "51C2DFEF-3776-4D13-9284-96485B799B57";
paths = (
{
closed = 1;
nodes = (
"457 -10 OFFCURVE",
"574 78 OFFCURVE",
"574 219 CURVE SMOOTH",
"574 468 OFFCURVE",
"224 399 OFFCURVE",
"224 499 CURVE SMOOTH",
"224 533 OFFCURVE",
"263 552 OFFCURVE",
"332 552 CURVE SMOOTH",
"387 552 OFFCURVE",
"447 540 OFFCURVE",
"510 520 CURVE",
"549 666 LINE",
"478 692 OFFCURVE",
"409 704 OFFCURVE",
"340 704 CURVE SMOOTH",
"156 704 OFFCURVE",
"42 617 OFFCURVE",
"42 476 CURVE SMOOTH",
"42 229 OFFCURVE",
"394 306 OFFCURVE",
"394 194 CURVE SMOOTH",
"394 160 OFFCURVE",
"357 142 OFFCURVE",
"294 142 CURVE SMOOTH",
"234 142 OFFCURVE",
"150 163 OFFCURVE",
"82 186 CURVE",
"42 40 LINE",
"119 11 OFFCURVE",
"200 -10 OFFCURVE",
"277 -10 CURVE SMOOTH"
);
}
);
width = 609;
},
{
anchors = (
{
name = bottom;
position = "{302, 0}";
},
{
name = top;
position = "{307, 694}";
}
);
layerId = "0B2E441B-685E-400D-9B9B-E078DEED62EF";
paths = (
{
closed = 1;
nodes = (
"445 -10 OFFCURVE",
"535 61 OFFCURVE",
"535 172 CURVE SMOOTH",
"535 410 OFFCURVE",
"116 303 OFFCURVE",
"116 526 CURVE SMOOTH",
"116 622 OFFCURVE",
"194 683 OFFCURVE",
"317 683 CURVE SMOOTH",
"372 683 OFFCURVE",
"432 670 OFFCURVE",
"496 645 CURVE",
"503 663 LINE",
"441 689 OFFCURVE",
"381 702 OFFCURVE",
"322 702 CURVE SMOOTH",
"184 702 OFFCURVE",
"94 631 OFFCURVE",
"94 522 CURVE SMOOTH",
"94 286 OFFCURVE",
"513 388 OFFCURVE",
"513 167 CURVE SMOOTH",
"513 70 OFFCURVE",
"434 9 OFFCURVE",
"307 9 CURVE SMOOTH",
"240 9 OFFCURVE",
"165 27 OFFCURVE",
"93 59 CURVE",
"86 41 LINE",
"155 8 OFFCURVE",
"232 -10 OFFCURVE",
"304 -10 CURVE SMOOTH"
);
}
);
width = 619;
}
);
note = S;
unicode = 0053;
},
{
glyphname = Germandbls;
lastChange = "2017-10-25 20:11:24 +0000";
layers = (
{
layerId = "F333AEC5-BB61-4D5E-9EDD-6124322D28F2";
paths = (
{
closed = 1;
nodes = (
"573 -10 OFFCURVE",
"668 72 OFFCURVE",
"668 184 CURVE SMOOTH",
"668 283 OFFCURVE",
"598 363 OFFCURVE",
"492 387 CURVE",
"618 583 LINE",
"585 657 OFFCURVE",
"490 704 OFFCURVE",
"371 704 CURVE SMOOTH",
"208 704 OFFCURVE",
"99 615 OFFCURVE",
"99 483 CURVE SMOOTH",
"99 0 LINE",
"182 0 LINE",
"182 492 LINE SMOOTH",
"182 579 OFFCURVE",
"249 631 OFFCURVE",
"361 631 CURVE SMOOTH",
"439 631 OFFCURVE",
"499 607 OFFCURVE",
"523 565 CURVE",
"375 343 LINE",
"509 322 OFFCURVE",
"583 262 OFFCURVE",
"583 175 CURVE SMOOTH",
"583 107 OFFCURVE",
"537 62 OFFCURVE",
"464 62 CURVE SMOOTH",
"423 62 OFFCURVE",
"365 76 OFFCURVE",
"321 98 CURVE",
"297 33 LINE",
"344 6 OFFCURVE",
"402 -10 OFFCURVE",
"454 -10 CURVE SMOOTH"
);
}
);
width = 728;
},
{
layerId = "51C2DFEF-3776-4D13-9284-96485B799B57";
paths = (
{
closed = 1;
nodes = (
"606 -10 OFFCURVE",
"713 79 OFFCURVE",
"713 212 CURVE SMOOTH",
"713 283 OFFCURVE",
"641 356 OFFCURVE",
"553 396 CURVE",
"656 550 LINE",
"623 642 OFFCURVE",
"514 704 OFFCURVE",
"382 704 CURVE SMOOTH",
"197 704 OFFCURVE",
"74 612 OFFCURVE",
"74 474 CURVE SMOOTH",
"74 0 LINE",
"250 0 LINE",
"250 473 LINE SMOOTH",
"250 522 OFFCURVE",
"305 554 OFFCURVE",
"372 554 CURVE SMOOTH",
"426 554 OFFCURVE",
"463 536 OFFCURVE",
"478 509 CURVE",
"342 314 LINE",
"457 291 OFFCURVE",
"533 246 OFFCURVE",
"533 202 CURVE SMOOTH",
"533 165 OFFCURVE",
"503 140 OFFCURVE",
"457 140 CURVE SMOOTH",
"424 140 OFFCURVE",
"374 149 OFFCURVE",
"332 163 CURVE",
"301 18 LINE",
"351 1 OFFCURVE",
"409 -10 OFFCURVE",
"447 -10 CURVE SMOOTH"
);
}
);
width = 752;
},
{
layerId = "0B2E441B-685E-400D-9B9B-E078DEED62EF";
paths = (
{
closed = 1;
nodes = (
"557 -10 OFFCURVE",
"639 55 OFFCURVE",
"639 167 CURVE SMOOTH",
"639 271 OFFCURVE",
"570 348 OFFCURVE",
"435 373 CURVE",
"594 601 LINE",
"573 663 OFFCURVE",
"484 704 OFFCURVE",
"375 704 CURVE SMOOTH",
"220 704 OFFCURVE",
"119 620 OFFCURVE",
"119 494 CURVE SMOOTH",
"119 0 LINE",
"140 0 LINE",
"140 494 LINE SMOOTH",
"140 609 OFFCURVE",
"231 685 OFFCURVE",
"373 685 CURVE SMOOTH",
"466 685 OFFCURVE",
"550 652 OFFCURVE",
"571 601 CURVE",
"405 361 LINE",
"545 337 OFFCURVE",
"618 263 OFFCURVE",
"618 165 CURVE SMOOTH",
"618 65 OFFCURVE",
"544 8 OFFCURVE",
"438 8 CURVE SMOOTH",
"394 8 OFFCURVE",
"345 18 OFFCURVE",
"307 33 CURVE",
"301 16 LINE",
"334 0 OFFCURVE",
"386 -10 OFFCURVE",
"434 -10 CURVE SMOOTH"
);
}
);
width = 719;
}
);
unicode = 1E9E;
},
{
glyphname = Schwa;
lastChange = "2017-10-07 14:27:37 +0000";
layers = (
{
anchors = (
{
name = bottom;
position = "{374, 0}";
},
{
name = top;
position = "{374, 694}";
}
);
layerId = "F333AEC5-BB61-4D5E-9EDD-6124322D28F2";
paths = (
{
closed = 1;
nodes = (
"245 700 OFFCURVE",
"173 682 OFFCURVE",
"87 641 CURVE",
"113 578 LINE",
"182 612 OFFCURVE",
"246 627 OFFCURVE",
"311 627 CURVE SMOOTH",
"491 627 OFFCURVE",
"599 521 OFFCURVE",
"599 329 CURVE SMOOTH",
"599 158 OFFCURVE",
"514 63 OFFCURVE",
"367 63 CURVE SMOOTH",
"227 63 OFFCURVE",
"145 148 OFFCURVE",
"145 300 CURVE",
"620 300 LINE",
"620 368 LINE",
"72 368 LINE",
"70 345 OFFCURVE",
"68 312 OFFCURVE",
"68 291 CURVE SMOOTH",
"68 111 OFFCURVE",
"184 -10 OFFCURVE",
"360 -10 CURVE SMOOTH",
"551 -10 OFFCURVE",
"684 132 OFFCURVE",
"684 347 CURVE SMOOTH",
"684 566 OFFCURVE",
"546 700 OFFCURVE",
"325 700 CURVE SMOOTH"
);
}
);
userData = {
RMXScaler = {
height = 143;
width = 150;
};
};
width = 755;
},
{
anchors = (
{
name = bottom;
position = "{381, 0}";
},
{
name = top;
position = "{381, 694}";
}
);
layerId = "51C2DFEF-3776-4D13-9284-96485B799B57";
paths = (
{
closed = 1;
nodes = (
"236 704 OFFCURVE",
"156 687 OFFCURVE",
"69 650 CURVE",
"104 519 LINE",
"171 542 OFFCURVE",
"234 554 OFFCURVE",
"293 554 CURVE SMOOTH",
"449 554 OFFCURVE",
"528 483 OFFCURVE",
"528 315 CURVE SMOOTH",
"528 192 OFFCURVE",
"474 140 OFFCURVE",
"368 140 CURVE SMOOTH",
"272 140 OFFCURVE",
"216 180 OFFCURVE",
"216 272 CURVE",
"557 272 LINE",
"557 414 LINE",
"58 414 LINE",
"53 370 OFFCURVE",
"50 324 OFFCURVE",
"50 280 CURVE SMOOTH",
"50 105 OFFCURVE",
"168 -10 OFFCURVE",
"355 -10 CURVE SMOOTH",
"565 -10 OFFCURVE",
"708 133 OFFCURVE",
"708 350 CURVE SMOOTH",
"708 571 OFFCURVE",
"561 704 OFFCURVE",
"322 704 CURVE SMOOTH"
);
}
);
userData = {
RMXScaler = {
height = 142;
width = 148;
};
};
width = 753;
},
{
anchors = (
{
name = bottom;
position = "{370, 0}";
},
{
name = top;
position = "{370, 694}";
}
);
layerId = "0B2E441B-685E-400D-9B9B-E078DEED62EF";
paths = (
{
closed = 1;
nodes = (
"248 704 OFFCURVE",
"174 681 OFFCURVE",
"105 632 CURVE",
"114 619 LINE",
"186 667 OFFCURVE",
"253 685 OFFCURVE",
"327 685 CURVE SMOOTH",
"522 685 OFFCURVE",
"643 558 OFFCURVE",
"643 342 CURVE SMOOTH",
"643 140 OFFCURVE",
"538 9 OFFCURVE",
"367 9 CURVE SMOOTH",
"203 9 OFFCURVE",
"106 130 OFFCURVE",
"106 321 CURVE",
"661 321 LINE",
"661 340 LINE",
"84 340 LINE",
"83 332 OFFCURVE",
"83 328 OFFCURVE",
"83 318 CURVE SMOOTH",
"83 123 OFFCURVE",
"192 -10 OFFCURVE",
"365 -10 CURVE SMOOTH",
"541 -10 OFFCURVE",
"666 130 OFFCURVE",
"666 342 CURVE SMOOTH",
"666 562 OFFCURVE",
"533 704 OFFCURVE",
"329 704 CURVE SMOOTH"
);
}
);
userData = {
RMXScaler = {
height = 145;
width = 150;
};
};
width = 757;
}
);
unicode = 018F;
userData = {
RMXScaler = {
source = e;
};
};
},
{
glyphname = T;
lastChange = "2017-10-26 21:56:02 +0000";
layers = (
{
anchors = (
{
name = bottom;
position = "{318, 0}";
},
{
name = center;
position = "{318, 347}";
},
{
name = top;
position = "{318, 694}";
}
);
layerId = "F333AEC5-BB61-4D5E-9EDD-6124322D28F2";
paths = (
{
closed = 1;
nodes = (
"359 0 LINE",
"359 660 LINE",
"276 660 LINE",
"276 0 LINE"
);
},
{
closed = 1;
nodes = (
"591 622 LINE",
"591 694 LINE",
"45 694 LINE",
"45 622 LINE"
);
}
);
width = 636;
},
{
anchors = (
{
name = bottom;
position = "{325, 0}";
},
{
name = center;
position = "{325, 347}";
},
{
name = top;
position = "{325, 694}";
}
);
layerId = "51C2DFEF-3776-4D13-9284-96485B799B57";
paths = (
{
closed = 1;
nodes = (
"410 0 LINE",
"410 660 LINE",
"238 660 LINE",
"238 0 LINE"
);
},
{
closed = 1;
nodes = (
"628 542 LINE",
"628 694 LINE",
"22 694 LINE",
"22 542 LINE"
);
}
);
width = 650;
},
{
anchors = (
{
name = bottom;
position = "{326, 0}";
},
{
name = center;
position = "{330, 347}";
},
{
name = top;
position = "{330, 694}";
}
);
layerId = "0B2E441B-685E-400D-9B9B-E078DEED62EF";
paths = (
{
closed = 1;
nodes = (
"340 0 LINE",
"340 694 LINE",
"319 694 LINE",
"319 0 LINE"
);
},
{
closed = 1;
nodes = (
"592 676 LINE",
"592 694 LINE",
"66 694 LINE",
"66 676 LINE"
);
}
);
width = 658;
}
);
note = T;
unicode = 0054;
},
{
glyphname = U;
lastChange = "2017-10-26 21:50:43 +0000";
layers = (
{
anchors = (
{
name = bottom;
position = "{358, 0}";
},
{
name = ogonek;
position = "{467, 10}";
},
{
name = top;
position = "{358, 694}";
},
{
name = topright;
position = "{657, 694}";
}
);
layerId = "F333AEC5-BB61-4D5E-9EDD-6124322D28F2";
paths = (
{
closed = 1;
nodes = (
"512 -10 OFFCURVE",
"622 92 OFFCURVE",
"622 246 CURVE SMOOTH",
"622 694 LINE",
"541 694 LINE",
"541 236 LINE SMOOTH",
"541 132 OFFCURVE",
"481 63 OFFCURVE",
"364 63 CURVE SMOOTH",
"251 63 OFFCURVE",
"178 128 OFFCURVE",
"178 253 CURVE SMOOTH",
"178 694 LINE",
"95 694 LINE",
"95 243 LINE SMOOTH",
"95 91 OFFCURVE",
"195 -10 OFFCURVE",
"353 -10 CURVE SMOOTH"
);
}
);
width = 717;
},
{
anchors = (
{
name = bottom;
position = "{360, 0}";
},
{
name = ogonek;
position = "{451, 10}";
},
{
name = top;
position = "{360, 694}";
},
{
name = topright;
position = "{710, 694}";
}
);
layerId = "51C2DFEF-3776-4D13-9284-96485B799B57";
paths = (
{
closed = 1;
nodes = (
"534 -10 OFFCURVE",
"655 97 OFFCURVE",
"655 267 CURVE SMOOTH",
"655 694 LINE",
"484 694 LINE",
"484 257 LINE SMOOTH",
"484 187 OFFCURVE",
"436 140 OFFCURVE",
"363 140 CURVE SMOOTH",
"287 140 OFFCURVE",
"237 191 OFFCURVE",
"237 267 CURVE SMOOTH",
"237 694 LINE",
"64 694 LINE",
"64 257 LINE SMOOTH",
"64 100 OFFCURVE",
"178 -10 OFFCURVE",
"357 -10 CURVE SMOOTH"
);
}
);
width = 718;
},
{
anchors = (
{
name = bottom;
position = "{371, 0}";
},
{
name = ogonek;
position = "{478, 10}";
},
{
name = top;
position = "{371, 694}";
},
{
name = topright;
position = "{698, 694}";
}
);
layerId = "0B2E441B-685E-400D-9B9B-E078DEED62EF";
paths = (
{
closed = 1;
nodes = (
"520 -10 OFFCURVE",
"619 97 OFFCURVE",
"619 256 CURVE SMOOTH",
"619 694 LINE",
"598 694 LINE",
"598 256 LINE SMOOTH",
"598 107 OFFCURVE",
"509 9 OFFCURVE",
"373 9 CURVE SMOOTH",
"234 9 OFFCURVE",
"142 108 OFFCURVE",
"142 256 CURVE SMOOTH",
"142 694 LINE",
"120 694 LINE",
"120 256 LINE SMOOTH",
"120 96 OFFCURVE",
"220 -10 OFFCURVE",
"370 -10 CURVE SMOOTH"
);
}
);
width = 739;
}
);
note = U;
unicode = 0055;
},
{
glyphname = V;
lastChange = "2017-10-26 21:50:43 +0000";
layers = (
{
anchors = (
{
name = bottom;
position = "{339, 0}";
},
{
name = top;
position = "{339, 694}";
}
);
layerId = "F333AEC5-BB61-4D5E-9EDD-6124322D28F2";
paths = (
{
closed = 1;
nodes = (
"379 0 LINE",
"632 694 LINE",
"548 694 LINE",
"317 29 LINE",
"367 29 LINE",
"140 694 LINE",
"45 694 LINE",
"298 0 LINE"
);
}
);
width = 677;
},
{
anchors = (
{
name = bottom;
position = "{355, 0}";
},
{
name = top;
position = "{355, 694}";
}
);
layerId = "51C2DFEF-3776-4D13-9284-96485B799B57";
paths = (
{
closed = 1;
nodes = (
"446 0 LINE",
"693 694 LINE",
"520 694 LINE",
"325 92 LINE",
"394 92 LINE",
"198 694 LINE",
"16 694 LINE",
"263 0 LINE"
);
}
);
width = 709;
},
{
anchors = (
{
name = bottom;
position = "{335, 0}";
},
{
name = top;
position = "{335, 694}";
}
);
layerId = "0B2E441B-685E-400D-9B9B-E078DEED62EF";
paths = (
{
closed = 1;
nodes = (
"341 0 LINE",
"598 694 LINE",
"577 694 LINE",
"332 30 LINE",
"341 30 LINE",
"94 694 LINE",
"71 694 LINE",
"330 0 LINE"
);
}
);
width = 669;
}
);
note = V;
unicode = 0056;
},
{
glyphname = W;
lastChange = "2017-10-26 21:56:46 +0000";
layers = (
{
anchors = (
{
name = bottom;
position = "{525, 0}";
},
{
name = top;
position = "{525, 694}";
}
);
layerId = "F333AEC5-BB61-4D5E-9EDD-6124322D28F2";
paths = (
{
closed = 1;
nodes = (
"349 0 LINE",
"551 648 LINE",
"504 648 LINE",
"710 0 LINE",
"790 0 LINE",
"1006 694 LINE",
"924 694 LINE",
"730 39 LINE",
"779 39 LINE",
"580 684 LINE",
"484 684 LINE",
"284 39 LINE",
"333 39 LINE",
"143 694 LINE",
"47 694 LINE",
"269 0 LINE"
);
}
);
width = 1053;
},
{
anchors = (
{
name = bottom;
position = "{531, 0}";
},
{
name = top;
position = "{531, 694}";
}
);
layerId = "51C2DFEF-3776-4D13-9284-96485B799B57";
paths = (
{
closed = 1;
nodes = (
"418 0 LINE",
"585 582 LINE",
"468 582 LINE",
"651 0 LINE",
"836 0 LINE",
"1045 694 LINE",
"872 694 LINE",
"715 105 LINE",
"791 105 LINE",
"612 684 LINE",
"454 684 LINE",
"295 105 LINE",
"361 105 LINE",
"197 694 LINE",
"17 694 LINE",
"233 0 LINE"
);
}
);
width = 1063;
},
{
anchors = (
{
name = bottom;
position = "{525, 0}";
},
{
name = top;
position = "{525, 694}";
}
);
layerId = "0B2E441B-685E-400D-9B9B-E078DEED62EF";
paths = (
{
closed = 1;
nodes = (
"311 0 LINE",
"533 662 LINE",
"519 662 LINE",
"738 0 LINE",
"751 0 LINE",
"977 694 LINE",
"956 694 LINE",
"741 32 LINE",
"750 32 LINE",
"534 684 LINE",
"520 684 LINE",
"301 32 LINE",
"310 32 LINE",
"95 694 LINE",
"72 694 LINE",
"299 0 LINE"
);
}
);
width = 1049;
}
);
note = W;
unicode = 0057;
},
{
glyphname = X;
lastChange = "2017-10-26 21:50:43 +0000";
layers = (
{
anchors = (
{
name = bottom;
position = "{336, 0}";
},
{
name = top;
position = "{336, 694}";
}
);
layerId = "F333AEC5-BB61-4D5E-9EDD-6124322D28F2";
paths = (
{
closed = 1;
nodes = (
"629 0 LINE",
"356 394 LINE",
"162 694 LINE",
"63 694 LINE",
"297 346 LINE",
"530 0 LINE"
);
},
{
closed = 1;
nodes = (
"137 0 LINE",
"355 333 LINE",
"603 694 LINE",
"509 694 LINE",
"308 390 LINE",
"43 0 LINE"
);
}
);
width = 671;
},
{
anchors = (
{
name = bottom;
position = "{353, 0}";
},
{
name = top;
position = "{353, 694}";
}
);
layerId = "51C2DFEF-3776-4D13-9284-96485B799B57";
paths = (
{
closed = 1;
nodes = (
"692 0 LINE",
"401 413 LINE",
"221 694 LINE",
"16 694 LINE",
"309 272 LINE",
"487 0 LINE"
);
},
{
closed = 1;
nodes = (
"211 0 LINE",
"402 296 LINE",
"684 694 LINE",
"494 694 LINE",
"299 420 LINE",
"21 0 LINE"
);
}
);
width = 706;
},
{
anchors = (
{
name = bottom;
position = "{324, 0}";
},
{
name = top;
position = "{324, 694}";
}
);
layerId = "0B2E441B-685E-400D-9B9B-E078DEED62EF";
paths = (
{
closed = 1;
nodes = (
"573 0 LINE",
"328 354 LINE",
"106 694 LINE",
"79 694 LINE",
"317 337 LINE",
"546 0 LINE"
);
},
{
closed = 1;
nodes = (
"94 0 LINE",
"325 343 LINE",
"563 694 LINE",
"539 694 LINE",
"313 358 LINE",
"70 0 LINE"
);
}
);
width = 643;
}
);
note = X;
unicode = 0058;
},
{
glyphname = Y;
lastChange = "2017-10-26 21:50:43 +0000";
layers = (
{
anchors = (
{
name = bottom;
position = "{325, 0}";
},
{
name = top;
position = "{325, 694}";
},
{
name = topleft;
position = "{47, 694}";
}
);
layerId = "F333AEC5-BB61-4D5E-9EDD-6124322D28F2";
paths = (
{
closed = 1;
nodes = (
"363 0 LINE",
"363 299 LINE",
"609 694 LINE",
"518 694 LINE",
"319 362 LINE",
"330 362 LINE",
"138 694 LINE",
"41 694 LINE",
"280 299 LINE",
"280 0 LINE"
);
}
);
width = 650;
},
{
anchors = (
{
name = bottom;
position = "{354, 0}";
},
{
name = top;
position = "{354, 694}";
},
{
name = topleft;
position = "{31, 694}";
}
);
layerId = "51C2DFEF-3776-4D13-9284-96485B799B57";
paths = (
{
closed = 1;
nodes = (
"441 0 LINE",
"441 276 LINE",
"692 694 LINE",
"508 694 LINE",
"323 374 LINE",
"395 374 LINE",
"208 694 LINE",
"11 694 LINE",
"268 274 LINE",
"268 0 LINE"
);
}
);
width = 703;
},
{
anchors = (
{
name = bottom;
position = "{310, 0}";
},
{
name = top;
position = "{310, 694}";
},
{
name = topleft;
position = "{50, 694}";
}
);
layerId = "0B2E441B-685E-400D-9B9B-E078DEED62EF";
paths = (
{
closed = 1;
nodes = (
"316 0 LINE",
"316 353 LINE",
"543 694 LINE",
"520 694 LINE",
"303 364 LINE",
"311 364 LINE",
"93 694 LINE",
"67 694 LINE",
"295 353 LINE",
"295 0 LINE"
);
}
);
width = 610;
}
);
note = Y;
unicode = 0059;
},
{
glyphname = Z;
lastChange = "2017-10-26 21:50:41 +0000";
layers = (
{
anchors = (
{
name = bottom;
position = "{332, 0}";
},
{
name = top;
position = "{332, 694}";
}
);
layerId = "F333AEC5-BB61-4D5E-9EDD-6124322D28F2";
paths = (
{
closed = 1;
nodes = (
"611 0 LINE",
"611 72 LINE",
"131 72 LINE",
"143 47 LINE",
"598 642 LINE",
"598 694 LINE",
"67 694 LINE",
"67 622 LINE",
"519 622 LINE",
"507 647 LINE",
"53 53 LINE",
"53 0 LINE"
);
}
);
width = 664;
},
{
anchors = (
{
name = bottom;
position = "{334, 0}";
},
{
name = top;
position = "{334, 694}";
}
);
layerId = "51C2DFEF-3776-4D13-9284-96485B799B57";
paths = (
{
closed = 1;
nodes = (
"626 0 LINE",
"626 152 LINE",
"180 152 LINE",
"220 94 LINE",
"622 571 LINE",
"622 694 LINE",
"53 694 LINE",
"53 542 LINE",
"479 542 LINE",
"440 599 LINE",
"38 133 LINE",
"38 0 LINE"
);
}
);
width = 666;
},
{
anchors = (
{
name = bottom;
position = "{325, 0}";
},
{
name = top;
position = "{325, 694}";
}
);
layerId = "0B2E441B-685E-400D-9B9B-E078DEED62EF";
paths = (
{
closed = 1;
nodes = (
"589 0 LINE",
"589 18 LINE",
"93 18 LINE",
"93 12 LINE",
"586 677 LINE",
"586 694 LINE",
"86 694 LINE",
"86 676 LINE",
"564 676 LINE",
"564 682 LINE",
"71 16 LINE",
"71 0 LINE"
);
}
);
width = 661;
}
);
note = Z;
unicode = 005A;
},
{
glyphname = a;
lastChange = "2017-10-26 21:50:42 +0000";
layers = (
{
anchors = (
{
name = bottom;
position = "{264, 0}";
},
{
name = ogonek;
position = "{422, 10}";
},
{
name = top;
position = "{249, 482}";
}
);
layerId = "F333AEC5-BB61-4D5E-9EDD-6124322D28F2";
paths = (
{
closed = 1;
nodes = (
"440 0 LINE",
"440 313 LINE SMOOTH",
"440 428 OFFCURVE",
"372 492 OFFCURVE",
"251 492 CURVE SMOOTH",
"186 492 OFFCURVE",
"125 474 OFFCURVE",
"60 435 CURVE",
"81 378 LINE",
"135 407 OFFCURVE",
"182 420 OFFCURVE",
"233 420 CURVE SMOOTH",
"317 420 OFFCURVE",
"360 384 OFFCURVE",
"360 313 CURVE SMOOTH",
"360 56 LINE",
"384 0 LINE"
);
},
{
closed = 1;
nodes = (
"325 -10 OFFCURVE",
"413 62 OFFCURVE",
"429 169 CURVE",
"400 183 LINE",
"384 108 OFFCURVE",
"319 60 OFFCURVE",
"235 60 CURVE SMOOTH",
"171 60 OFFCURVE",
"130 89 OFFCURVE",
"130 134 CURVE SMOOTH",
"130 196 OFFCURVE",
"205 224 OFFCURVE",
"372 224 CURVE",
"372 284 LINE",
"165 284 OFFCURVE",
"50 225 OFFCURVE",
"50 120 CURVE SMOOTH",
"50 42 OFFCURVE",
"114 -10 OFFCURVE",
"211 -10 CURVE SMOOTH"
);
}
);
width = 517;
},
{
anchors = (
{
name = bottom;
position = "{275, 0}";
},
{
name = ogonek;
position = "{447, 10}";
},
{
name = top;
position = "{265, 490}";
}
);
layerId = "51C2DFEF-3776-4D13-9284-96485B799B57";
paths = (
{
closed = 1;
nodes = (
"497 0 LINE",
"497 282 LINE SMOOTH",
"497 418 OFFCURVE",
"410 500 OFFCURVE",
"266 500 CURVE SMOOTH",
"186 500 OFFCURVE",
"102 475 OFFCURVE",
"39 433 CURVE",
"76 319 LINE",
"131 345 OFFCURVE",
"184 359 OFFCURVE",
"227 359 CURVE SMOOTH",
"289 359 OFFCURVE",
"324 331 OFFCURVE",
"324 282 CURVE SMOOTH",
"324 119 LINE",
"351 0 LINE"
);
},
{
closed = 1;
nodes = (
"291 -10 OFFCURVE",
"364 43 OFFCURVE",
"424 155 CURVE",
"371 178 LINE",
"338 140 OFFCURVE",
"297 119 OFFCURVE",
"256 119 CURVE SMOOTH",
"222 119 OFFCURVE",
"202 133 OFFCURVE",
"202 157 CURVE SMOOTH",
"202 190 OFFCURVE",
"242 201 OFFCURVE",
"359 201 CURVE",
"359 305 LINE",
"159 305 OFFCURVE",
"28 234 OFFCURVE",
"28 124 CURVE SMOOTH",
"28 45 OFFCURVE",
"96 -10 OFFCURVE",
"195 -10 CURVE SMOOTH"
);
}
);
width = 546;
},
{
anchors = (
{
name = bottom;
position = "{260, 0}";
},
{
name = ogonek;
position = "{415, 10}";
},
{
name = top;
position = "{240, 480}";
}
);
background = {
paths = (
{
closed = 1;
nodes = (
"416 0 LINE",
"416 327 LINE SMOOTH",
"416 436 OFFCURVE",
"351 486 OFFCURVE",
"242 486 CURVE SMOOTH",
"179 486 OFFCURVE",
"110 460 OFFCURVE",
"68 425 CURVE",
"77 412 LINE",
"121 446 OFFCURVE",
"183 466 OFFCURVE",
"239 466 CURVE SMOOTH",
"337 466 OFFCURVE",
"396 425 OFFCURVE",
"396 323 CURVE SMOOTH",
"396 71 LINE",
"400 0 LINE"
);
},
{
closed = 1;
nodes = (
"291 -10 OFFCURVE",
"359 20 OFFCURVE",
"404 65 CURVE",
"404 86 LINE",
"348 34 OFFCURVE",
"288 10 OFFCURVE",
"224 10 CURVE SMOOTH",
"137 10 OFFCURVE",
"84 48 OFFCURVE",
"84 112 CURVE SMOOTH",
"84 202 OFFCURVE",
"187 245 OFFCURVE",
"404 245 CURVE",
"404 266 LINE",
"184 266 OFFCURVE",
"63 211 OFFCURVE",
"63 108 CURVE SMOOTH",
"63 35 OFFCURVE",
"122 -10 OFFCURVE",
"220 -10 CURVE SMOOTH"
);
}
);
};
layerId = "0B2E441B-685E-400D-9B9B-E078DEED62EF";
paths = (
{
closed = 1;
nodes = (
"417 0 LINE",
"417 327 LINE SMOOTH",
"417 428 OFFCURVE",
"357 486 OFFCURVE",
"255 486 CURVE SMOOTH",
"189 486 OFFCURVE",
"119 462 OFFCURVE",
"73 425 CURVE",
"80 412 LINE",
"126 448 OFFCURVE",
"188 468 OFFCURVE",
"249 468 CURVE SMOOTH",
"346 468 OFFCURVE",
"396 417 OFFCURVE",
"396 323 CURVE SMOOTH",
"396 71 LINE",
"400 0 LINE"
);
},
{
closed = 1;
nodes = (
"290 -10 OFFCURVE",
"356 19 OFFCURVE",
"404 68 CURVE",
"404 86 LINE",
"349 35 OFFCURVE",
"295 8 OFFCURVE",
"224 8 CURVE SMOOTH",
"139 8 OFFCURVE",
"89 48 OFFCURVE",
"89 111 CURVE SMOOTH",
"89 202 OFFCURVE",
"191 248 OFFCURVE",
"404 248 CURVE",
"404 266 LINE",
"187 266 OFFCURVE",
"68 210 OFFCURVE",
"68 108 CURVE SMOOTH",
"68 37 OFFCURVE",
"127 -10 OFFCURVE",
"218 -10 CURVE SMOOTH"
);
}
);
width = 516;
},
{
anchors = (
{
name = bottom;
position = "{282, 0}";
},
{
name = ogonek;
position = "{428, 10}";
},
{
name = top;
position = "{282, 490}";
}
);
associatedMasterId = "51C2DFEF-3776-4D13-9284-96485B799B57";
background = {
paths = (
{
closed = 1;
nodes = (
"504 0 LINE",
"504 292 LINE SMOOTH",
"504 424 OFFCURVE",
"416 500 OFFCURVE",
"274 500 CURVE SMOOTH",
"200 500 OFFCURVE",
"113 476 OFFCURVE",
"46 428 CURVE",
"85 313 LINE",
"131 341 OFFCURVE",
"184 356 OFFCURVE",
"237 356 CURVE SMOOTH",
"295 356 OFFCURVE",
"331 331 OFFCURVE",
"331 282 CURVE SMOOTH",
"331 119 LINE",
"358 0 LINE"
);
},
{
closed = 1;
nodes = (
"318 -10 OFFCURVE",
"374 68 OFFCURVE",
"421 155 CURVE",
"378 178 LINE",
"345 140 OFFCURVE",
"301 119 OFFCURVE",
"266 119 CURVE SMOOTH",
"232 119 OFFCURVE",
"209 132 OFFCURVE",
"209 154 CURVE SMOOTH",
"209 185 OFFCURVE",
"234 205 OFFCURVE",
"366 205 CURVE",
"366 309 LINE",
"153 299 OFFCURVE",
"35 228 OFFCURVE",
"35 123 CURVE SMOOTH",
"35 41 OFFCURVE",
"110 -10 OFFCURVE",
"201 -10 CURVE SMOOTH"
);
}
);
};
layerId = "9707B00C-8292-4D70-B17A-DB07EF7F01BC";
name = "Sep 15 17, 21:22";
paths = (
{
closed = 1;
nodes = (
"504 0 LINE",
"504 292 LINE SMOOTH",
"504 422 OFFCURVE",
"418 500 OFFCURVE",
"276 500 CURVE SMOOTH",
"194 500 OFFCURVE",
"109 475 OFFCURVE",
"46 433 CURVE",
"85 318 LINE",
"129 342 OFFCURVE",
"184 356 OFFCURVE",
"233 356 CURVE SMOOTH",
"297 356 OFFCURVE",
"331 331 OFFCURVE",
"331 282 CURVE SMOOTH",
"331 119 LINE",
"358 0 LINE"
);
},
{
closed = 1;
nodes = (
"298 -10 OFFCURVE",
"371 43 OFFCURVE",
"431 155 CURVE",
"378 178 LINE",
"345 140 OFFCURVE",
"304 119 OFFCURVE",
"263 119 CURVE SMOOTH",
"229 119 OFFCURVE",
"209 133 OFFCURVE",
"209 157 CURVE SMOOTH",
"209 191 OFFCURVE",
"255 205 OFFCURVE",
"366 205 CURVE",
"366 309 LINE",
"157 299 OFFCURVE",
"35 231 OFFCURVE",
"35 124 CURVE SMOOTH",
"35 45 OFFCURVE",
"104 -10 OFFCURVE",
"202 -10 CURVE SMOOTH"
);
}
);
width = 564;
}
);
note = a;
unicode = 0061;
},
{
glyphname = ae;
lastChange = "2017-10-26 18:11:51 +0000";
layers = (
{
anchors = (
{
name = bottom;
position = "{420, 0}";
},
{
name = top;
position = "{420, 482}";
}
);
layerId = "F333AEC5-BB61-4D5E-9EDD-6124322D28F2";
paths = (
{
closed = 1;
nodes = (
"426 224 LINE",
"426 326 LINE SMOOTH",
"426 429 OFFCURVE",
"368 492 OFFCURVE",
"250 492 CURVE SMOOTH",
"184 492 OFFCURVE",
"123 473 OFFCURVE",
"59 435 CURVE",
"80 378 LINE",
"138 408 OFFCURVE",
"183 420 OFFCURVE",
"232 420 CURVE SMOOTH",
"316 420 OFFCURVE",
"364 384 OFFCURVE",
"364 313 CURVE SMOOTH",
"364 224 LINE"
);
},
{
closed = 1;
nodes = (
"324 -10 OFFCURVE",
"412 62 OFFCURVE",
"428 169 CURVE",
"399 183 LINE",
"383 108 OFFCURVE",
"318 60 OFFCURVE",
"234 60 CURVE SMOOTH",
"170 60 OFFCURVE",
"129 89 OFFCURVE",
"129 134 CURVE SMOOTH",
"129 196 OFFCURVE",
"203 219 OFFCURVE",
"371 219 CURVE",
"371 279 LINE",
"164 279 OFFCURVE",
"49 225 OFFCURVE",
"49 120 CURVE SMOOTH",
"49 42 OFFCURVE",
"113 -10 OFFCURVE",
"210 -10 CURVE SMOOTH"
);
},
{
closed = 1;
nodes = (
"661 -10 OFFCURVE",
"708 1 OFFCURVE",
"766 27 CURVE",
"749 83 LINE",
"704 64 OFFCURVE",
"662 55 OFFCURVE",
"623 55 CURVE SMOOTH",
"509 55 OFFCURVE",
"434 130 OFFCURVE",
"434 255 CURVE SMOOTH",
"434 364 OFFCURVE",
"491 424 OFFCURVE",
"579 424 CURVE SMOOTH",
"661 424 OFFCURVE",
"709 371 OFFCURVE",
"709 279 CURVE",
"428 279 LINE",
"428 219 LINE",
"780 219 LINE",
"782 234 OFFCURVE",
"784 269 OFFCURVE",
"784 288 CURVE SMOOTH",
"784 409 OFFCURVE",
"704 492 OFFCURVE",
"585 492 CURVE SMOOTH",
"451 492 OFFCURVE",
"360 388 OFFCURVE",
"360 236 CURVE SMOOTH",
"360 82 OFFCURVE",
"453 -10 OFFCURVE",
"608 -10 CURVE SMOOTH"
);
}
);
width = 837;
},
{
anchors = (
{
name = bottom;
position = "{430, 0}";
},
{
name = top;
position = "{430, 490}";
}
);
layerId = "51C2DFEF-3776-4D13-9284-96485B799B57";
paths = (
{
closed = 1;
nodes = (
"452 249 LINE",
"452 282 LINE SMOOTH",
"452 437 OFFCURVE",
"399 500 OFFCURVE",
"271 500 CURVE SMOOTH",
"191 500 OFFCURVE",
"107 475 OFFCURVE",
"44 433 CURVE",
"83 314 LINE",
"127 338 OFFCURVE",
"181 356 OFFCURVE",
"233 356 CURVE SMOOTH",
"294 356 OFFCURVE",
"329 331 OFFCURVE",
"329 282 CURVE SMOOTH",
"329 249 LINE"
);
},
{
closed = 1;
nodes = (
"299 -10 OFFCURVE",
"372 38 OFFCURVE",
"429 145 CURVE",
"376 168 LINE",
"343 130 OFFCURVE",
"300 119 OFFCURVE",
"266 119 CURVE SMOOTH",
"227 119 OFFCURVE",
"207 133 OFFCURVE",
"207 154 CURVE SMOOTH",
"207 184 OFFCURVE",
"248 195 OFFCURVE",
"364 195 CURVE",
"364 299 LINE",
"160 299 OFFCURVE",
"33 232 OFFCURVE",
"33 124 CURVE SMOOTH",
"33 45 OFFCURVE",
"100 -10 OFFCURVE",
"203 -10 CURVE SMOOTH"
);
},
{
closed = 1;
nodes = (
"680 -10 OFFCURVE",
"746 4 OFFCURVE",
"810 30 CURVE",
"776 149 LINE",
"727 136 OFFCURVE",
"682 129 OFFCURVE",
"640 129 CURVE SMOOTH",
"538 129 OFFCURVE",
"491 171 OFFCURVE",
"491 259 CURVE SMOOTH",
"491 330 OFFCURVE",
"522 370 OFFCURVE",
"577 370 CURVE SMOOTH",
"621 370 OFFCURVE",
"646 344 OFFCURVE",
"646 298 CURVE",
"477 298 LINE",
"477 195 LINE",
"809 195 LINE",
"814 220 OFFCURVE",
"816 248 OFFCURVE",
"816 271 CURVE SMOOTH",
"816 418 OFFCURVE",
"733 500 OFFCURVE",
"591 500 CURVE SMOOTH",
"432 500 OFFCURVE",
"327 398 OFFCURVE",
"327 243 CURVE SMOOTH",
"327 85 OFFCURVE",
"436 -10 OFFCURVE",
"612 -10 CURVE SMOOTH"
);
}
);
width = 859;
},
{
anchors = (
{
name = bottom;
position = "{416, 0}";
},
{
name = top;
position = "{416, 480}";
}
);
layerId = "0B2E441B-685E-400D-9B9B-E078DEED62EF";
paths = (
{
closed = 1;
nodes = (
"399 239 LINE",
"399 327 LINE SMOOTH",
"399 428 OFFCURVE",
"342 486 OFFCURVE",
"240 486 CURVE SMOOTH",
"174 486 OFFCURVE",
"104 462 OFFCURVE",
"58 425 CURVE",
"65 412 LINE",
"111 448 OFFCURVE",
"173 468 OFFCURVE",
"234 468 CURVE SMOOTH",
"331 468 OFFCURVE",
"384 416 OFFCURVE",
"384 322 CURVE SMOOTH",
"384 239 LINE"
);
},
{
closed = 1;
nodes = (
"306 -10 OFFCURVE",
"390 55 OFFCURVE",
"407 154 CURVE",
"396 162 LINE",
"382 73 OFFCURVE",
"307 8 OFFCURVE",
"207 8 CURVE SMOOTH",
"129 8 OFFCURVE",
"77 48 OFFCURVE",
"77 112 CURVE SMOOTH",
"77 202 OFFCURVE",
"180 244 OFFCURVE",
"392 244 CURVE",
"392 262 LINE",
"176 262 OFFCURVE",
"56 210 OFFCURVE",
"56 109 CURVE SMOOTH",
"56 37 OFFCURVE",
"116 -10 OFFCURVE",
"203 -10 CURVE SMOOTH"
);
},
{
closed = 1;
nodes = (
"664 -10 OFFCURVE",
"713 5 OFFCURVE",
"760 38 CURVE",
"752 50 LINE",
"704 19 OFFCURVE",
"661 6 OFFCURVE",
"612 6 CURVE SMOOTH",
"485 6 OFFCURVE",
"404 94 OFFCURVE",
"404 241 CURVE SMOOTH",
"404 376 OFFCURVE",
"473 468 OFFCURVE",
"583 468 CURVE SMOOTH",
"691 468 OFFCURVE",
"754 380 OFFCURVE",
"754 261 CURVE",
"393 261 LINE",
"393 244 LINE",
"774 244 LINE",
"775 251 OFFCURVE",
"775 256 OFFCURVE",
"775 264 CURVE SMOOTH",
"775 388 OFFCURVE",
"702 486 OFFCURVE",
"585 486 CURVE SMOOTH",
"467 486 OFFCURVE",
"384 386 OFFCURVE",
"384 239 CURVE SMOOTH",
"384 87 OFFCURVE",
"472 -10 OFFCURVE",
"610 -10 CURVE SMOOTH"
);
}
);
width = 832;
}
);
leftMetricsKey = a;
rightMetricsKey = e;
unicode = 00E6;
},
{
glyphname = c;
lastChange = "2017-10-26 21:50:42 +0000";
layers = (
{
anchors = (
{
name = bottom;
position = "{256, 0}";
},
{
name = top;
position = "{276, 482}";
}
);
layerId = "F333AEC5-BB61-4D5E-9EDD-6124322D28F2";
paths = (
{
closed = 1;
nodes = (
"337 -10 OFFCURVE",
"399 5 OFFCURVE",
"442 30 CURVE",
"423 86 LINE",
"385 67 OFFCURVE",
"339 56 OFFCURVE",
"298 56 CURVE SMOOTH",
"195 56 OFFCURVE",
"136 125 OFFCURVE",
"136 243 CURVE SMOOTH",
"136 359 OFFCURVE",
"194 422 OFFCURVE",
"298 422 CURVE SMOOTH",
"338 422 OFFCURVE",
"381 413 OFFCURVE",
"423 395 CURVE",
"442 460 LINE",
"397 481 OFFCURVE",
"348 492 OFFCURVE",
"299 492 CURVE SMOOTH",
"152 492 OFFCURVE",
"54 386 OFFCURVE",
"54 227 CURVE SMOOTH",
"54 78 OFFCURVE",
"138 -10 OFFCURVE",
"279 -10 CURVE SMOOTH"
);
}
);
width = 483;
},
{
anchors = (
{
name = bottom;
position = "{244, 0}";
},
{
name = top;
position = "{262, 490}";
}
);
background = {
components = (
{
name = o;
transform = "{1, 0, 0, 1, -5, 0}";
}
);
};
layerId = "51C2DFEF-3776-4D13-9284-96485B799B57";
paths = (
{
closed = 1;
nodes = (
"356 -10 OFFCURVE",
"412 1 OFFCURVE",
"463 22 CURVE",
"429 141 LINE",
"397 133 OFFCURVE",
"361 128 OFFCURVE",
"333 128 CURVE SMOOTH",
"247 128 OFFCURVE",
"203 175 OFFCURVE",
"203 248 CURVE SMOOTH",
"203 321 OFFCURVE",
"247 356 OFFCURVE",
"314 356 CURVE SMOOTH",
"346 356 OFFCURVE",
"390 348 OFFCURVE",
"426 337 CURVE",
"463 472 LINE",
"414 490 OFFCURVE",
"365 500 OFFCURVE",
"313 500 CURVE SMOOTH",
"145 500 OFFCURVE",
"27 396 OFFCURVE",
"27 235 CURVE SMOOTH",
"27 84 OFFCURVE",
"131 -10 OFFCURVE",
"299 -10 CURVE SMOOTH"
);
}
);
width = 488;
},
{
anchors = (
{
name = bottom;
position = "{241, 0}";
},
{
name = top;
position = "{257, 480}";
}
);
layerId = "0B2E441B-685E-400D-9B9B-E078DEED62EF";
paths = (
{
closed = 1;
nodes = (
"334 -10 OFFCURVE",
"388 7 OFFCURVE",
"426 36 CURVE",
"418 48 LINE",
"383 22 OFFCURVE",
"333 6 OFFCURVE",
"286 6 CURVE SMOOTH",
"172 6 OFFCURVE",
"96 100 OFFCURVE",
"96 237 CURVE SMOOTH",
"96 377 OFFCURVE",
"178 468 OFFCURVE",
"297 468 CURVE SMOOTH",
"340 468 OFFCURVE",
"384 456 OFFCURVE",
"420 436 CURVE",
"427 452 LINE",
"390 473 OFFCURVE",
"346 486 OFFCURVE",
"299 486 CURVE SMOOTH",
"166 486 OFFCURVE",
"75 385 OFFCURVE",
"75 234 CURVE SMOOTH",
"75 89 OFFCURVE",
"160 -10 OFFCURVE",
"283 -10 CURVE SMOOTH"
);
}
);
width = 481;
}
);
note = c;
unicode = 0063;
},
{
glyphname = eth;
lastChange = "2017-10-15 16:57:39 +0000";
layers = (
{
layerId = "F333AEC5-BB61-4D5E-9EDD-6124322D28F2";
paths = (
{
closed = 1;
nodes = (
"416 -9 OFFCURVE",
"499 94 OFFCURVE",
"499 273 CURVE SMOOTH",
"499 486 OFFCURVE",
"383 662 OFFCURVE",
"164 749 CURVE",
"137 691 LINE",
"301 616 OFFCURVE",
"402 500 OFFCURVE",
"432 351 CURVE",
"449 327 LINE",
"417 404 OFFCURVE",
"350 449 OFFCURVE",
"265 449 CURVE SMOOTH",
"141 449 OFFCURVE",
"54 354 OFFCURVE",
"54 215 CURVE SMOOTH",
"54 78 OFFCURVE",
"139 -9 OFFCURVE",
"271 -9 CURVE SMOOTH"
);
},
{
closed = 1;
nodes = (
"190 61 OFFCURVE",
"134 126 OFFCURVE",
"134 230 CURVE SMOOTH",
"134 325 OFFCURVE",
"181 379 OFFCURVE",
"264 379 CURVE SMOOTH",
"356 379 OFFCURVE",
"421 311 OFFCURVE",
"421 213 CURVE SMOOTH",
"421 121 OFFCURVE",
"364 61 OFFCURVE",
"279 61 CURVE SMOOTH"
);
},
{
closed = 1;
nodes = (
"426 681 LINE",
"399 730 LINE",
"139 594 LINE",
"166 546 LINE"
);
}
);
width = 564;
},
{
layerId = "51C2DFEF-3776-4D13-9284-96485B799B57";
paths = (
{
closed = 1;
nodes = (
"441 -9 OFFCURVE",
"529 94 OFFCURVE",
"529 274 CURVE SMOOTH",
"529 489 OFFCURVE",
"403 650 OFFCURVE",
"179 749 CURVE",
"116 613 LINE",
"267 536 OFFCURVE",
"357 441 OFFCURVE",
"380 335 CURVE",
"460 282 LINE",
"460 382 OFFCURVE",
"397 447 OFFCURVE",
"275 447 CURVE SMOOTH",
"131 447 OFFCURVE",
"28 355 OFFCURVE",
"28 215 CURVE SMOOTH",
"28 78 OFFCURVE",
"127 -9 OFFCURVE",
"277 -9 CURVE SMOOTH"
);
},
{
closed = 1;
nodes = (
"235 131 OFFCURVE",
"205 173 OFFCURVE",
"205 224 CURVE SMOOTH",
"205 280 OFFCURVE",
"240 307 OFFCURVE",
"280 307 CURVE SMOOTH",
"329 307 OFFCURVE",
"359 267 OFFCURVE",
"359 215 CURVE SMOOTH",
"359 162 OFFCURVE",
"328 131 OFFCURVE",
"285 131 CURVE SMOOTH"
);
},
{
closed = 1;
nodes = (
"490 636 LINE",
"438 728 LINE",
"116 536 LINE",
"168 445 LINE"
);
}
);
width = 571;
},
{
layerId = "0B2E441B-685E-400D-9B9B-E078DEED62EF";
paths = (
{
closed = 1;
nodes = (
"394 -9 OFFCURVE",
"467 86 OFFCURVE",
"467 249 CURVE SMOOTH",
"467 467 OFFCURVE",
"337 665 OFFCURVE",
"142 743 CURVE",
"137 729 LINE",
"299 657 OFFCURVE",
"414 507 OFFCURVE",
"447 324 CURVE",
"450 317 LINE",
"425 394 OFFCURVE",
"361 449 OFFCURVE",
"270 449 CURVE SMOOTH",
"152 449 OFFCURVE",
"70 356 OFFCURVE",
"70 221 CURVE SMOOTH",
"70 83 OFFCURVE",
"155 -9 OFFCURVE",
"274 -9 CURVE SMOOTH"
);
},
{
closed = 1;
nodes = (
"168 9 OFFCURVE",
"91 94 OFFCURVE",
"91 226 CURVE SMOOTH",
"91 351 OFFCURVE",
"159 431 OFFCURVE",
"268 431 CURVE SMOOTH",
"374 431 OFFCURVE",
"447 356 OFFCURVE",
"447 221 CURVE SMOOTH",
"447 94 OFFCURVE",
"382 9 OFFCURVE",
"275 9 CURVE SMOOTH"
);
},
{
closed = 1;
nodes = (
"413 709 LINE",
"405 723 LINE",
"138 588 LINE",
"146 574 LINE"
);
}
);
width = 545;
}
);
unicode = 00F0;
},
{
glyphname = e;
lastChange = "2017-10-26 21:50:42 +0000";
layers = (
{
anchors = (
{
name = "#entry";
position = "{92, 236}";
},
{
name = bottom;
position = "{287, 0}";
},
{
name = ogonek;
position = "{430, 10}";
},
{
name = top;
position = "{272, 482}";
}
);
associatedMasterId = "F333AEC5-BB61-4D5E-9EDD-6124322D28F2";
layerId = "91DE0B1C-30D9-4C38-87F3-02620E7556DE";
name = "Aug 19 17, 13:53";
paths = (
{
closed = 1;
nodes = (
"351 -10 OFFCURVE",
"410 5 OFFCURVE",
"459 27 CURVE",
"445 83 LINE",
"403 66 OFFCURVE",
"358 55 OFFCURVE",
"317 55 CURVE SMOOTH",
"207 55 OFFCURVE",
"136 133 OFFCURVE",
"136 251 CURVE SMOOTH",
"136 353 OFFCURVE",
"188 422 OFFCURVE",
"273 422 CURVE SMOOTH",
"348 422 OFFCURVE",
"397 369 OFFCURVE",
"397 279 CURVE",
"121 279 LINE",
"121 219 LINE",
"473 219 LINE",
"475 234 OFFCURVE",
"477 269 OFFCURVE",
"477 289 CURVE SMOOTH",
"477 413 OFFCURVE",
"397 492 OFFCURVE",
"279 492 CURVE SMOOTH",
"145 492 OFFCURVE",
"53 391 OFFCURVE",
"53 236 CURVE SMOOTH",
"53 82 OFFCURVE",
"144 -10 OFFCURVE",
"291 -10 CURVE SMOOTH"
);
}
);
width = 533;
},
{
anchors = (
{
name = "#entry";
position = "{93, 236}";
},
{
name = bottom;
position = "{288, 0}";
},
{
name = ogonek;
position = "{431, 10}";
},
{
name = top;
position = "{273, 482}";
}
);
background = {
paths = (
{
closed = 1;
nodes = (
"420 -10 OFFCURVE",
"517 92 OFFCURVE",
"517 247 CURVE SMOOTH",
"517 394 OFFCURVE",
"430 492 OFFCURVE",
"291 492 CURVE SMOOTH",
"149 492 OFFCURVE",
"54 390 OFFCURVE",
"54 236 CURVE SMOOTH",
"54 89 OFFCURVE",
"140 -10 OFFCURVE",
"279 -10 CURVE SMOOTH"
);
},
{
closed = 1;
nodes = (
"198 60 OFFCURVE",
"134 134 OFFCURVE",
"134 246 CURVE SMOOTH",
"134 352 OFFCURVE",
"190 422 OFFCURVE",
"280 422 CURVE SMOOTH",
"372 422 OFFCURVE",
"437 348 OFFCURVE",
"437 236 CURVE SMOOTH",
"437 131 OFFCURVE",
"380 60 OFFCURVE",
"290 60 CURVE SMOOTH"
);
}
);
};
layerId = "F333AEC5-BB61-4D5E-9EDD-6124322D28F2";
paths = (
{
closed = 1;
nodes = (
"355 -10 OFFCURVE",
"402 1 OFFCURVE",
"460 27 CURVE",
"443 83 LINE",
"398 64 OFFCURVE",
"356 55 OFFCURVE",
"317 55 CURVE SMOOTH",
"203 55 OFFCURVE",
"136 130 OFFCURVE",
"136 255 CURVE SMOOTH",
"136 364 OFFCURVE",
"185 424 OFFCURVE",
"273 424 CURVE SMOOTH",
"355 424 OFFCURVE",
"403 371 OFFCURVE",
"403 279 CURVE",
"122 279 LINE",
"122 219 LINE",
"474 219 LINE",
"476 234 OFFCURVE",
"478 269 OFFCURVE",
"478 288 CURVE SMOOTH",
"478 409 OFFCURVE",
"398 492 OFFCURVE",
"279 492 CURVE SMOOTH",
"145 492 OFFCURVE",
"54 388 OFFCURVE",
"54 236 CURVE SMOOTH",
"54 82 OFFCURVE",
"147 -10 OFFCURVE",
"302 -10 CURVE SMOOTH"
);
}
);
width = 532;
},
{
anchors = (
{
name = "#entry";
position = "{110, 236}";
},
{
name = bottom;
position = "{280, 0}";
},
{
name = ogonek;
position = "{449, 10}";
},
{
name = top;
position = "{280, 490}";
}
);
layerId = "51C2DFEF-3776-4D13-9284-96485B799B57";
paths = (
{
closed = 1;
nodes = (
"382 -10 OFFCURVE",
"449 4 OFFCURVE",
"511 30 CURVE",
"477 149 LINE",
"430 136 OFFCURVE",
"384 129 OFFCURVE",
"342 129 CURVE SMOOTH",
"243 129 OFFCURVE",
"202 166 OFFCURVE",
"202 260 CURVE SMOOTH",
"202 334 OFFCURVE",
"227 370 OFFCURVE",
"278 370 CURVE SMOOTH",
"322 370 OFFCURVE",
"347 344 OFFCURVE",
"347 298 CURVE",
"178 298 LINE",
"178 195 LINE",
"510 195 LINE",
"514 219 OFFCURVE",
"517 247 OFFCURVE",
"517 274 CURVE SMOOTH",
"517 416 OFFCURVE",
"435 500 OFFCURVE",
"291 500 CURVE SMOOTH",
"132 500 OFFCURVE",
"28 397 OFFCURVE",
"28 243 CURVE SMOOTH",
"28 86 OFFCURVE",
"135 -10 OFFCURVE",
"314 -10 CURVE SMOOTH"
);
}
);
width = 556;
},
{
anchors = (
{
name = "#entry";
position = "{86, 245}";
},
{
name = bottom;
position = "{268, 0}";
},
{
name = ogonek;
position = "{442, 10}";
},
{
name = top;
position = "{273, 480}";
}
);
layerId = "0B2E441B-685E-400D-9B9B-E078DEED62EF";
paths = (
{
closed = 1;
nodes = (
"356 -10 OFFCURVE",
"405 5 OFFCURVE",
"452 38 CURVE",
"444 50 LINE",
"396 19 OFFCURVE",
"353 6 OFFCURVE",
"304 6 CURVE SMOOTH",
"177 6 OFFCURVE",
"97 94 OFFCURVE",
"97 241 CURVE SMOOTH",
"97 377 OFFCURVE",
"165 468 OFFCURVE",
"276 468 CURVE SMOOTH",
"383 468 OFFCURVE",
"446 384 OFFCURVE",
"446 256 CURVE",
"85 256 LINE",
"85 239 LINE",
"466 239 LINE",
"467 246 OFFCURVE",
"467 251 OFFCURVE",
"467 259 CURVE SMOOTH",
"467 392 OFFCURVE",
"394 486 OFFCURVE",
"278 486 CURVE SMOOTH",
"159 486 OFFCURVE",
"75 386 OFFCURVE",
"75 239 CURVE SMOOTH",
"75 87 OFFCURVE",
"164 -10 OFFCURVE",
"302 -10 CURVE SMOOTH"
);
}
);
width = 536;
}
);
note = e;
unicode = 0065;
},
{
glyphname = f;
lastChange = "2017-10-26 21:50:42 +0000";
layers = (
{
anchors = (
{
name = "#hook";
position = "{142, 0}";
},
{
name = bottom;
position = "{141, 0}";
},
{
name = top;
position = "{268, 739}";
}
);
layerId = "F333AEC5-BB61-4D5E-9EDD-6124322D28F2";
paths = (
{
closed = 1;
nodes = (
"181 0 LINE",
"181 587 LINE SMOOTH",
"181 648 OFFCURVE",
"209 681 OFFCURVE",
"264 681 CURVE SMOOTH",
"291 681 OFFCURVE",
"324 673 OFFCURVE",
"349 662 CURVE",
"368 725 LINE",
"337 741 OFFCURVE",
"304 749 OFFCURVE",
"271 749 CURVE SMOOTH",
"172 749 OFFCURVE",
"101 678 OFFCURVE",
"101 577 CURVE SMOOTH",
"101 0 LINE"
);
},
{
closed = 1;
nodes = (
"331 415 LINE",
"331 482 LINE",
"29 482 LINE",
"29 415 LINE"
);
}
);
width = 360;
},
{
anchors = (
{
name = "#hook";
position = "{164, 0}";
},
{
name = bottom;
position = "{164, 0}";
},
{
name = top;
position = "{316, 739}";
}
);
layerId = "51C2DFEF-3776-4D13-9284-96485B799B57";
paths = (
{
closed = 1;
nodes = (
"255 0 LINE",
"255 534 LINE SMOOTH",
"255 583 OFFCURVE",
"285 607 OFFCURVE",
"331 607 CURVE SMOOTH",
"353 607 OFFCURVE",
"389 601 OFFCURVE",
"411 594 CURVE",
"443 727 LINE",
"405 741 OFFCURVE",
"363 749 OFFCURVE",
"319 749 CURVE SMOOTH",
"173 749 OFFCURVE",
"82 662 OFFCURVE",
"82 518 CURVE SMOOTH",
"82 0 LINE"
);
},
{
closed = 1;
nodes = (
"395 355 LINE",
"395 490 LINE",
"22 490 LINE",
"22 355 LINE"
);
}
);
width = 410;
},
{
anchors = (
{
name = "#hook";
position = "{133, 0}";
},
{
name = bottom;
position = "{132, 0}";
},
{
name = top;
position = "{233, 739}";
}
);
layerId = "0B2E441B-685E-400D-9B9B-E078DEED62EF";
paths = (
{
closed = 1;
nodes = (
"142 0 LINE",
"142 636 LINE SMOOTH",
"142 693 OFFCURVE",
"180 731 OFFCURVE",
"238 731 CURVE SMOOTH",
"259 731 OFFCURVE",
"283 726 OFFCURVE",
"305 716 CURVE",
"312 731 LINE",
"287 743 OFFCURVE",
"262 749 OFFCURVE",
"239 749 CURVE SMOOTH",
"171 749 OFFCURVE",
"122 699 OFFCURVE",
"122 631 CURVE SMOOTH",
"122 0 LINE"
);
},
{
closed = 1;
nodes = (
"293 463 LINE",
"293 480 LINE",
"42 480 LINE",
"42 463 LINE"
);
}
);
width = 335;
}
);
note = f;
unicode = 0066;
},
{
glyphname = h;
lastChange = "2017-10-26 21:50:42 +0000";
layers = (
{
anchors = (
{
name = bottom;
position = "{286, 0}";
},
{
name = center;
position = "{164, 608}";
},
{
name = top;
position = "{292, 739}";
}
);
background = {
components = (
{
name = _stem.d;
transform = "{1, 0, 0, 1, 310, 0}";
},
{
name = _bowl.d;
transform = "{1, 0, 0, 1, -8, 0}";
}
);
};
components = (
{
name = _stem.h;
transform = "{1, 0, 0, 1, -2, 0}";
},
{
name = _part.shoulder.n;
piece = {
"Crotch depth" = -5.68366;
};
transform = "{1, 0, 0, 1, 92, 0}";
}
);
layerId = "F333AEC5-BB61-4D5E-9EDD-6124322D28F2";
width = 576;
},
{
anchors = (
{
name = bottom;
position = "{304, 0}";
},
{
name = center;
position = "{185, 600}";
},
{
name = top;
position = "{324, 739}";
}
);
components = (
{
name = _stem.h;
transform = "{1, 0, 0, 1, -18, 0}";
},
{
name = _part.shoulder.n;
piece = {
"Crotch depth" = -10;
};
transform = "{1, 0, 0, 1, 137, 0}";
}
);
layerId = "51C2DFEF-3776-4D13-9284-96485B799B57";
width = 607;
},
{
anchors = (
{
name = bottom;
position = "{284, 0}";
},
{
name = center;
position = "{183, 607}";
},
{
name = top;
position = "{304, 739}";
}
);
components = (
{
name = _stem.h;
transform = "{1, 0, 0, 1, -33, 0}";
},
{
name = _part.shoulder.n;
piece = {
"Crotch depth" = -2.33547;
};
transform = "{1, 0, 0, 1, 10, 0}";
}
);
layerId = "0B2E441B-685E-400D-9B9B-E078DEED62EF";
width = 567;
},
{
associatedMasterId = "0B2E441B-685E-400D-9B9B-E078DEED62EF";
layerId = "D8BCD29D-2EC0-41B9-85E4-32E264350C95";
name = "Sep 11 17, 19:08";
paths = (
{
closed = 1;
nodes = (
"120 0 LINE",
"120 739 LINE",
"100 739 LINE",
"100 0 LINE"
);
},
{
closed = 1;
nodes = (
"478 0 LINE",
"478 338 LINE SMOOTH",
"478 429 OFFCURVE",
"410 490 OFFCURVE",
"308 490 CURVE SMOOTH",
"238 490 OFFCURVE",
"170 462 OFFCURVE",
"112 407 CURVE",
"112 391 LINE",
"173 444 OFFCURVE",
"239 471 OFFCURVE",
"303 471 CURVE SMOOTH",
"396 471 OFFCURVE",
"458 414 OFFCURVE",
"458 328 CURVE SMOOTH",
"458 0 LINE"
);
}
);
width = 541;
}
);
note = h;
unicode = 0068;
},
{
glyphname = idotless;
lastChange = "2017-10-26 21:50:43 +0000";
layers = (
{
anchors = (
{
name = bottom;
position = "{126, 0}";
},
{
name = ogonek;
position = "{154, 10}";
},
{
name = top;
position = "{126, 482}";
}
);
layerId = "F333AEC5-BB61-4D5E-9EDD-6124322D28F2";
paths = (
{
closed = 1;
nodes = (
"166 0 LINE",
"166 482 LINE",
"86 482 LINE",
"86 0 LINE"
);
}
);
width = 252;
},
{
anchors = (
{
name = bottom;
position = "{149, 0}";
},
{
name = ogonek;
position = "{197, 10}";
},
{
name = top;
position = "{149, 490}";
}
);
layerId = "51C2DFEF-3776-4D13-9284-96485B799B57";
paths = (
{
closed = 1;
nodes = (
"235 0 LINE",
"235 490 LINE",
"62 490 LINE",
"62 0 LINE"
);
}
);
width = 297;
},
{
anchors = (
{
name = bottom;
position = "{116, 0}";
},
{
name = ogonek;
position = "{125, 10}";
},
{
name = top;
position = "{116, 480}";
}
);
layerId = "0B2E441B-685E-400D-9B9B-E078DEED62EF";
paths = (
{
closed = 1;
nodes = (
"127 0 LINE",
"127 480 LINE",
"106 480 LINE",
"106 0 LINE"
);
}
);
width = 233;
}
);
note = dotlessi;
unicode = 0131;
},
{
glyphname = jdotless;
lastChange = "2017-10-26 21:50:42 +0000";
layers = (
{
anchors = (
{
name = bottom;
position = "{127, 0}";
},
{
name = top;
position = "{127, 482}";
}
);
layerId = "F333AEC5-BB61-4D5E-9EDD-6124322D28F2";
paths = (
{
closed = 1;
nodes = (
"118 -185 OFFCURVE",
"167 -117 OFFCURVE",
"167 -23 CURVE SMOOTH",
"167 482 LINE",
"87 482 LINE",
"87 -35 LINE SMOOTH",
"87 -97 OFFCURVE",
"57 -145 OFFCURVE",
"-3 -179 CURVE",
"23 -227 LINE"
);
}
);
width = 253;
},
{
anchors = (
{
name = bottom;
position = "{138, 0}";
},
{
name = top;
position = "{149, 490}";
}
);
layerId = "51C2DFEF-3776-4D13-9284-96485B799B57";
paths = (
{
closed = 1;
nodes = (
"155 -186 OFFCURVE",
"235 -75 OFFCURVE",
"235 51 CURVE SMOOTH",
"235 490 LINE",
"62 490 LINE",
"62 51 LINE SMOOTH",
"62 -23 OFFCURVE",
"25 -92 OFFCURVE",
"-31 -121 CURVE",
"36 -227 LINE"
);
}
);
width = 297;
},
{
anchors = (
{
name = bottom;
position = "{117, 0}";
},
{
name = top;
position = "{117, 480}";
}
);
layerId = "0B2E441B-685E-400D-9B9B-E078DEED62EF";
paths = (
{
closed = 1;
nodes = (
"85 -194 OFFCURVE",
"128 -131 OFFCURVE",
"128 -67 CURVE SMOOTH",
"128 480 LINE",
"107 480 LINE",
"107 -67 LINE SMOOTH",
"107 -125 OFFCURVE",
"70 -181 OFFCURVE",
"14 -209 CURVE",
"21 -222 LINE"
);
}
);
width = 234;
}
);
note = uni0237;
unicode = 0237;
},
{
glyphname = l;
lastChange = "2017-10-26 21:50:43 +0000";
layers = (
{
anchors = (
{
name = "#periodcentered";
position = "{267, 353}";
},
{
name = bottom;
position = "{166, 0}";
},
{
name = center;
position = "{145, 381}";
},
{
name = top;
position = "{123, 739}";
},
{
name = topright;
position = "{253, 482}";
}
);
layerId = "F333AEC5-BB61-4D5E-9EDD-6124322D28F2";
paths = (
{
closed = 1;
nodes = (
"228 -6 OFFCURVE",
"256 2 OFFCURVE",
"276 17 CURVE",
"261 70 LINE",
"244 61 OFFCURVE",
"229 57 OFFCURVE",
"215 57 CURVE SMOOTH",
"183 57 OFFCURVE",
"162 82 OFFCURVE",
"162 118 CURVE SMOOTH",
"162 739 LINE",
"82 739 LINE",
"82 108 LINE SMOOTH",
"82 40 OFFCURVE",
"128 -6 OFFCURVE",
"197 -6 CURVE SMOOTH"
);
}
);
width = 302;
},
{
anchors = (
{
name = "#periodcentered";
position = "{323, 363}";
},
{
name = bottom;
position = "{189, 0}";
},
{
name = center;
position = "{141, 377}";
},
{
name = top;
position = "{133, 739}";
},
{
name = topright;
position = "{318, 490}";
}
);
layerId = "51C2DFEF-3776-4D13-9284-96485B799B57";
paths = (
{
closed = 1;
nodes = (
"292 -8 OFFCURVE",
"327 1 OFFCURVE",
"368 21 CURVE",
"339 139 LINE",
"321 134 OFFCURVE",
"306 130 OFFCURVE",
"291 130 CURVE SMOOTH",
"252 130 OFFCURVE",
"221 159 OFFCURVE",
"221 201 CURVE SMOOTH",
"221 739 LINE",
"51 739 LINE",
"51 182 LINE SMOOTH",
"51 61 OFFCURVE",
"133 -8 OFFCURVE",
"250 -8 CURVE SMOOTH"
);
}
);
width = 376;
},
{
anchors = (
{
name = "#periodcentered";
position = "{210, 353}";
},
{
name = bottom;
position = "{158, 0}";
},
{
name = center;
position = "{139, 393}";
},
{
name = top;
position = "{115, 739}";
},
{
name = topright;
position = "{198, 480}";
}
);
layerId = "0B2E441B-685E-400D-9B9B-E078DEED62EF";
paths = (
{
closed = 1;
nodes = (
"203 -2 OFFCURVE",
"225 4 OFFCURVE",
"241 15 CURVE",
"234 27 LINE",
"222 18 OFFCURVE",
"204 14 OFFCURVE",
"187 14 CURVE SMOOTH",
"148 14 OFFCURVE",
"124 41 OFFCURVE",
"124 77 CURVE SMOOTH",
"124 739 LINE",
"104 739 LINE",
"104 73 LINE SMOOTH",
"104 28 OFFCURVE",
"135 -2 OFFCURVE",
"183 -2 CURVE SMOOTH"
);
}
);
width = 283;
}
);
note = l;
unicode = 006C;
},
{
glyphname = n;
lastChange = "2017-10-26 21:50:42 +0000";
layers = (
{
anchors = (
{
name = bottom;
position = "{289, 0}";
},
{
name = top;
position = "{289, 482}";
}
);
components = (
{
name = _stem.n;
transform = "{1, 0, 0, 1, -2, 0}";
},
{
name = _part.shoulder.n;
transform = "{1, 0, 0, 1, 88, 0}";
}
);
layerId = "F333AEC5-BB61-4D5E-9EDD-6124322D28F2";
width = 572;
},
{
anchors = (
{
name = bottom;
position = "{304, 0}";
},
{
name = top;
position = "{304, 490}";
}
);
components = (
{
name = _stem.n;
transform = "{1, 0, 0, 1, -18, 0}";
},
{
name = _part.shoulder.n;
transform = "{1, 0, 0, 1, 137, 0}";
}
);
layerId = "51C2DFEF-3776-4D13-9284-96485B799B57";
width = 607;
},
{
anchors = (
{
name = bottom;
position = "{283, 0}";
},
{
name = top;
position = "{279, 480}";
}
);
components = (
{
name = _stem.n;
transform = "{1, 0, 0, 1, 6, 0}";
},
{
name = _part.shoulder.n;
transform = "{1, 0, 0, 1, 9, 0}";
}
);
layerId = "0B2E441B-685E-400D-9B9B-E078DEED62EF";
width = 566;
},
{
associatedMasterId = "0B2E441B-685E-400D-9B9B-E078DEED62EF";
layerId = "C61958B6-84F7-4994-9D37-EADF52FA5068";
name = "Sep 11 17, 18:57";
paths = (
{
closed = 1;
nodes = (
"482 0 LINE",
"482 338 LINE SMOOTH",
"482 429 OFFCURVE",
"414 490 OFFCURVE",
"312 490 CURVE SMOOTH",
"242 490 OFFCURVE",
"174 462 OFFCURVE",
"116 407 CURVE",
"116 391 LINE",
"177 444 OFFCURVE",
"243 471 OFFCURVE",
"307 471 CURVE SMOOTH",
"400 471 OFFCURVE",
"462 414 OFFCURVE",
"462 328 CURVE SMOOTH",
"462 0 LINE"
);
},
{
closed = 1;
nodes = (
"120 0 LINE",
"120 404 LINE",
"116 480 LINE",
"100 480 LINE",
"100 0 LINE"
);
}
);
width = 574;
}
);
note = n;
unicode = 006E;
},
{
glyphname = o;
lastChange = "2017-10-26 21:50:42 +0000";
layers = (
{
anchors = (
{
name = "#exit";
position = "{476, 236}";
},
{
name = bottom;
position = "{286, 0}";
},
{
name = center;
position = "{286, 241}";
},
{
name = ogonek;
position = "{376, 10}";
},
{
name = top;
position = "{286, 482}";
},
{
name = topright;
position = "{460, 482}";
}
);
background = {
components = (
{
name = _stem.d;
transform = "{1, 0, 0, 1, 300, 0}";
},
{
name = _bowl.d;
transform = "{1, 0, 0, 1, -18, 0}";
}
);
};
layerId = "F333AEC5-BB61-4D5E-9EDD-6124322D28F2";
paths = (
{
closed = 1;
nodes = (
"421 -10 OFFCURVE",
"517 93 OFFCURVE",
"517 247 CURVE SMOOTH",
"517 396 OFFCURVE",
"428 492 OFFCURVE",
"291 492 CURVE SMOOTH",
"149 492 OFFCURVE",
"54 390 OFFCURVE",
"54 236 CURVE SMOOTH",
"54 87 OFFCURVE",
"142 -10 OFFCURVE",
"279 -10 CURVE SMOOTH"
);
},
{
closed = 1;
nodes = (
"197 60 OFFCURVE",
"134 135 OFFCURVE",
"134 246 CURVE SMOOTH",
"134 353 OFFCURVE",
"191 422 OFFCURVE",
"280 422 CURVE SMOOTH",
"373 422 OFFCURVE",
"437 346 OFFCURVE",
"437 236 CURVE SMOOTH",
"437 130 OFFCURVE",
"379 60 OFFCURVE",
"290 60 CURVE SMOOTH"
);
}
);
width = 571;
},
{
anchors = (
{
name = "#exit";
position = "{472, 236}";
},
{
name = bottom;
position = "{292, 0}";
},
{
name = center;
position = "{292, 245}";
},
{
name = ogonek;
position = "{359, 10}";
},
{
name = top;
position = "{292, 490}";
},
{
name = topright;
position = "{475, 490}";
}
);
layerId = "51C2DFEF-3776-4D13-9284-96485B799B57";
paths = (
{
closed = 1;
nodes = (
"442 -10 OFFCURVE",
"556 104 OFFCURVE",
"556 255 CURVE SMOOTH",
"556 398 OFFCURVE",
"453 500 OFFCURVE",
"303 500 CURVE SMOOTH",
"144 500 OFFCURVE",
"27 384 OFFCURVE",
"27 232 CURVE SMOOTH",
"27 88 OFFCURVE",
"132 -10 OFFCURVE",
"281 -10 CURVE SMOOTH"
);
},
{
closed = 1;
nodes = (
"245 134 OFFCURVE",
"203 176 OFFCURVE",
"203 246 CURVE SMOOTH",
"203 307 OFFCURVE",
"235 356 OFFCURVE",
"288 356 CURVE SMOOTH",
"340 356 OFFCURVE",
"380 310 OFFCURVE",
"380 240 CURVE SMOOTH",
"380 178 OFFCURVE",
"349 134 OFFCURVE",
"296 134 CURVE SMOOTH"
);
}
);
width = 583;
},
{
anchors = (
{
name = "#exit";
position = "{482, 236}";
},
{
name = bottom;
position = "{285, 0}";
},
{
name = center;
position = "{285, 240}";
},
{
name = ogonek;
position = "{359, 10}";
},
{
name = top;
position = "{277, 480}";
},
{
name = topright;
position = "{447, 480}";
}
);
layerId = "0B2E441B-685E-400D-9B9B-E078DEED62EF";
paths = (
{
closed = 1;
nodes = (
"409 -10 OFFCURVE",
"493 90 OFFCURVE",
"493 240 CURVE SMOOTH",
"493 389 OFFCURVE",
"410 486 OFFCURVE",
"286 486 CURVE SMOOTH",
"160 486 OFFCURVE",
"76 386 OFFCURVE",
"76 237 CURVE SMOOTH",
"76 89 OFFCURVE",
"159 -10 OFFCURVE",
"284 -10 CURVE SMOOTH"
);
},
{
closed = 1;
nodes = (
"171 8 OFFCURVE",
"97 101 OFFCURVE",
"97 239 CURVE SMOOTH",
"97 374 OFFCURVE",
"168 468 OFFCURVE",
"283 468 CURVE SMOOTH",
"397 468 OFFCURVE",
"472 378 OFFCURVE",
"472 237 CURVE SMOOTH",
"472 97 OFFCURVE",
"398 8 OFFCURVE",
"286 8 CURVE SMOOTH"
);
}
);
width = 569;
}
);
note = o;
unicode = 006F;
},
{
glyphname = oe;
lastChange = "2017-10-26 18:11:51 +0000";
layers = (
{
anchors = (
{
name = bottom;
position = "{457, 0}";
},
{
name = top;
position = "{457, 482}";
}
);
layerId = "F333AEC5-BB61-4D5E-9EDD-6124322D28F2";
paths = (
{
closed = 1;
nodes = (
"420 -10 OFFCURVE",
"506 93 OFFCURVE",
"506 247 CURVE SMOOTH",
"506 396 OFFCURVE",
"427 492 OFFCURVE",
"290 492 CURVE SMOOTH",
"148 492 OFFCURVE",
"53 390 OFFCURVE",
"53 236 CURVE SMOOTH",
"53 87 OFFCURVE",
"141 -10 OFFCURVE",
"278 -10 CURVE SMOOTH"
);
},
{
closed = 1;
nodes = (
"196 60 OFFCURVE",
"133 135 OFFCURVE",
"133 246 CURVE SMOOTH",
"133 353 OFFCURVE",
"190 422 OFFCURVE",
"279 422 CURVE SMOOTH",
"372 422 OFFCURVE",
"436 346 OFFCURVE",
"436 236 CURVE SMOOTH",
"436 130 OFFCURVE",
"378 60 OFFCURVE",
"289 60 CURVE SMOOTH"
);
},
{
closed = 1;
nodes = (
"737 -10 OFFCURVE",
"784 1 OFFCURVE",
"842 27 CURVE",
"825 83 LINE",
"780 64 OFFCURVE",
"738 55 OFFCURVE",
"699 55 CURVE SMOOTH",
"585 55 OFFCURVE",
"518 130 OFFCURVE",
"518 255 CURVE SMOOTH",
"518 364 OFFCURVE",
"567 424 OFFCURVE",
"655 424 CURVE SMOOTH",
"737 424 OFFCURVE",
"785 371 OFFCURVE",
"785 279 CURVE",
"504 279 LINE",
"504 219 LINE",
"856 219 LINE",
"858 234 OFFCURVE",
"860 269 OFFCURVE",
"860 288 CURVE SMOOTH",
"860 409 OFFCURVE",
"780 492 OFFCURVE",
"661 492 CURVE SMOOTH",
"527 492 OFFCURVE",
"436 388 OFFCURVE",
"436 236 CURVE SMOOTH",
"436 82 OFFCURVE",
"529 -10 OFFCURVE",
"684 -10 CURVE SMOOTH"
);
}
);
width = 913;
},
{
anchors = (
{
name = bottom;
position = "{464, 0}";
},
{
name = top;
position = "{464, 490}";
}
);
layerId = "51C2DFEF-3776-4D13-9284-96485B799B57";
paths = (
{
closed = 1;
nodes = (
"446 -10 OFFCURVE",
"520 104 OFFCURVE",
"520 256 CURVE SMOOTH",
"520 397 OFFCURVE",
"457 500 OFFCURVE",
"307 500 CURVE SMOOTH",
"148 500 OFFCURVE",
"31 384 OFFCURVE",
"31 232 CURVE SMOOTH",
"31 88 OFFCURVE",
"136 -10 OFFCURVE",
"285 -10 CURVE SMOOTH"
);
},
{
closed = 1;
nodes = (
"249 134 OFFCURVE",
"207 176 OFFCURVE",
"207 246 CURVE SMOOTH",
"207 307 OFFCURVE",
"239 356 OFFCURVE",
"292 356 CURVE SMOOTH",
"344 356 OFFCURVE",
"384 310 OFFCURVE",
"384 240 CURVE SMOOTH",
"384 178 OFFCURVE",
"353 134 OFFCURVE",
"300 134 CURVE SMOOTH"
);
},
{
closed = 1;
nodes = (
"719 -10 OFFCURVE",
"786 4 OFFCURVE",
"848 30 CURVE",
"814 149 LINE",
"767 136 OFFCURVE",
"721 129 OFFCURVE",
"679 129 CURVE SMOOTH",
"580 129 OFFCURVE",
"539 166 OFFCURVE",
"539 260 CURVE SMOOTH",
"539 334 OFFCURVE",
"564 370 OFFCURVE",
"615 370 CURVE SMOOTH",
"659 370 OFFCURVE",
"684 344 OFFCURVE",
"684 298 CURVE",
"515 298 LINE",
"515 195 LINE",
"847 195 LINE",
"851 219 OFFCURVE",
"854 247 OFFCURVE",
"854 274 CURVE SMOOTH",
"854 416 OFFCURVE",
"772 500 OFFCURVE",
"628 500 CURVE SMOOTH",
"469 500 OFFCURVE",
"405 397 OFFCURVE",
"405 243 CURVE SMOOTH",
"405 86 OFFCURVE",
"472 -10 OFFCURVE",
"651 -10 CURVE SMOOTH"
);
}
);
width = 897;
},
{
anchors = (
{
name = bottom;
position = "{455, 0}";
},
{
name = top;
position = "{455, 480}";
}
);
layerId = "0B2E441B-685E-400D-9B9B-E078DEED62EF";
paths = (
{
closed = 1;
nodes = (
"397 -10 OFFCURVE",
"479 90 OFFCURVE",
"479 240 CURVE SMOOTH",
"479 389 OFFCURVE",
"398 486 OFFCURVE",
"274 486 CURVE SMOOTH",
"148 486 OFFCURVE",
"64 386 OFFCURVE",
"64 237 CURVE SMOOTH",
"64 89 OFFCURVE",
"147 -10 OFFCURVE",
"272 -10 CURVE SMOOTH"
);
},
{
closed = 1;
nodes = (
"159 8 OFFCURVE",
"85 101 OFFCURVE",
"85 239 CURVE SMOOTH",
"85 374 OFFCURVE",
"156 468 OFFCURVE",
"272 468 CURVE SMOOTH",
"385 468 OFFCURVE",
"460 378 OFFCURVE",
"460 237 CURVE SMOOTH",
"460 97 OFFCURVE",
"386 8 OFFCURVE",
"274 8 CURVE SMOOTH"
);
},
{
closed = 1;
nodes = (
"740 -19 OFFCURVE",
"789 -4 OFFCURVE",
"836 29 CURVE",
"828 41 LINE",
"780 10 OFFCURVE",
"736 -3 OFFCURVE",
"689 -3 CURVE SMOOTH",
"565 -3 OFFCURVE",
"479 87 OFFCURVE",
"479 234 CURVE SMOOTH",
"479 367 OFFCURVE",
"549 459 OFFCURVE",
"661 459 CURVE SMOOTH",
"767 459 OFFCURVE",
"830 375 OFFCURVE",
"830 247 CURVE",
"469 247 LINE",
"469 230 LINE",
"850 230 LINE",
"851 237 OFFCURVE",
"851 242 OFFCURVE",
"851 250 CURVE SMOOTH",
"851 383 OFFCURVE",
"778 477 OFFCURVE",
"662 477 CURVE SMOOTH",
"543 477 OFFCURVE",
"460 377 OFFCURVE",
"460 230 CURVE SMOOTH",
"460 78 OFFCURVE",
"548 -19 OFFCURVE",
"686 -19 CURVE SMOOTH"
);
}
);
width = 908;
}
);
leftMetricsKey = o;
rightMetricsKey = e;
unicode = 0153;
},
{
glyphname = r;
lastChange = "2017-10-26 21:50:43 +0000";
layers = (
{
anchors = (
{
name = bottom;
position = "{125, 0}";
},
{
name = top;
position = "{230, 482}";
}
);
layerId = "F333AEC5-BB61-4D5E-9EDD-6124322D28F2";
paths = (
{
closed = 1;
nodes = (
"166 0 LINE",
"166 370 LINE",
"152 482 LINE",
"86 482 LINE",
"86 0 LINE"
);
},
{
closed = 1;
nodes = (
"177 356 OFFCURVE",
"242 409 OFFCURVE",
"301 409 CURVE SMOOTH",
"318 409 OFFCURVE",
"343 404 OFFCURVE",
"353 400 CURVE",
"370 477 LINE",
"357 483 OFFCURVE",
"328 487 OFFCURVE",
"309 487 CURVE SMOOTH",
"245 487 OFFCURVE",
"182 443 OFFCURVE",
"148 374 CURVE",
"148 283 LINE"
);
}
);
width = 397;
},
{
anchors = (
{
name = bottom;
position = "{127, 0}";
},
{
name = top;
position = "{212, 482}";
}
);
associatedMasterId = "F333AEC5-BB61-4D5E-9EDD-6124322D28F2";
layerId = "198C3889-C046-4B23-B5BC-3ACCF485BAE2";
name = "Aug 11 17, 19:31";
paths = (
{
closed = 1;
nodes = (
"168 0 LINE",
"168 370 LINE",
"154 482 LINE",
"88 482 LINE",
"88 0 LINE"
);
},
{
closed = 1;
nodes = (
"182 381 OFFCURVE",
"238 419 OFFCURVE",
"293 419 CURVE SMOOTH",
"315 419 OFFCURVE",
"345 413 OFFCURVE",
"365 405 CURVE",
"382 480 LINE",
"362 487 OFFCURVE",
"329 492 OFFCURVE",
"304 492 CURVE SMOOTH",
"242 492 OFFCURVE",
"185 461 OFFCURVE",
"150 399 CURVE",
"150 313 LINE"
);
}
);
width = 394;
},
{
anchors = (
{
name = bottom;
position = "{149, 0}";
},
{
name = top;
position = "{226, 490}";
}
);
layerId = "51C2DFEF-3776-4D13-9284-96485B799B57";
paths = (
{
closed = 1;
nodes = (
"235 0 LINE",
"235 349 LINE",
"207 490 LINE",
"62 490 LINE",
"62 0 LINE"
);
},
{
closed = 1;
nodes = (
"233 298 OFFCURVE",
"290 342 OFFCURVE",
"348 342 CURVE SMOOTH",
"371 342 OFFCURVE",
"402 335 OFFCURVE",
"424 325 CURVE",
"451 474 LINE",
"426 487 OFFCURVE",
"397 494 OFFCURVE",
"368 494 CURVE SMOOTH",
"300 494 OFFCURVE",
"239 457 OFFCURVE",
"204 392 CURVE",
"204 232 LINE"
);
}
);
width = 463;
},
{
anchors = (
{
name = bottom;
position = "{115, 0}";
},
{
name = top;
position = "{200, 480}";
}
);
layerId = "0B2E441B-685E-400D-9B9B-E078DEED62EF";
paths = (
{
closed = 1;
nodes = (
"127 0 LINE",
"127 378 LINE",
"123 480 LINE",
"106 480 LINE",
"106 0 LINE"
);
},
{
closed = 1;
nodes = (
"154 422 OFFCURVE",
"204 462 OFFCURVE",
"259 462 CURVE SMOOTH",
"273 462 OFFCURVE",
"289 459 OFFCURVE",
"305 452 CURVE",
"311 470 LINE",
"298 476 OFFCURVE",
"279 480 OFFCURVE",
"261 480 CURVE SMOOTH",
"203 480 OFFCURVE",
"152 443 OFFCURVE",
"119 374 CURVE",
"119 351 LINE"
);
}
);
width = 353;
}
);
note = r;
unicode = 0072;
},
{
glyphname = s;
lastChange = "2017-10-26 21:50:41 +0000";
layers = (
{
anchors = (
{
name = bottom;
position = "{239, 0}";
},
{
name = top;
position = "{234, 482}";
}
);
layerId = "F333AEC5-BB61-4D5E-9EDD-6124322D28F2";
paths = (
{
closed = 1;
nodes = (
"348 -10 OFFCURVE",
"424 48 OFFCURVE",
"424 137 CURVE SMOOTH",
"424 311 OFFCURVE",
"136 253 OFFCURVE",
"136 357 CURVE SMOOTH",
"136 400 OFFCURVE",
"187 424 OFFCURVE",
"253 424 CURVE SMOOTH",
"294 424 OFFCURVE",
"342 415 OFFCURVE",
"383 401 CURVE",
"402 466 LINE",
"361 483 OFFCURVE",
"311 492 OFFCURVE",
"264 492 CURVE SMOOTH",
"144 492 OFFCURVE",
"56 433 OFFCURVE",
"56 345 CURVE SMOOTH",
"56 185 OFFCURVE",
"344 244 OFFCURVE",
"344 127 CURVE SMOOTH",
"344 84 OFFCURVE",
"305 58 OFFCURVE",
"238 58 CURVE SMOOTH",
"188 58 OFFCURVE",
"126 72 OFFCURVE",
"68 95 CURVE",
"49 28 LINE",
"105 4 OFFCURVE",
"173 -10 OFFCURVE",
"231 -10 CURVE SMOOTH"
);
}
);
width = 470;
},
{
associatedMasterId = "F333AEC5-BB61-4D5E-9EDD-6124322D28F2";
layerId = "8AF66680-1C48-45CA-BDE5-584DAE6DFAE0";
name = "Aug 3 17, 22:25";
paths = (
{
closed = 1;
nodes = (
"126 492 OFFCURVE",
"47 434 OFFCURVE",
"47 342 CURVE SMOOTH",
"47 168 OFFCURVE",
"327 237 OFFCURVE",
"327 123 CURVE SMOOTH",
"327 82 OFFCURVE",
"291 60 OFFCURVE",
"230 60 CURVE SMOOTH",
"185 60 OFFCURVE",
"132 72 OFFCURVE",
"91 89 CURVE",
"74 14 LINE",
"115 0 OFFCURVE",
"166 -10 OFFCURVE",
"216 -10 CURVE SMOOTH",
"334 -10 OFFCURVE",
"410 46 OFFCURVE",
"410 137 CURVE SMOOTH",
"410 309 OFFCURVE",
"135 233 OFFCURVE",
"135 355 CURVE SMOOTH",
"135 401 OFFCURVE",
"175 422 OFFCURVE",
"236 422 CURVE SMOOTH",
"284 422 OFFCURVE",
"350 409 OFFCURVE",
"405 384 CURVE",
"422 459 LINE",
"369 479 OFFCURVE",
"305 492 OFFCURVE",
"247 492 CURVE SMOOTH"
);
}
);
width = 466;
},
{
anchors = (
{
name = bottom;
position = "{249, 0}";
},
{
name = top;
position = "{249, 490}";
}
);
layerId = "51C2DFEF-3776-4D13-9284-96485B799B57";
paths = (
{
closed = 1;
nodes = (
"387 -10 OFFCURVE",
"469 47 OFFCURVE",
"469 157 CURVE SMOOTH",
"469 348 OFFCURVE",
"207 292 OFFCURVE",
"207 343 CURVE SMOOTH",
"207 358 OFFCURVE",
"232 367 OFFCURVE",
"271 367 CURVE SMOOTH",
"305 367 OFFCURVE",
"354 360 OFFCURVE",
"413 346 CURVE",
"444 474 LINE",
"398 491 OFFCURVE",
"339 500 OFFCURVE",
"281 500 CURVE SMOOTH",
"129 500 OFFCURVE",
"38 436 OFFCURVE",
"38 327 CURVE SMOOTH",
"38 142 OFFCURVE",
"300 204 OFFCURVE",
"300 147 CURVE SMOOTH",
"300 132 OFFCURVE",
"282 123 OFFCURVE",
"232 123 CURVE SMOOTH",
"177 123 OFFCURVE",
"121 134 OFFCURVE",
"65 152 CURVE",
"33 25 LINE",
"92 3 OFFCURVE",
"158 -10 OFFCURVE",
"231 -10 CURVE SMOOTH"
);
}
);
width = 496;
},
{
anchors = (
{
name = bottom;
position = "{229, 0}";
},
{
name = top;
position = "{239, 480}";
}
);
layerId = "0B2E441B-685E-400D-9B9B-E078DEED62EF";
paths = (
{
closed = 1;
nodes = (
"345 -10 OFFCURVE",
"412 35 OFFCURVE",
"412 116 CURVE SMOOTH",
"412 294 OFFCURVE",
"95 213 OFFCURVE",
"95 356 CURVE SMOOTH",
"95 421 OFFCURVE",
"160 468 OFFCURVE",
"249 468 CURVE SMOOTH",
"296 468 OFFCURVE",
"346 455 OFFCURVE",
"389 433 CURVE",
"396 449 LINE",
"358 472 OFFCURVE",
"302 486 OFFCURVE",
"251 486 CURVE SMOOTH",
"151 486 OFFCURVE",
"74 433 OFFCURVE",
"74 354 CURVE SMOOTH",
"74 193 OFFCURVE",
"391 276 OFFCURVE",
"391 113 CURVE SMOOTH",
"391 45 OFFCURVE",
"335 8 OFFCURVE",
"247 8 CURVE SMOOTH",
"188 8 OFFCURVE",
"124 25 OFFCURVE",
"69 51 CURVE",
"63 34 LINE",
"117 7 OFFCURVE",
"183 -10 OFFCURVE",
"245 -10 CURVE SMOOTH"
);
}
);
width = 477;
}
);
note = s;
unicode = 0073;
},
{
glyphname = germandbls;
lastChange = "2017-10-15 16:30:43 +0000";
layers = (
{
layerId = "F333AEC5-BB61-4D5E-9EDD-6124322D28F2";
paths = (
{
closed = 1;
nodes = (
"483 -10 OFFCURVE",
"563 58 OFFCURVE",
"563 154 CURVE SMOOTH",
"563 302 OFFCURVE",
"373 304 OFFCURVE",
"373 387 CURVE SMOOTH",
"373 451 OFFCURVE",
"487 469 OFFCURVE",
"487 582 CURVE SMOOTH",
"487 679 OFFCURVE",
"404 749 OFFCURVE",
"290 749 CURVE SMOOTH",
"167 749 OFFCURVE",
"88 666 OFFCURVE",
"88 539 CURVE SMOOTH",
"88 0 LINE",
"168 0 LINE",
"168 548 LINE SMOOTH",
"168 633 OFFCURVE",
"208 679 OFFCURVE",
"280 679 CURVE SMOOTH",
"353 679 OFFCURVE",
"407 633 OFFCURVE",
"407 572 CURVE SMOOTH",
"407 483 OFFCURVE",
"294 468 OFFCURVE",
"294 374 CURVE SMOOTH",
"294 253 OFFCURVE",
"483 250 OFFCURVE",
"483 141 CURVE SMOOTH",
"483 94 OFFCURVE",
"439 60 OFFCURVE",
"377 60 CURVE SMOOTH",
"341 60 OFFCURVE",
"295 72 OFFCURVE",
"251 93 CURVE",
"232 26 LINE",
"273 3 OFFCURVE",
"323 -10 OFFCURVE",
"371 -10 CURVE SMOOTH"
);
}
);
width = 606;
},
{
layerId = "51C2DFEF-3776-4D13-9284-96485B799B57";
paths = (
{
closed = 1;
nodes = (
"585 -10 OFFCURVE",
"677 63 OFFCURVE",
"677 175 CURVE SMOOTH",
"677 327 OFFCURVE",
"506 337 OFFCURVE",
"506 396 CURVE SMOOTH",
"506 433 OFFCURVE",
"578 458 OFFCURVE",
"578 556 CURVE SMOOTH",
"578 671 OFFCURVE",
"478 749 OFFCURVE",
"330 749 CURVE SMOOTH",
"173 749 OFFCURVE",
"68 662 OFFCURVE",
"68 531 CURVE SMOOTH",
"68 0 LINE",
"241 0 LINE",
"241 530 LINE SMOOTH",
"241 575 OFFCURVE",
"271 605 OFFCURVE",
"322 605 CURVE SMOOTH",
"362 605 OFFCURVE",
"403 587 OFFCURVE",
"403 542 CURVE SMOOTH",
"403 483 OFFCURVE",
"330 460 OFFCURVE",
"330 381 CURVE SMOOTH",
"330 260 OFFCURVE",
"501 230 OFFCURVE",
"501 171 CURVE SMOOTH",
"501 146 OFFCURVE",
"470 134 OFFCURVE",
"428 134 CURVE SMOOTH",
"390 134 OFFCURVE",
"347 144 OFFCURVE",
"315 156 CURVE",
"288 18 LINE",
"326 0 OFFCURVE",
"375 -10 OFFCURVE",
"432 -10 CURVE SMOOTH"
);
}
);
width = 697;
},
{
layerId = "0B2E441B-685E-400D-9B9B-E078DEED62EF";
paths = (
{
closed = 1;
nodes = (
"468 -10 OFFCURVE",
"534 43 OFFCURVE",
"534 134 CURVE SMOOTH",
"534 289 OFFCURVE",
"344 292 OFFCURVE",
"344 384 CURVE SMOOTH",
"344 455 OFFCURVE",
"458 466 OFFCURVE",
"458 591 CURVE SMOOTH",
"458 686 OFFCURVE",
"391 749 OFFCURVE",
"296 749 CURVE SMOOTH",
"186 749 OFFCURVE",
"118 665 OFFCURVE",
"118 539 CURVE SMOOTH",
"118 0 LINE",
"139 0 LINE",
"139 548 LINE SMOOTH",
"139 658 OFFCURVE",
"197 731 OFFCURVE",
"293 731 CURVE SMOOTH",
"377 731 OFFCURVE",
"438 674 OFFCURVE",
"438 588 CURVE SMOOTH",
"438 470 OFFCURVE",
"323 464 OFFCURVE",
"323 381 CURVE SMOOTH",
"323 275 OFFCURVE",
"513 279 OFFCURVE",
"513 132 CURVE SMOOTH",
"513 53 OFFCURVE",
"459 8 OFFCURVE",
"378 8 CURVE SMOOTH",
"334 8 OFFCURVE",
"284 21 OFFCURVE",
"238 43 CURVE",
"232 26 LINE",
"275 4 OFFCURVE",
"329 -10 OFFCURVE",
"376 -10 CURVE SMOOTH"
);
}
);
width = 600;
}
);
unicode = 00DF;
},
{
glyphname = t;
lastChange = "2017-10-26 21:50:43 +0000";
layers = (
{
anchors = (
{
name = bottom;
position = "{207, 5}";
},
{
name = center;
position = "{178, 246}";
},
{
name = top;
position = "{135, 621}";
},
{
name = topright;
position = "{292, 482}";
}
);
layerId = "F333AEC5-BB61-4D5E-9EDD-6124322D28F2";
paths = (
{
closed = 1;
nodes = (
"271 -5 OFFCURVE",
"301 3 OFFCURVE",
"326 17 CURVE",
"312 73 LINE",
"295 65 OFFCURVE",
"272 60 OFFCURVE",
"253 60 CURVE SMOOTH",
"208 60 OFFCURVE",
"178 92 OFFCURVE",
"178 140 CURVE SMOOTH",
"178 621 LINE",
"98 621 LINE",
"98 129 LINE SMOOTH",
"98 49 OFFCURVE",
"157 -5 OFFCURVE",
"239 -5 CURVE SMOOTH"
);
},
{
closed = 1;
nodes = (
"325 415 LINE",
"325 482 LINE",
"33 482 LINE",
"33 415 LINE"
);
}
);
width = 368;
},
{
associatedMasterId = "F333AEC5-BB61-4D5E-9EDD-6124322D28F2";
layerId = "8DD4D7B4-764D-4C4A-81DC-EA5BCD364777";
name = "Aug 3 17, 20:24";
paths = (
{
closed = 1;
nodes = (
"269 -10 OFFCURVE",
"312 -2 OFFCURVE",
"342 12 CURVE",
"331 69 LINE",
"312 60 OFFCURVE",
"284 55 OFFCURVE",
"261 55 CURVE SMOOTH",
"211 55 OFFCURVE",
"177 79 OFFCURVE",
"177 145 CURVE SMOOTH",
"177 621 LINE",
"97 621 LINE",
"97 134 LINE SMOOTH",
"97 36 OFFCURVE",
"153 -10 OFFCURVE",
"235 -10 CURVE SMOOTH"
);
},
{
closed = 1;
nodes = (
"324 415 LINE",
"324 482 LINE",
"32 482 LINE",
"32 415 LINE"
);
}
);
width = 371;
},
{
anchors = (
{
name = bottom;
position = "{222, 0}";
},
{
name = center;
position = "{206, 247}";
},
{
name = top;
position = "{179, 617}";
},
{
name = topright;
position = "{337, 490}";
}
);
layerId = "51C2DFEF-3776-4D13-9284-96485B799B57";
paths = (
{
closed = 1;
nodes = (
"348 -8 OFFCURVE",
"388 3 OFFCURVE",
"422 20 CURVE",
"391 138 LINE",
"373 134 OFFCURVE",
"353 130 OFFCURVE",
"336 130 CURVE SMOOTH",
"292 130 OFFCURVE",
"262 158 OFFCURVE",
"262 201 CURVE SMOOTH",
"262 617 LINE",
"92 617 LINE",
"92 176 LINE SMOOTH",
"92 60 OFFCURVE",
"178 -8 OFFCURVE",
"299 -8 CURVE SMOOTH"
);
},
{
closed = 1;
nodes = (
"398 355 LINE",
"398 490 LINE",
"14 490 LINE",
"14 355 LINE"
);
}
);
width = 445;
},
{
anchors = (
{
name = bottom;
position = "{208, 0}";
},
{
name = center;
position = "{174, 250}";
},
{
name = top;
position = "{145, 617}";
},
{
name = topright;
position = "{235, 480}";
}
);
layerId = "0B2E441B-685E-400D-9B9B-E078DEED62EF";
paths = (
{
closed = 1;
nodes = (
"261 -3 OFFCURVE",
"284 4 OFFCURVE",
"304 19 CURVE",
"297 32 LINE",
"280 19 OFFCURVE",
"261 14 OFFCURVE",
"240 14 CURVE SMOOTH",
"189 14 OFFCURVE",
"155 47 OFFCURVE",
"155 108 CURVE SMOOTH",
"155 617 LINE",
"134 617 LINE",
"134 103 LINE SMOOTH",
"134 32 OFFCURVE",
"175 -3 OFFCURVE",
"234 -3 CURVE SMOOTH"
);
},
{
closed = 1;
nodes = (
"303 463 LINE",
"303 480 LINE",
"42 480 LINE",
"42 463 LINE"
);
}
);
width = 354;
}
);
note = t;
unicode = 0074;
},
{
glyphname = v;
lastChange = "2017-10-26 21:50:42 +0000";
layers = (
{
anchors = (
{
name = "#ytail";
position = "{252, 0}";
},
{
name = bottom;
position = "{255, 0}";
},
{
name = top;
position = "{255, 482}";
}
);
layerId = "F333AEC5-BB61-4D5E-9EDD-6124322D28F2";
paths = (
{
closed = 1;
nodes = (
"295 0 LINE",
"483 482 LINE",
"403 482 LINE",
"236 16 LINE",
"280 16 LINE",
"116 482 LINE",
"27 482 LINE",
"217 0 LINE"
);
}
);
width = 510;
},
{
anchors = (
{
name = "#ytail";
position = "{281, 0}";
},
{
name = bottom;
position = "{291, 0}";
},
{
name = top;
position = "{291, 490}";
}
);
layerId = "51C2DFEF-3776-4D13-9284-96485B799B57";
paths = (
{
closed = 1;
nodes = (
"385 0 LINE",
"579 490 LINE",
"400 490 LINE",
"282 124 LINE",
"307 124 LINE",
"189 490 LINE",
"3 490 LINE",
"197 0 LINE"
);
}
);
width = 582;
},
{
anchors = (
{
name = "#ytail";
position = "{253, 0}";
},
{
name = bottom;
position = "{252, 0}";
},
{
name = top;
position = "{252, 480}";
}
);
layerId = "0B2E441B-685E-400D-9B9B-E078DEED62EF";
paths = (
{
closed = 1;
nodes = (
"262 0 LINE",
"456 480 LINE",
"435 480 LINE",
"249 14 LINE",
"258 14 LINE",
"70 480 LINE",
"47 480 LINE",
"244 0 LINE"
);
}
);
width = 503;
}
);
note = v;
unicode = 0076;
},
{
glyphname = w;
lastChange = "2017-10-26 21:50:42 +0000";
layers = (
{
anchors = (
{
name = bottom;
position = "{410, 0}";
},
{
name = top;
position = "{410, 482}";
}
);
layerId = "F333AEC5-BB61-4D5E-9EDD-6124322D28F2";
paths = (
{
closed = 1;
nodes = (
"280 0 LINE",
"426 442 LINE",
"393 442 LINE",
"535 0 LINE",
"616 0 LINE",
"792 482 LINE",
"712 482 LINE",
"563 35 LINE",
"596 35 LINE",
"461 482 LINE",
"370 482 LINE",
"229 35 LINE",
"261 35 LINE",
"119 482 LINE",
"28 482 LINE",
"204 0 LINE"
);
}
);
width = 820;
},
{
anchors = (
{
name = bottom;
position = "{437, 0}";
},
{
name = top;
position = "{437, 490}";
}
);
layerId = "51C2DFEF-3776-4D13-9284-96485B799B57";
paths = (
{
closed = 1;
nodes = (
"362 0 LINE",
"463 337 LINE",
"405 337 LINE",
"515 0 LINE",
"704 0 LINE",
"870 490 LINE",
"705 490 LINE",
"585 86 LINE",
"641 86 LINE",
"511 490 LINE",
"368 490 LINE",
"247 76 LINE",
"302 76 LINE",
"182 490 LINE",
"4 490 LINE",
"181 0 LINE"
);
}
);
width = 875;
},
{
anchors = (
{
name = bottom;
position = "{400, 0}";
},
{
name = top;
position = "{400, 480}";
}
);
layerId = "0B2E441B-685E-400D-9B9B-E078DEED62EF";
paths = (
{
closed = 1;
nodes = (
"238 0 LINE",
"401 460 LINE",
"395 460 LINE",
"564 0 LINE",
"578 0 LINE",
"749 480 LINE",
"729 480 LINE",
"569 25 LINE",
"576 25 LINE",
"409 480 LINE",
"388 480 LINE",
"229 25 LINE",
"234 25 LINE",
"71 480 LINE",
"49 480 LINE",
"223 0 LINE"
);
}
);
width = 798;
}
);
note = w;
unicode = 0077;
},
{
glyphname = x;
lastChange = "2017-10-26 21:50:42 +0000";
layers = (
{
anchors = (
{
name = bottom;
position = "{249, 0}";
},
{
name = top;
position = "{249, 482}";
}
);
layerId = "F333AEC5-BB61-4D5E-9EDD-6124322D28F2";
paths = (
{
closed = 1;
nodes = (
"120 0 LINE",
"270 214 LINE",
"473 482 LINE",
"382 482 LINE",
"229 264 LINE",
"29 0 LINE"
);
},
{
closed = 1;
nodes = (
"464 0 LINE",
"266 272 LINE",
"120 482 LINE",
"28 482 LINE",
"223 211 LINE",
"372 0 LINE"
);
}
);
width = 500;
},
{
anchors = (
{
name = bottom;
position = "{283, 0}";
},
{
name = top;
position = "{282, 490}";
}
);
layerId = "51C2DFEF-3776-4D13-9284-96485B799B57";
paths = (
{
closed = 1;
nodes = (
"187 0 LINE",
"331 209 LINE",
"557 490 LINE",
"375 490 LINE",
"232 297 LINE",
"5 0 LINE"
);
},
{
closed = 1;
nodes = (
"560 0 LINE",
"352 268 LINE",
"202 490 LINE",
"3 490 LINE",
"199 228 LINE",
"362 0 LINE"
);
}
);
width = 562;
},
{
anchors = (
{
name = bottom;
position = "{232, 0}";
},
{
name = top;
position = "{230, 480}";
}
);
layerId = "0B2E441B-685E-400D-9B9B-E078DEED62EF";
paths = (
{
closed = 1;
nodes = (
"70 0 LINE",
"233 235 LINE",
"400 480 LINE",
"378 480 LINE",
"223 248 LINE",
"48 0 LINE"
);
},
{
closed = 1;
nodes = (
"407 0 LINE",
"235 244 LINE",
"79 480 LINE",
"55 480 LINE",
"223 229 LINE",
"383 0 LINE"
);
}
);
width = 455;
}
);
note = x;
unicode = 0078;
},
{
glyphname = z;
lastChange = "2017-10-26 21:50:43 +0000";
layers = (
{
anchors = (
{
name = bottom;
position = "{236, 0}";
},
{
name = top;
position = "{236, 482}";
}
);
layerId = "F333AEC5-BB61-4D5E-9EDD-6124322D28F2";
paths = (
{
closed = 1;
nodes = (
"433 0 LINE",
"433 67 LINE",
"121 67 LINE",
"133 49 LINE",
"421 433 LINE",
"421 482 LINE",
"43 482 LINE",
"43 415 LINE",
"342 415 LINE",
"330 433 LINE",
"43 49 LINE",
"43 0 LINE"
);
}
);
width = 473;
},
{
anchors = (
{
name = bottom;
position = "{256, 0}";
},
{
name = top;
position = "{256, 490}";
}
);
layerId = "51C2DFEF-3776-4D13-9284-96485B799B57";
paths = (
{
closed = 1;
nodes = (
"480 0 LINE",
"480 135 LINE",
"178 135 LINE",
"206 80 LINE",
"467 386 LINE",
"467 490 LINE",
"36 490 LINE",
"36 355 LINE",
"325 355 LINE",
"297 411 LINE",
"36 103 LINE",
"36 0 LINE"
);
}
);
width = 511;
},
{
anchors = (
{
name = bottom;
position = "{224, 0}";
},
{
name = top;
position = "{224, 480}";
}
);
layerId = "0B2E441B-685E-400D-9B9B-E078DEED62EF";
paths = (
{
closed = 1;
nodes = (
"400 0 LINE",
"400 17 LINE",
"71 17 LINE",
"73 13 LINE",
"390 464 LINE",
"390 480 LINE",
"52 480 LINE",
"52 463 LINE",
"371 463 LINE",
"369 467 LINE",
"52 15 LINE",
"52 0 LINE"
);
}
);
width = 450;
}
);
note = z;
unicode = 007A;
},
{
glyphname = ordfeminine;
lastChange = "2017-10-07 07:23:47 +0000";
layers = (
{
anchors = (
{
name = bottom;
position = "{162, 412}";
},
{
name = ogonek;
position = "{249, 418}";
},
{
name = top;
position = "{156, 703}";
}
);
layerId = "F333AEC5-BB61-4D5E-9EDD-6124322D28F2";
paths = (
{
closed = 1;
nodes = (
"278 412 LINE",
"278 593 LINE SMOOTH",
"278 665 OFFCURVE",
"233 708 OFFCURVE",
"158 708 CURVE SMOOTH",
"113 708 OFFCURVE",
"65 693 OFFCURVE",
"33 669 CURVE",
"48 628 LINE",
"74 645 OFFCURVE",
"110 656 OFFCURVE",
"143 656 CURVE SMOOTH",
"190 656 OFFCURVE",
"214 633 OFFCURVE",
"214 592 CURVE SMOOTH",
"214 473 LINE",
"224 412 LINE"
);
},
{
closed = 1;
nodes = (
"173 406 OFFCURVE",
"214 430 OFFCURVE",
"249 478 CURVE",
"231 491 LINE",
"204 466 OFFCURVE",
"177 453 OFFCURVE",
"146 453 CURVE SMOOTH",
"112 453 OFFCURVE",
"92 469 OFFCURVE",
"92 494 CURVE SMOOTH",
"92 529 OFFCURVE",
"132 545 OFFCURVE",
"229 545 CURVE",
"229 584 LINE",
"104 584 OFFCURVE",
"28 546 OFFCURVE",
"28 482 CURVE SMOOTH",
"28 437 OFFCURVE",
"66 406 OFFCURVE",
"123 406 CURVE SMOOTH"
);
}
);
userData = {
RMXScaler = {
height = 60;
verticalShift = 412;
weight = -18;
width = 60;
};
};
width = 322;
},
{
anchors = (
{
name = bottom;
position = "{169, 412}";
},
{
name = ogonek;
position = "{264, 418}";
},
{
name = top;
position = "{168, 705}";
}
);
layerId = "51C2DFEF-3776-4D13-9284-96485B799B57";
paths = (
{
closed = 1;
nodes = (
"299 412 LINE",
"299 583 LINE SMOOTH",
"299 665 OFFCURVE",
"248 713 OFFCURVE",
"159 713 CURVE SMOOTH",
"116 713 OFFCURVE",
"76 702 OFFCURVE",
"29 677 CURVE",
"54 604 LINE",
"86 616 OFFCURVE",
"110 621 OFFCURVE",
"136 621 CURVE SMOOTH",
"174 621 OFFCURVE",
"193 610 OFFCURVE",
"193 585 CURVE SMOOTH",
"193 460 LINE",
"218 412 LINE"
);
},
{
closed = 1;
nodes = (
"205 406 OFFCURVE",
"263 462 OFFCURVE",
"273 555 CURVE",
"234 564 LINE",
"236 520 OFFCURVE",
"200 491 OFFCURVE",
"158 491 CURVE SMOOTH",
"139 491 OFFCURVE",
"126 499 OFFCURVE",
"126 510 CURVE SMOOTH",
"126 525 OFFCURVE",
"147 528 OFFCURVE",
"210 528 CURVE",
"210 598 LINE",
"92 598 OFFCURVE",
"20 557 OFFCURVE",
"20 491 CURVE SMOOTH",
"20 440 OFFCURVE",
"62 406 OFFCURVE",
"124 406 CURVE SMOOTH"
);
}
);
userData = {
RMXScaler = {
height = 60;
verticalShift = 412;
weight = -65;
width = 60;
};
};
width = 331;
},
{
anchors = (
{
name = bottom;
position = "{154, 412}";
},
{
name = ogonek;
position = "{245, 418}";
},
{
name = top;
position = "{143, 700}";
}
);
layerId = "0B2E441B-685E-400D-9B9B-E078DEED62EF";
paths = (
{
closed = 1;
nodes = (
"251 412 LINE",
"251 607 LINE SMOOTH",
"251 669 OFFCURVE",
"214 704 OFFCURVE",
"151 704 CURVE SMOOTH",
"111 704 OFFCURVE",
"70 690 OFFCURVE",
"41 668 CURVE",
"46 656 LINE",
"75 677 OFFCURVE",
"110 688 OFFCURVE",
"146 688 CURVE SMOOTH",
"203 688 OFFCURVE",
"232 659 OFFCURVE",
"232 605 CURVE SMOOTH",
"232 453 LINE",
"236 412 LINE"
);
},
{
closed = 1;
nodes = (
"176 406 OFFCURVE",
"217 428 OFFCURVE",
"243 463 CURVE",
"240 473 LINE",
"211 440 OFFCURVE",
"177 422 OFFCURVE",
"134 422 CURVE SMOOTH",
"85 422 OFFCURVE",
"55 445 OFFCURVE",
"55 481 CURVE SMOOTH",
"55 533 OFFCURVE",
"114 558 OFFCURVE",
"237 558 CURVE",
"237 573 LINE",
"108 573 OFFCURVE",
"37 540 OFFCURVE",
"37 478 CURVE SMOOTH",
"37 435 OFFCURVE",
"73 406 OFFCURVE",
"128 406 CURVE SMOOTH"
);
}
);
userData = {
RMXScaler = {
height = 60;
verticalShift = 412;
weight = -2;
width = 60;
};
};
width = 306;
}
);
unicode = 00AA;
userData = {
RMXScaler = {
source = a;
};
};
},
{
glyphname = ordmasculine;
lastChange = "2017-10-07 07:24:07 +0000";
layers = (
{
anchors = (
{
name = "#exit";
position = "{287, 554}";
},
{
name = bottom;
position = "{174, 412}";
},
{
name = center;
position = "{174, 558}";
},
{
name = ogonek;
position = "{195, 418}";
},
{
name = top;
position = "{172, 703}";
},
{
name = topright;
position = "{310, 703}";
}
);
layerId = "F333AEC5-BB61-4D5E-9EDD-6124322D28F2";
paths = (
{
closed = 1;
nodes = (
"257 406 OFFCURVE",
"317 471 OFFCURVE",
"317 561 CURVE SMOOTH",
"317 648 OFFCURVE",
"261 708 OFFCURVE",
"178 708 CURVE SMOOTH",
"92 708 OFFCURVE",
"30 643 OFFCURVE",
"30 552 CURVE SMOOTH",
"30 465 OFFCURVE",
"87 406 OFFCURVE",
"170 406 CURVE SMOOTH"
);
},
{
closed = 1;
nodes = (
"128 459 OFFCURVE",
"94 497 OFFCURVE",
"94 558 CURVE SMOOTH",
"94 614 OFFCURVE",
"124 656 OFFCURVE",
"172 656 CURVE SMOOTH",
"220 656 OFFCURVE",
"253 616 OFFCURVE",
"253 555 CURVE SMOOTH",
"253 497 OFFCURVE",
"223 459 OFFCURVE",
"176 459 CURVE SMOOTH"
);
}
);
userData = {
RMXScaler = {
height = 60;
verticalShift = 412;
weight = -18;
width = 60;
};
};
width = 347;
},
{
anchors = (
{
name = "#exit";
position = "{287, 554}";
},
{
name = bottom;
position = "{179, 412}";
},
{
name = center;
position = "{179, 558}";
},
{
name = ogonek;
position = "{220, 418}";
},
{
name = top;
position = "{183, 705}";
},
{
name = topright;
position = "{321, 705}";
}
);
layerId = "51C2DFEF-3776-4D13-9284-96485B799B57";
paths = (
{
closed = 1;
nodes = (
"270 406 OFFCURVE",
"339 473 OFFCURVE",
"339 566 CURVE SMOOTH",
"339 653 OFFCURVE",
"278 712 OFFCURVE",
"186 712 CURVE SMOOTH",
"88 712 OFFCURVE",
"19 646 OFFCURVE",
"19 552 CURVE SMOOTH",
"19 464 OFFCURVE",
"80 406 OFFCURVE",
"171 406 CURVE SMOOTH"
);
},
{
closed = 1;
nodes = (
"151 495 OFFCURVE",
"124 522 OFFCURVE",
"124 563 CURVE SMOOTH",
"124 600 OFFCURVE",
"144 623 OFFCURVE",
"174 623 CURVE SMOOTH",
"208 623 OFFCURVE",
"233 594 OFFCURVE",
"233 554 CURVE SMOOTH",
"233 520 OFFCURVE",
"214 495 OFFCURVE",
"183 495 CURVE SMOOTH"
);
}
);
userData = {
RMXScaler = {
height = 60;
verticalShift = 412;
weight = -66;
width = 60;
};
};
width = 358;
},
{
anchors = (
{
name = "#exit";
position = "{287, 554}";
},
{
name = bottom;
position = "{170, 412}";
},
{
name = center;
position = "{170, 556}";
},
{
name = ogonek;
position = "{211, 418}";
},
{
name = top;
position = "{166, 700}";
},
{
name = topright;
position = "{268, 700}";
}
);
layerId = "0B2E441B-685E-400D-9B9B-E078DEED62EF";
paths = (
{
closed = 1;
nodes = (
"245 406 OFFCURVE",
"297 466 OFFCURVE",
"297 557 CURVE SMOOTH",
"297 646 OFFCURVE",
"246 704 OFFCURVE",
"171 704 CURVE SMOOTH",
"94 704 OFFCURVE",
"42 644 OFFCURVE",
"42 554 CURVE SMOOTH",
"42 465 OFFCURVE",
"92 406 OFFCURVE",
"169 406 CURVE SMOOTH"
);
},
{
closed = 1;
nodes = (
"104 422 OFFCURVE",
"61 476 OFFCURVE",
"61 556 CURVE SMOOTH",
"61 634 OFFCURVE",
"102 688 OFFCURVE",
"168 688 CURVE SMOOTH",
"234 688 OFFCURVE",
"278 636 OFFCURVE",
"278 554 CURVE SMOOTH",
"278 474 OFFCURVE",
"236 422 OFFCURVE",
"171 422 CURVE SMOOTH"
);
}
);
userData = {
RMXScaler = {
height = 60;
verticalShift = 412;
weight = -2;
width = 60;
};
};
width = 339;
}
);
unicode = 00BA;
userData = {
RMXScaler = {
source = o;
};
};
},
{
glyphname = pi;
lastChange = "2017-10-22 20:16:09 +0000";
layers = (
{
layerId = "F333AEC5-BB61-4D5E-9EDD-6124322D28F2";
paths = (
{
closed = 1;
nodes = (
"538 -10 OFFCURVE",
"564 -2 OFFCURVE",
"583 7 CURVE",
"569 63 LINE",
"560 59 OFFCURVE",
"548 55 OFFCURVE",
"535 55 CURVE SMOOTH",
"504 55 OFFCURVE",
"487 77 OFFCURVE",
"487 124 CURVE SMOOTH",
"487 425 LINE",
"407 425 LINE",
"407 114 LINE SMOOTH",
"407 34 OFFCURVE",
"448 -10 OFFCURVE",
"511 -10 CURVE SMOOTH"
);
},
{
closed = 1;
nodes = (
"191 0 LINE",
"191 425 LINE",
"111 425 LINE",
"111 0 LINE"
);
},
{
closed = 1;
nodes = (
"566 415 LINE",
"566 482 LINE",
"31 482 LINE",
"31 415 LINE"
);
}
);
width = 621;
},
{
layerId = "51C2DFEF-3776-4D13-9284-96485B799B57";
paths = (
{
closed = 1;
nodes = (
"614 -8 OFFCURVE",
"650 1 OFFCURVE",
"691 21 CURVE",
"662 139 LINE",
"644 134 OFFCURVE",
"628 130 OFFCURVE",
"615 130 CURVE SMOOTH",
"582 130 OFFCURVE",
"564 157 OFFCURVE",
"564 201 CURVE SMOOTH",
"564 425 LINE",
"391 425 LINE",
"391 182 LINE SMOOTH",
"391 63 OFFCURVE",
"457 -8 OFFCURVE",
"573 -8 CURVE SMOOTH"
);
},
{
closed = 1;
nodes = (
"281 0 LINE",
"281 425 LINE",
"108 425 LINE",
"108 0 LINE"
);
},
{
closed = 1;
nodes = (
"669 355 LINE",
"669 490 LINE",
"14 490 LINE",
"14 355 LINE"
);
}
);
width = 719;
},
{
layerId = "0B2E441B-685E-400D-9B9B-E078DEED62EF";
paths = (
{
closed = 1;
nodes = (
"485 -10 OFFCURVE",
"503 -5 OFFCURVE",
"518 4 CURVE",
"515 17 LINE",
"501 11 OFFCURVE",
"483 7 OFFCURVE",
"469 7 CURVE SMOOTH",
"445 7 OFFCURVE",
"429 30 OFFCURVE",
"429 64 CURVE SMOOTH",
"429 471 LINE",
"408 471 LINE",
"408 64 LINE SMOOTH",
"408 20 OFFCURVE",
"432 -10 OFFCURVE",
"467 -10 CURVE SMOOTH"
);
},
{
closed = 1;
nodes = (
"133 0 LINE",
"133 471 LINE",
"112 471 LINE",
"112 0 LINE"
);
},
{
closed = 1;
nodes = (
"507 463 LINE",
"507 480 LINE",
"32 480 LINE",
"32 463 LINE"
);
}
);
width = 555;
}
);
unicode = 03C0;
},
{
glyphname = zero;
lastChange = "2017-10-26 21:50:42 +0000";
layers = (
{
anchors = (
{
name = slash;
position = "{321, 350}";
}
);
layerId = "F333AEC5-BB61-4D5E-9EDD-6124322D28F2";
paths = (
{
closed = 1;
nodes = (
"476 -10 OFFCURVE",
"570 125 OFFCURVE",
"570 352 CURVE SMOOTH",
"570 573 OFFCURVE",
"479 704 OFFCURVE",
"326 704 CURVE SMOOTH",
"166 704 OFFCURVE",
"71 570 OFFCURVE",
"71 342 CURVE SMOOTH",
"71 121 OFFCURVE",
"163 -10 OFFCURVE",
"318 -10 CURVE SMOOTH"
);
},
{
closed = 1;
nodes = (
"219 62 OFFCURVE",
"156 170 OFFCURVE",
"156 352 CURVE SMOOTH",
"156 528 OFFCURVE",
"217 632 OFFCURVE",
"319 632 CURVE SMOOTH",
"423 632 OFFCURVE",
"485 524 OFFCURVE",
"485 342 CURVE SMOOTH",
"485 166 OFFCURVE",
"426 62 OFFCURVE",
"325 62 CURVE SMOOTH"
);
}
);
width = 641;
},
{
anchors = (
{
name = slash;
position = "{337, 345}";
}
);
layerId = "51C2DFEF-3776-4D13-9284-96485B799B57";
paths = (
{
closed = 1;
nodes = (
"512 -10 OFFCURVE",
"632 135 OFFCURVE",
"632 351 CURVE SMOOTH",
"632 564 OFFCURVE",
"515 704 OFFCURVE",
"338 704 CURVE SMOOTH",
"158 704 OFFCURVE",
"38 558 OFFCURVE",
"38 344 CURVE SMOOTH",
"38 131 OFFCURVE",
"156 -10 OFFCURVE",
"333 -10 CURVE SMOOTH"
);
},
{
closed = 1;
nodes = (
"265 138 OFFCURVE",
"216 225 OFFCURVE",
"216 350 CURVE SMOOTH",
"216 474 OFFCURVE",
"264 556 OFFCURVE",
"334 556 CURVE SMOOTH",
"405 556 OFFCURVE",
"454 470 OFFCURVE",
"454 343 CURVE SMOOTH",
"454 219 OFFCURVE",
"407 138 OFFCURVE",
"337 138 CURVE SMOOTH"
);
}
);
width = 670;
},
{
anchors = (
{
name = slash;
position = "{327, 350}";
}
);
layerId = "0B2E441B-685E-400D-9B9B-E078DEED62EF";
paths = (
{
closed = 1;
nodes = (
"452 -10 OFFCURVE",
"541 131 OFFCURVE",
"541 343 CURVE SMOOTH",
"541 556 OFFCURVE",
"453 699 OFFCURVE",
"322 699 CURVE SMOOTH",
"186 699 OFFCURVE",
"96 555 OFFCURVE",
"96 340 CURVE SMOOTH",
"96 130 OFFCURVE",
"185 -10 OFFCURVE",
"318 -10 CURVE SMOOTH"
);
},
{
closed = 1;
nodes = (
"199 8 OFFCURVE",
"117 142 OFFCURVE",
"117 343 CURVE SMOOTH",
"117 546 OFFCURVE",
"198 681 OFFCURVE",
"319 681 CURVE SMOOTH",
"440 681 OFFCURVE",
"520 544 OFFCURVE",
"520 340 CURVE SMOOTH",
"520 141 OFFCURVE",
"440 8 OFFCURVE",
"321 8 CURVE SMOOTH"
);
}
);
width = 637;
}
);
note = zero;
unicode = 0030;
},
{
glyphname = one;
lastChange = "2017-10-26 21:50:43 +0000";
layers = (
{
layerId = "F333AEC5-BB61-4D5E-9EDD-6124322D28F2";
paths = (
{
closed = 1;
nodes = (
"321 55 LINE",
"321 694 LINE",
"269 694 LINE",
"49 565 LINE",
"79 508 LINE",
"266 608 LINE",
"236 635 LINE",
"236 55 LINE"
);
},
{
closed = 1;
nodes = (
"473 0 LINE",
"473 71 LINE",
"60 71 LINE",
"60 0 LINE"
);
}
);
width = 515;
},
{
layerId = "51C2DFEF-3776-4D13-9284-96485B799B57";
paths = (
{
closed = 1;
nodes = (
"407 131 LINE",
"407 694 LINE",
"281 694 LINE",
"24 547 LINE",
"84 420 LINE",
"290 528 LINE",
"233 569 LINE",
"233 131 LINE"
);
},
{
closed = 1;
nodes = (
"568 0 LINE",
"568 151 LINE",
"56 151 LINE",
"56 0 LINE"
);
}
);
width = 589;
},
{
layerId = "0B2E441B-685E-400D-9B9B-E078DEED62EF";
paths = (
{
closed = 1;
nodes = (
"283 7 LINE",
"283 694 LINE",
"272 694 LINE",
"67 565 LINE",
"76 551 LINE",
"272 673 LINE",
"264 677 LINE",
"264 7 LINE"
);
},
{
closed = 1;
nodes = (
"451 0 LINE",
"451 17 LINE",
"77 17 LINE",
"77 0 LINE"
);
}
);
width = 512;
}
);
note = one;
unicode = 0031;
},
{
glyphname = two;
lastChange = "2017-10-26 21:50:42 +0000";
layers = (
{
layerId = "F333AEC5-BB61-4D5E-9EDD-6124322D28F2";
paths = (
{
closed = 1;
nodes = (
"506 0 LINE",
"506 72 LINE",
"145 72 LINE",
"153 48 LINE",
"383 264 OFFCURVE",
"476 383 OFFCURVE",
"476 509 CURVE SMOOTH",
"476 631 OFFCURVE",
"396 704 OFFCURVE",
"261 704 CURVE SMOOTH",
"188 704 OFFCURVE",
"110 682 OFFCURVE",
"48 644 CURVE",
"69 586 LINE",
"123 614 OFFCURVE",
"185 631 OFFCURVE",
"238 631 CURVE SMOOTH",
"332 631 OFFCURVE",
"391 579 OFFCURVE",
"391 495 CURVE SMOOTH",
"391 397 OFFCURVE",
"312 291 OFFCURVE",
"61 55 CURVE",
"61 0 LINE"
);
}
);
width = 559;
},
{
layerId = "51C2DFEF-3776-4D13-9284-96485B799B57";
paths = (
{
closed = 1;
nodes = (
"543 0 LINE",
"543 150 LINE",
"258 150 LINE",
"258 109 LINE",
"429 217 OFFCURVE",
"525 348 OFFCURVE",
"525 475 CURVE SMOOTH",
"525 612 OFFCURVE",
"414 704 OFFCURVE",
"255 704 CURVE SMOOTH",
"173 704 OFFCURVE",
"84 679 OFFCURVE",
"23 641 CURVE",
"69 514 LINE",
"116 540 OFFCURVE",
"175 556 OFFCURVE",
"223 556 CURVE SMOOTH",
"297 556 OFFCURVE",
"347 516 OFFCURVE",
"347 454 CURVE SMOOTH",
"347 381 OFFCURVE",
"277 299 OFFCURVE",
"53 109 CURVE",
"53 0 LINE"
);
}
);
width = 581;
},
{
layerId = "0B2E441B-685E-400D-9B9B-E078DEED62EF";
paths = (
{
closed = 1;
nodes = (
"486 0 LINE",
"486 17 LINE",
"90 17 LINE",
"94 10 LINE",
"391 311 OFFCURVE",
"458 402 OFFCURVE",
"458 507 CURVE SMOOTH",
"458 627 OFFCURVE",
"372 704 OFFCURVE",
"250 704 CURVE SMOOTH",
"185 704 OFFCURVE",
"122 682 OFFCURVE",
"68 647 CURVE",
"76 634 LINE",
"138 668 OFFCURVE",
"189 686 OFFCURVE",
"246 686 CURVE SMOOTH",
"360 686 OFFCURVE",
"437 615 OFFCURVE",
"437 504 CURVE SMOOTH",
"437 407 OFFCURVE",
"377 320 OFFCURVE",
"70 8 CURVE",
"70 0 LINE"
);
}
);
width = 558;
}
);
note = two;
unicode = 0032;
},
{
glyphname = three;
lastChange = "2017-10-26 21:50:43 +0000";
layers = (
{
layerId = "F333AEC5-BB61-4D5E-9EDD-6124322D28F2";
paths = (
{
closed = 1;
nodes = (
"414 -10 OFFCURVE",
"517 68 OFFCURVE",
"517 182 CURVE SMOOTH",
"517 284 OFFCURVE",
"437 361 OFFCURVE",
"319 373 CURVE",
"318 358 LINE",
"414 361 OFFCURVE",
"480 436 OFFCURVE",
"480 527 CURVE SMOOTH",
"480 632 OFFCURVE",
"394 704 OFFCURVE",
"269 704 CURVE SMOOTH",
"201 704 OFFCURVE",
"125 682 OFFCURVE",
"64 646 CURVE",
"85 588 LINE",
"143 616 OFFCURVE",
"202 631 OFFCURVE",
"252 631 CURVE SMOOTH",
"339 631 OFFCURVE",
"395 585 OFFCURVE",
"395 514 CURVE SMOOTH",
"395 432 OFFCURVE",
"319 386 OFFCURVE",
"182 386 CURVE",
"182 318 LINE",
"339 318 OFFCURVE",
"432 265 OFFCURVE",
"432 175 CURVE SMOOTH",
"432 105 OFFCURVE",
"373 63 OFFCURVE",
"272 63 CURVE SMOOTH",
"205 63 OFFCURVE",
"134 80 OFFCURVE",
"72 112 CURVE",
"48 43 LINE",
"113 9 OFFCURVE",
"190 -10 OFFCURVE",
"264 -10 CURVE SMOOTH"
);
}
);
width = 576;
},
{
layerId = "51C2DFEF-3776-4D13-9284-96485B799B57";
paths = (
{
closed = 1;
nodes = (
"411 -10 OFFCURVE",
"537 74 OFFCURVE",
"537 199 CURVE SMOOTH",
"537 295 OFFCURVE",
"464 358 OFFCURVE",
"352 370 CURVE",
"345 353 LINE",
"434 359 OFFCURVE",
"500 430 OFFCURVE",
"500 518 CURVE SMOOTH",
"500 630 OFFCURVE",
"392 704 OFFCURVE",
"249 704 CURVE SMOOTH",
"164 704 OFFCURVE",
"88 678 OFFCURVE",
"32 643 CURVE",
"78 516 LINE",
"127 539 OFFCURVE",
"176 556 OFFCURVE",
"220 556 CURVE SMOOTH",
"268 556 OFFCURVE",
"322 535 OFFCURVE",
"322 489 CURVE SMOOTH",
"322 443 OFFCURVE",
"266 416 OFFCURVE",
"160 416 CURVE",
"160 276 LINE",
"292 276 OFFCURVE",
"359 245 OFFCURVE",
"359 196 CURVE SMOOTH",
"359 158 OFFCURVE",
"317 138 OFFCURVE",
"252 138 CURVE SMOOTH",
"195 138 OFFCURVE",
"129 152 OFFCURVE",
"74 177 CURVE",
"26 40 LINE",
"94 9 OFFCURVE",
"178 -10 OFFCURVE",
"252 -10 CURVE SMOOTH"
);
}
);
width = 566;
},
{
layerId = "0B2E441B-685E-400D-9B9B-E078DEED62EF";
paths = (
{
closed = 1;
nodes = (
"415 -10 OFFCURVE",
"501 61 OFFCURVE",
"501 170 CURVE SMOOTH",
"501 273 OFFCURVE",
"424 337 OFFCURVE",
"278 356 CURVE",
"278 352 LINE",
"390 359 OFFCURVE",
"464 429 OFFCURVE",
"464 528 CURVE SMOOTH",
"464 632 OFFCURVE",
"384 704 OFFCURVE",
"268 704 CURVE SMOOTH",
"203 704 OFFCURVE",
"136 682 OFFCURVE",
"84 644 CURVE",
"94 631 LINE",
"149 667 OFFCURVE",
"207 686 OFFCURVE",
"267 686 CURVE SMOOTH",
"374 686 OFFCURVE",
"443 624 OFFCURVE",
"443 524 CURVE SMOOTH",
"443 416 OFFCURVE",
"361 361 OFFCURVE",
"200 361 CURVE",
"200 344 LINE",
"379 344 OFFCURVE",
"481 281 OFFCURVE",
"481 168 CURVE SMOOTH",
"481 70 OFFCURVE",
"405 9 OFFCURVE",
"283 9 CURVE SMOOTH",
"215 9 OFFCURVE",
"130 28 OFFCURVE",
"74 56 CURVE",
"68 40 LINE",
"126 10 OFFCURVE",
"211 -10 OFFCURVE",
"282 -10 CURVE SMOOTH"
);
}
);
width = 584;
}
);
note = three;
unicode = 0033;
},
{
glyphname = four;
lastChange = "2017-10-26 21:50:42 +0000";
layers = (
{
layerId = "F333AEC5-BB61-4D5E-9EDD-6124322D28F2";
paths = (
{
closed = 1;
nodes = (
"466 -10 LINE",
"466 694 LINE",
"404 694 LINE",
"44 206 LINE",
"44 161 LINE",
"591 161 LINE",
"591 236 LINE",
"130 236 LINE",
"130 214 LINE",
"391 567 LINE",
"383 567 LINE",
"383 -10 LINE"
);
}
);
width = 636;
},
{
layerId = "51C2DFEF-3776-4D13-9284-96485B799B57";
paths = (
{
closed = 1;
nodes = (
"522 0 LINE",
"522 707 LINE",
"356 707 LINE",
"26 284 LINE",
"26 134 LINE",
"619 134 LINE",
"619 285 LINE",
"101 287 LINE",
"140 228 LINE",
"391 557 LINE",
"348 593 LINE",
"348 0 LINE"
);
}
);
width = 644;
},
{
layerId = "0B2E441B-685E-400D-9B9B-E078DEED62EF";
paths = (
{
closed = 1;
nodes = (
"432 -10 LINE",
"432 694 LINE",
"418 694 LINE",
"65 200 LINE",
"65 190 LINE",
"551 190 LINE",
"551 207 LINE",
"87 207 LINE",
"87 202 LINE",
"416 662 LINE",
"413 665 LINE",
"413 -10 LINE"
);
}
);
width = 615;
}
);
note = four;
unicode = 0034;
},
{
glyphname = five;
lastChange = "2017-10-26 21:50:42 +0000";
layers = (
{
layerId = "F333AEC5-BB61-4D5E-9EDD-6124322D28F2";
paths = (
{
closed = 1;
nodes = (
"410 -10 OFFCURVE",
"513 78 OFFCURVE",
"513 213 CURVE SMOOTH",
"513 348 OFFCURVE",
"420 428 OFFCURVE",
"263 428 CURVE SMOOTH",
"230 428 OFFCURVE",
"191 424 OFFCURVE",
"153 416 CURVE",
"172 389 LINE",
"183 622 LINE",
"480 622 LINE",
"480 694 LINE",
"108 694 LINE",
"91 338 LINE",
"142 349 OFFCURVE",
"197 355 OFFCURVE",
"236 355 CURVE SMOOTH",
"357 355 OFFCURVE",
"428 299 OFFCURVE",
"428 204 CURVE SMOOTH",
"428 117 OFFCURVE",
"364 63 OFFCURVE",
"262 63 CURVE SMOOTH",
"202 63 OFFCURVE",
"137 81 OFFCURVE",
"82 109 CURVE",
"58 40 LINE",
"121 7 OFFCURVE",
"185 -10 OFFCURVE",
"253 -10 CURVE SMOOTH"
);
}
);
width = 573;
},
{
layerId = "51C2DFEF-3776-4D13-9284-96485B799B57";
paths = (
{
closed = 1;
nodes = (
"425 -10 OFFCURVE",
"544 80 OFFCURVE",
"544 220 CURVE SMOOTH",
"544 350 OFFCURVE",
"442 437 OFFCURVE",
"289 437 CURVE SMOOTH",
"250 437 OFFCURVE",
"202 432 OFFCURVE",
"169 425 CURVE",
"245 354 LINE",
"253 543 LINE",
"511 543 LINE",
"511 694 LINE",
"89 694 LINE",
"70 274 LINE",
"122 283 OFFCURVE",
"177 289 OFFCURVE",
"220 289 CURVE SMOOTH",
"315 289 OFFCURVE",
"367 259 OFFCURVE",
"367 210 CURVE SMOOTH",
"367 166 OFFCURVE",
"326 138 OFFCURVE",
"246 138 CURVE SMOOTH",
"192 138 OFFCURVE",
"126 150 OFFCURVE",
"77 173 CURVE",
"27 35 LINE",
"79 4 OFFCURVE",
"161 -10 OFFCURVE",
"241 -10 CURVE SMOOTH"
);
}
);
width = 579;
},
{
layerId = "0B2E441B-685E-400D-9B9B-E078DEED62EF";
paths = (
{
closed = 1;
nodes = (
"405 -10 OFFCURVE",
"491 80 OFFCURVE",
"491 203 CURVE SMOOTH",
"491 326 OFFCURVE",
"404 403 OFFCURVE",
"259 403 CURVE SMOOTH",
"222 403 OFFCURVE",
"172 398 OFFCURVE",
"122 388 CURVE",
"134 384 LINE",
"147 677 LINE",
"466 677 LINE",
"466 694 LINE",
"129 694 LINE",
"113 369 LINE",
"159 379 OFFCURVE",
"211 385 OFFCURVE",
"252 385 CURVE SMOOTH",
"396 385 OFFCURVE",
"470 310 OFFCURVE",
"470 201 CURVE SMOOTH",
"470 88 OFFCURVE",
"392 9 OFFCURVE",
"271 9 CURVE SMOOTH",
"213 9 OFFCURVE",
"140 27 OFFCURVE",
"84 57 CURVE",
"77 40 LINE",
"137 8 OFFCURVE",
"205 -10 OFFCURVE",
"267 -10 CURVE SMOOTH"
);
}
);
width = 572;
}
);
note = five;
unicode = 0035;
},
{
glyphname = six;
lastChange = "2017-10-26 21:50:43 +0000";
layers = (
{
layerId = "F333AEC5-BB61-4D5E-9EDD-6124322D28F2";
paths = (
{
closed = 1;
nodes = (
"450 -10 OFFCURVE",
"543 80 OFFCURVE",
"543 213 CURVE SMOOTH",
"543 338 OFFCURVE",
"461 424 OFFCURVE",
"341 424 CURVE SMOOTH",
"240 424 OFFCURVE",
"160 364 OFFCURVE",
"114 256 CURVE",
"136 213 LINE",
"170 302 OFFCURVE",
"233 352 OFFCURVE",
"312 352 CURVE SMOOTH",
"399 352 OFFCURVE",
"458 291 OFFCURVE",
"458 199 CURVE SMOOTH",
"458 115 OFFCURVE",
"409 63 OFFCURVE",
"328 63 CURVE SMOOTH",
"219 63 OFFCURVE",
"159 159 OFFCURVE",
"159 334 CURVE SMOOTH",
"159 535 OFFCURVE",
"236 631 OFFCURVE",
"365 631 CURVE SMOOTH",
"407 631 OFFCURVE",
"465 620 OFFCURVE",
"509 604 CURVE",
"532 671 LINE",
"492 692 OFFCURVE",
"431 704 OFFCURVE",
"374 704 CURVE SMOOTH",
"185 704 OFFCURVE",
"69 567 OFFCURVE",
"69 328 CURVE SMOOTH",
"69 110 OFFCURVE",
"166 -10 OFFCURVE",
"318 -10 CURVE SMOOTH"
);
}
);
width = 606;
},
{
layerId = "51C2DFEF-3776-4D13-9284-96485B799B57";
paths = (
{
closed = 1;
nodes = (
"461 -10 OFFCURVE",
"567 85 OFFCURVE",
"567 231 CURVE SMOOTH",
"567 359 OFFCURVE",
"486 449 OFFCURVE",
"367 449 CURVE SMOOTH",
"277 449 OFFCURVE",
"207 399 OFFCURVE",
"168 305 CURVE",
"211 245 LINE",
"239 282 OFFCURVE",
"276 301 OFFCURVE",
"312 301 CURVE SMOOTH",
"360 301 OFFCURVE",
"389 268 OFFCURVE",
"389 219 CURVE SMOOTH",
"389 169 OFFCURVE",
"359 138 OFFCURVE",
"318 138 CURVE SMOOTH",
"254 138 OFFCURVE",
"221 215 OFFCURVE",
"221 338 CURVE SMOOTH",
"221 486 OFFCURVE",
"269 556 OFFCURVE",
"375 556 CURVE SMOOTH",
"419 556 OFFCURVE",
"480 544 OFFCURVE",
"527 526 CURVE",
"558 668 LINE",
"513 688 OFFCURVE",
"444 704 OFFCURVE",
"374 704 CURVE SMOOTH",
"166 704 OFFCURVE",
"39 564 OFFCURVE",
"39 322 CURVE SMOOTH",
"39 109 OFFCURVE",
"138 -10 OFFCURVE",
"309 -10 CURVE SMOOTH"
);
}
);
width = 607;
},
{
layerId = "0B2E441B-685E-400D-9B9B-E078DEED62EF";
paths = (
{
closed = 1;
nodes = (
"437 -10 OFFCURVE",
"518 77 OFFCURVE",
"518 206 CURVE SMOOTH",
"518 333 OFFCURVE",
"439 420 OFFCURVE",
"322 420 CURVE SMOOTH",
"227 420 OFFCURVE",
"152 361 OFFCURVE",
"107 250 CURVE",
"107 219 LINE",
"151 337 OFFCURVE",
"226 402 OFFCURVE",
"320 402 CURVE SMOOTH",
"424 402 OFFCURVE",
"497 322 OFFCURVE",
"497 203 CURVE SMOOTH",
"497 86 OFFCURVE",
"426 8 OFFCURVE",
"320 8 CURVE SMOOTH",
"191 8 OFFCURVE",
"116 125 OFFCURVE",
"116 322 CURVE SMOOTH",
"116 544 OFFCURVE",
"215 686 OFFCURVE",
"369 686 CURVE SMOOTH",
"416 686 OFFCURVE",
"469 674 OFFCURVE",
"494 660 CURVE",
"500 677 LINE",
"468 694 OFFCURVE",
"422 704 OFFCURVE",
"376 704 CURVE SMOOTH",
"204 704 OFFCURVE",
"95 555 OFFCURVE",
"95 319 CURVE SMOOTH",
"95 113 OFFCURVE",
"178 -10 OFFCURVE",
"319 -10 CURVE SMOOTH"
);
}
);
width = 603;
}
);
note = six;
unicode = 0036;
},
{
glyphname = seven;
lastChange = "2017-10-26 21:50:43 +0000";
layers = (
{
layerId = "F333AEC5-BB61-4D5E-9EDD-6124322D28F2";
paths = (
{
closed = 1;
nodes = (
"218 0 LINE",
"506 654 LINE",
"506 694 LINE",
"41 694 LINE",
"41 622 LINE",
"441 622 LINE",
"420 652 LINE",
"131 0 LINE"
);
}
);
width = 549;
},
{
layerId = "51C2DFEF-3776-4D13-9284-96485B799B57";
paths = (
{
closed = 1;
nodes = (
"253 0 LINE",
"528 590 LINE",
"528 694 LINE",
"23 694 LINE",
"23 540 LINE",
"374 540 LINE",
"343 587 LINE",
"66 0 LINE"
);
}
);
width = 549;
},
{
layerId = "0B2E441B-685E-400D-9B9B-E078DEED62EF";
paths = (
{
closed = 1;
nodes = (
"192 0 LINE",
"487 682 LINE",
"487 694 LINE",
"60 694 LINE",
"60 676 LINE",
"470 676 LINE",
"467 685 LINE",
"169 0 LINE"
);
}
);
width = 552;
}
);
note = seven;
unicode = 0037;
},
{
glyphname = eight;
lastChange = "2017-10-26 21:50:43 +0000";
layers = (
{
layerId = "F333AEC5-BB61-4D5E-9EDD-6124322D28F2";
paths = (
{
closed = 1;
nodes = (
"450 -10 OFFCURVE",
"545 63 OFFCURVE",
"545 176 CURVE SMOOTH",
"545 401 OFFCURVE",
"170 359 OFFCURVE",
"170 534 CURVE SMOOTH",
"170 595 OFFCURVE",
"217 633 OFFCURVE",
"294 633 CURVE SMOOTH",
"378 633 OFFCURVE",
"435 589 OFFCURVE",
"435 523 CURVE SMOOTH",
"435 458 OFFCURVE",
"380 402 OFFCURVE",
"299 387 CURVE",
"362 356 LINE",
"456 384 OFFCURVE",
"514 453 OFFCURVE",
"514 537 CURVE SMOOTH",
"514 637 OFFCURVE",
"431 704 OFFCURVE",
"306 704 CURVE SMOOTH",
"174 704 OFFCURVE",
"87 631 OFFCURVE",
"87 521 CURVE SMOOTH",
"87 290 OFFCURVE",
"460 344 OFFCURVE",
"460 169 CURVE SMOOTH",
"460 102 OFFCURVE",
"409 63 OFFCURVE",
"318 63 CURVE SMOOTH",
"216 63 OFFCURVE",
"148 112 OFFCURVE",
"148 185 CURVE SMOOTH",
"148 257 OFFCURVE",
"211 315 OFFCURVE",
"303 328 CURVE",
"249 361 LINE",
"137 346 OFFCURVE",
"63 271 OFFCURVE",
"63 174 CURVE SMOOTH",
"63 64 OFFCURVE",
"159 -10 OFFCURVE",
"304 -10 CURVE SMOOTH"
);
}
);
width = 605;
},
{
layerId = "51C2DFEF-3776-4D13-9284-96485B799B57";
paths = (
{
closed = 1;
nodes = (
"475 -10 OFFCURVE",
"581 82 OFFCURVE",
"581 206 CURVE SMOOTH",
"581 429 OFFCURVE",
"232 385 OFFCURVE",
"232 498 CURVE SMOOTH",
"232 532 OFFCURVE",
"264 556 OFFCURVE",
"310 556 CURVE SMOOTH",
"351 556 OFFCURVE",
"381 537 OFFCURVE",
"381 501 CURVE SMOOTH",
"381 464 OFFCURVE",
"349 424 OFFCURVE",
"301 419 CURVE",
"418 359 LINE",
"500 390 OFFCURVE",
"559 448 OFFCURVE",
"559 526 CURVE SMOOTH",
"559 627 OFFCURVE",
"461 704 OFFCURVE",
"313 704 CURVE SMOOTH",
"156 704 OFFCURVE",
"54 617 OFFCURVE",
"54 492 CURVE SMOOTH",
"54 260 OFFCURVE",
"403 306 OFFCURVE",
"403 197 CURVE SMOOTH",
"403 163 OFFCURVE",
"368 138 OFFCURVE",
"313 138 CURVE SMOOTH",
"256 138 OFFCURVE",
"214 165 OFFCURVE",
"214 210 CURVE SMOOTH",
"214 252 OFFCURVE",
"252 292 OFFCURVE",
"309 294 CURVE",
"210 357 LINE",
"106 338 OFFCURVE",
"36 275 OFFCURVE",
"36 185 CURVE SMOOTH",
"36 74 OFFCURVE",
"144 -10 OFFCURVE",
"306 -10 CURVE SMOOTH"
);
}
);
width = 615;
},
{
layerId = "0B2E441B-685E-400D-9B9B-E078DEED62EF";
paths = (
{
closed = 1;
nodes = (
"439 -10 OFFCURVE",
"526 57 OFFCURVE",
"526 163 CURVE SMOOTH",
"526 389 OFFCURVE",
"131 324 OFFCURVE",
"131 540 CURVE SMOOTH",
"131 629 OFFCURVE",
"198 687 OFFCURVE",
"296 687 CURVE SMOOTH",
"394 687 OFFCURVE",
"469 628 OFFCURVE",
"469 543 CURVE SMOOTH",
"469 460 OFFCURVE",
"397 397 OFFCURVE",
"288 369 CURVE",
"304 358 LINE",
"417 385 OFFCURVE",
"488 454 OFFCURVE",
"488 543 CURVE SMOOTH",
"488 639 OFFCURVE",
"407 704 OFFCURVE",
"298 704 CURVE SMOOTH",
"188 704 OFFCURVE",
"112 639 OFFCURVE",
"112 538 CURVE SMOOTH",
"112 307 OFFCURVE",
"506 372 OFFCURVE",
"506 161 CURVE SMOOTH",
"506 67 OFFCURVE",
"429 7 OFFCURVE",
"311 7 CURVE SMOOTH",
"190 7 OFFCURVE",
"107 71 OFFCURVE",
"107 166 CURVE SMOOTH",
"107 254 OFFCURVE",
"179 325 OFFCURVE",
"288 352 CURVE",
"272 363 LINE",
"161 338 OFFCURVE",
"87 260 OFFCURVE",
"87 164 CURVE SMOOTH",
"87 60 OFFCURVE",
"176 -10 OFFCURVE",
"309 -10 CURVE SMOOTH"
);
}
);
width = 608;
}
);
note = eight;
unicode = 0038;
},
{
glyphname = zero.osf;
lastChange = "2017-10-24 20:32:33 +0000";
layers = (
{
anchors = (
{
name = slash;
position = "{318, 250}";
}
);
layerId = "F333AEC5-BB61-4D5E-9EDD-6124322D28F2";
paths = (
{
closed = 1;
nodes = (
"453 -10 OFFCURVE",
"554 95 OFFCURVE",
"554 243 CURVE SMOOTH",
"554 389 OFFCURVE",
"456 492 OFFCURVE",
"317 492 CURVE SMOOTH",
"172 492 OFFCURVE",
"70 385 OFFCURVE",
"70 234 CURVE SMOOTH",
"70 91 OFFCURVE",
"169 -10 OFFCURVE",
"309 -10 CURVE SMOOTH"
);
},
{
closed = 1;
nodes = (
"219 60 OFFCURVE",
"150 136 OFFCURVE",
"150 243 CURVE SMOOTH",
"150 348 OFFCURVE",
"216 422 OFFCURVE",
"309 422 CURVE SMOOTH",
"406 422 OFFCURVE",
"474 344 OFFCURVE",
"474 234 CURVE SMOOTH",
"474 132 OFFCURVE",
"409 60 OFFCURVE",
"317 60 CURVE SMOOTH"
);
}
);
width = 624;
},
{
layerId = "51C2DFEF-3776-4D13-9284-96485B799B57";
width = 600;
},
{
anchors = (
{
name = slash;
position = "{318, 250}";
}
);
layerId = "0B2E441B-685E-400D-9B9B-E078DEED62EF";
paths = (
{
closed = 1;
nodes = (
"448 -10 OFFCURVE",
"535 89 OFFCURVE",
"535 238 CURVE SMOOTH",
"535 387 OFFCURVE",
"449 487 OFFCURVE",
"320 487 CURVE SMOOTH",
"188 487 OFFCURVE",
"100 386 OFFCURVE",
"100 235 CURVE SMOOTH",
"100 88 OFFCURVE",
"187 -10 OFFCURVE",
"317 -10 CURVE SMOOTH"
);
},
{
closed = 1;
nodes = (
"201 8 OFFCURVE",
"121 100 OFFCURVE",
"121 238 CURVE SMOOTH",
"121 376 OFFCURVE",
"199 469 OFFCURVE",
"317 469 CURVE SMOOTH",
"435 469 OFFCURVE",
"514 375 OFFCURVE",
"514 235 CURVE SMOOTH",
"514 99 OFFCURVE",
"436 8 OFFCURVE",
"320 8 CURVE SMOOTH"
);
}
);
width = 610;
}
);
},
{
glyphname = one.osf;
lastChange = "2017-10-24 20:32:33 +0000";
layers = (
{
layerId = "F333AEC5-BB61-4D5E-9EDD-6124322D28F2";
paths = (
{
closed = 1;
nodes = (
"334 30 LINE",
"334 482 LINE",
"274 482 LINE",
"57 363 LINE",
"87 306 LINE",
"281 405 LINE",
"254 424 LINE",
"254 30 LINE"
);
},
{
closed = 1;
nodes = (
"484 0 LINE",
"484 70 LINE",
"81 70 LINE",
"81 0 LINE"
);
}
);
width = 534;
},
{
layerId = "51C2DFEF-3776-4D13-9284-96485B799B57";
width = 600;
},
{
layerId = "0B2E441B-685E-400D-9B9B-E078DEED62EF";
paths = (
{
closed = 1;
nodes = (
"281 7 LINE",
"281 480 LINE",
"269 480 LINE",
"64 351 LINE",
"73 337 LINE",
"269 459 LINE",
"261 463 LINE",
"261 7 LINE"
);
},
{
closed = 1;
nodes = (
"448 0 LINE",
"448 16 LINE",
"74 16 LINE",
"74 0 LINE"
);
}
);
width = 500;
}
);
},
{
glyphname = two.osf;
lastChange = "2017-10-24 20:32:33 +0000";
layers = (
{
layerId = "F333AEC5-BB61-4D5E-9EDD-6124322D28F2";
paths = (
{
closed = 1;
nodes = (
"492 0 LINE",
"492 71 LINE",
"156 71 LINE",
"164 38 LINE",
"378 130 OFFCURVE",
"462 212 OFFCURVE",
"462 319 CURVE SMOOTH",
"462 423 OFFCURVE",
"383 492 OFFCURVE",
"255 492 CURVE SMOOTH",
"192 492 OFFCURVE",
"129 475 OFFCURVE",
"59 439 CURVE",
"80 384 LINE",
"142 410 OFFCURVE",
"192 422 OFFCURVE",
"236 422 CURVE SMOOTH",
"323 422 OFFCURVE",
"377 376 OFFCURVE",
"377 310 CURVE SMOOTH",
"377 230 OFFCURVE",
"291 164 OFFCURVE",
"72 55 CURVE",
"72 0 LINE"
);
}
);
width = 555;
},
{
layerId = "51C2DFEF-3776-4D13-9284-96485B799B57";
width = 600;
},
{
layerId = "0B2E441B-685E-400D-9B9B-E078DEED62EF";
paths = (
{
closed = 1;
nodes = (
"466 0 LINE",
"466 17 LINE",
"113 17 LINE",
"117 10 LINE",
"329 105 OFFCURVE",
"439 215 OFFCURVE",
"439 331 CURVE SMOOTH",
"439 427 OFFCURVE",
"363 490 OFFCURVE",
"248 490 CURVE SMOOTH",
"181 490 OFFCURVE",
"114 468 OFFCURVE",
"63 433 CURVE",
"71 420 LINE",
"129 454 OFFCURVE",
"185 472 OFFCURVE",
"244 472 CURVE SMOOTH",
"348 472 OFFCURVE",
"419 417 OFFCURVE",
"419 330 CURVE SMOOTH",
"419 213 OFFCURVE",
"292 103 OFFCURVE",
"75 8 CURVE",
"75 0 LINE"
);
}
);
width = 537;
}
);
},
{
glyphname = three.osf;
lastChange = "2017-10-24 20:32:33 +0000";
layers = (
{
layerId = "F333AEC5-BB61-4D5E-9EDD-6124322D28F2";
paths = (
{
closed = 1;
nodes = (
"394 -222 OFFCURVE",
"494 -143 OFFCURVE",
"494 -28 CURVE SMOOTH",
"494 74 OFFCURVE",
"416 149 OFFCURVE",
"298 161 CURVE",
"298 156 LINE",
"393 159 OFFCURVE",
"457 224 OFFCURVE",
"457 314 CURVE SMOOTH",
"457 419 OFFCURVE",
"369 492 OFFCURVE",
"247 492 CURVE SMOOTH",
"181 492 OFFCURVE",
"112 473 OFFCURVE",
"46 437 CURVE",
"67 382 LINE",
"128 408 OFFCURVE",
"184 422 OFFCURVE",
"229 422 CURVE SMOOTH",
"315 422 OFFCURVE",
"377 374 OFFCURVE",
"377 304 CURVE SMOOTH",
"377 227 OFFCURVE",
"296 174 OFFCURVE",
"176 174 CURVE",
"176 110 LINE",
"316 110 OFFCURVE",
"414 51 OFFCURVE",
"414 -36 CURVE SMOOTH",
"414 -105 OFFCURVE",
"351 -152 OFFCURVE",
"255 -152 CURVE SMOOTH",
"198 -152 OFFCURVE",
"137 -136 OFFCURVE",
"66 -106 CURVE",
"42 -172 LINE",
"102 -203 OFFCURVE",
"179 -222 OFFCURVE",
"248 -222 CURVE SMOOTH"
);
}
);
width = 548;
},
{
layerId = "51C2DFEF-3776-4D13-9284-96485B799B57";
width = 600;
},
{
layerId = "0B2E441B-685E-400D-9B9B-E078DEED62EF";
paths = (
{
closed = 1;
nodes = (
"388 -224 OFFCURVE",
"475 -153 OFFCURVE",
"475 -44 CURVE SMOOTH",
"475 59 OFFCURVE",
"397 123 OFFCURVE",
"249 142 CURVE",
"249 138 LINE",
"363 145 OFFCURVE",
"438 215 OFFCURVE",
"438 314 CURVE SMOOTH",
"438 418 OFFCURVE",
"357 490 OFFCURVE",
"239 490 CURVE SMOOTH",
"174 490 OFFCURVE",
"106 468 OFFCURVE",
"53 430 CURVE",
"63 417 LINE",
"119 453 OFFCURVE",
"178 472 OFFCURVE",
"238 472 CURVE SMOOTH",
"347 472 OFFCURVE",
"417 410 OFFCURVE",
"417 310 CURVE SMOOTH",
"417 202 OFFCURVE",
"334 147 OFFCURVE",
"171 147 CURVE",
"171 130 LINE",
"352 130 OFFCURVE",
"455 67 OFFCURVE",
"455 -46 CURVE SMOOTH",
"455 -144 OFFCURVE",
"378 -205 OFFCURVE",
"255 -205 CURVE SMOOTH",
"186 -205 OFFCURVE",
"100 -186 OFFCURVE",
"43 -158 CURVE",
"37 -174 LINE",
"96 -204 OFFCURVE",
"182 -224 OFFCURVE",
"254 -224 CURVE SMOOTH"
);
}
);
width = 541;
}
);
},
{
glyphname = four.osf;
lastChange = "2017-10-24 20:32:33 +0000";
layers = (
{
layerId = "F333AEC5-BB61-4D5E-9EDD-6124322D28F2";
paths = (
{
closed = 1;
nodes = (
"447 -170 LINE",
"447 482 LINE",
"383 482 LINE",
"48 51 LINE",
"48 1 LINE",
"572 1 LINE",
"572 72 LINE",
"127 72 LINE",
"127 43 LINE",
"378 367 LINE",
"367 367 LINE",
"367 -170 LINE"
);
}
);
width = 621;
},
{
layerId = "51C2DFEF-3776-4D13-9284-96485B799B57";
width = 600;
},
{
layerId = "0B2E441B-685E-400D-9B9B-E078DEED62EF";
paths = (
{
closed = 1;
nodes = (
"415 -224 LINE",
"415 480 LINE",
"400 480 LINE",
"47 -14 LINE",
"47 -24 LINE",
"533 -24 LINE",
"533 -7 LINE",
"69 -7 LINE",
"69 -12 LINE",
"398 448 LINE",
"395 451 LINE",
"395 -224 LINE"
);
}
);
width = 581;
}
);
},
{
glyphname = five.osf;
lastChange = "2017-10-24 20:32:33 +0000";
layers = (
{
layerId = "F333AEC5-BB61-4D5E-9EDD-6124322D28F2";
paths = (
{
closed = 1;
nodes = (
"388 -222 OFFCURVE",
"489 -135 OFFCURVE",
"489 3 CURVE SMOOTH",
"489 135 OFFCURVE",
"397 216 OFFCURVE",
"251 216 CURVE SMOOTH",
"218 216 OFFCURVE",
"181 212 OFFCURVE",
"142 204 CURVE",
"161 177 LINE",
"172 415 LINE",
"458 415 LINE",
"458 482 LINE",
"101 482 LINE",
"84 129 LINE",
"131 140 OFFCURVE",
"186 146 OFFCURVE",
"222 146 CURVE SMOOTH",
"334 146 OFFCURVE",
"409 86 OFFCURVE",
"409 -9 CURVE SMOOTH",
"409 -97 OFFCURVE",
"343 -152 OFFCURVE",
"250 -152 CURVE SMOOTH",
"198 -152 OFFCURVE",
"130 -135 OFFCURVE",
"75 -108 CURVE",
"51 -174 LINE",
"121 -206 OFFCURVE",
"172 -222 OFFCURVE",
"237 -222 CURVE SMOOTH"
);
}
);
width = 548;
},
{
layerId = "51C2DFEF-3776-4D13-9284-96485B799B57";
width = 600;
},
{
layerId = "0B2E441B-685E-400D-9B9B-E078DEED62EF";
paths = (
{
closed = 1;
nodes = (
"388 -224 OFFCURVE",
"474 -134 OFFCURVE",
"474 -11 CURVE SMOOTH",
"474 112 OFFCURVE",
"387 189 OFFCURVE",
"242 189 CURVE SMOOTH",
"205 189 OFFCURVE",
"155 184 OFFCURVE",
"105 174 CURVE",
"117 170 LINE",
"130 463 LINE",
"449 463 LINE",
"449 480 LINE",
"112 480 LINE",
"96 155 LINE",
"142 165 OFFCURVE",
"194 171 OFFCURVE",
"235 171 CURVE SMOOTH",
"379 171 OFFCURVE",
"453 96 OFFCURVE",
"453 -13 CURVE SMOOTH",
"453 -126 OFFCURVE",
"375 -205 OFFCURVE",
"254 -205 CURVE SMOOTH",
"196 -205 OFFCURVE",
"123 -187 OFFCURVE",
"67 -157 CURVE",
"60 -174 LINE",
"120 -206 OFFCURVE",
"188 -224 OFFCURVE",
"250 -224 CURVE SMOOTH"
);
}
);
width = 540;
}
);
},
{
glyphname = six.osf;
lastChange = "2017-10-24 20:32:33 +0000";
layers = (
{
layerId = "F333AEC5-BB61-4D5E-9EDD-6124322D28F2";
paths = (
{
closed = 1;
nodes = (
"467 -10 OFFCURVE",
"556 79 OFFCURVE",
"556 212 CURVE SMOOTH",
"556 339 OFFCURVE",
"476 424 OFFCURVE",
"359 424 CURVE SMOOTH",
"262 424 OFFCURVE",
"186 365 OFFCURVE",
"139 256 CURVE",
"161 213 LINE",
"196 304 OFFCURVE",
"256 355 OFFCURVE",
"332 355 CURVE SMOOTH",
"416 355 OFFCURVE",
"476 292 OFFCURVE",
"476 199 CURVE SMOOTH",
"476 114 OFFCURVE",
"426 60 OFFCURVE",
"340 60 CURVE SMOOTH",
"236 60 OFFCURVE",
"167 139 OFFCURVE",
"167 335 CURVE SMOOTH",
"167 526 OFFCURVE",
"232 634 OFFCURVE",
"368 634 CURVE SMOOTH",
"415 634 OFFCURVE",
"467 621 OFFCURVE",
"514 600 CURVE",
"536 665 LINE",
"494 691 OFFCURVE",
"441 704 OFFCURVE",
"384 704 CURVE SMOOTH",
"191 704 OFFCURVE",
"82 556 OFFCURVE",
"82 319 CURVE SMOOTH",
"82 94 OFFCURVE",
"180 -10 OFFCURVE",
"329 -10 CURVE SMOOTH"
);
}
);
width = 624;
},
{
layerId = "51C2DFEF-3776-4D13-9284-96485B799B57";
width = 600;
},
{
layerId = "0B2E441B-685E-400D-9B9B-E078DEED62EF";
paths = (
{
closed = 1;
nodes = (
"441 -10 OFFCURVE",
"522 77 OFFCURVE",
"522 206 CURVE SMOOTH",
"522 333 OFFCURVE",
"443 420 OFFCURVE",
"326 420 CURVE SMOOTH",
"231 420 OFFCURVE",
"156 361 OFFCURVE",
"111 250 CURVE",
"111 219 LINE",
"155 337 OFFCURVE",
"230 402 OFFCURVE",
"324 402 CURVE SMOOTH",
"428 402 OFFCURVE",
"501 322 OFFCURVE",
"501 203 CURVE SMOOTH",
"501 86 OFFCURVE",
"430 8 OFFCURVE",
"324 8 CURVE SMOOTH",
"195 8 OFFCURVE",
"120 125 OFFCURVE",
"120 322 CURVE SMOOTH",
"120 544 OFFCURVE",
"219 686 OFFCURVE",
"373 686 CURVE SMOOTH",
"415 686 OFFCURVE",
"471 676 OFFCURVE",
"509 660 CURVE",
"515 677 LINE",
"470 695 OFFCURVE",
"422 704 OFFCURVE",
"380 704 CURVE SMOOTH",
"208 704 OFFCURVE",
"99 555 OFFCURVE",
"99 319 CURVE SMOOTH",
"99 113 OFFCURVE",
"182 -10 OFFCURVE",
"323 -10 CURVE SMOOTH"
);
}
);
width = 606;
}
);
},
{
glyphname = seven.osf;
lastChange = "2017-10-24 20:32:33 +0000";
layers = (
{
layerId = "F333AEC5-BB61-4D5E-9EDD-6124322D28F2";
paths = (
{
closed = 1;
nodes = (
"225 -217 LINE",
"495 447 LINE",
"495 482 LINE",
"50 482 LINE",
"50 406 LINE",
"430 406 LINE",
"414 445 LINE",
"143 -217 LINE"
);
}
);
width = 547;
},
{
layerId = "51C2DFEF-3776-4D13-9284-96485B799B57";
width = 600;
},
{
layerId = "0B2E441B-685E-400D-9B9B-E078DEED62EF";
paths = (
{
closed = 1;
nodes = (
"184 -214 LINE",
"479 468 LINE",
"479 480 LINE",
"52 480 LINE",
"52 463 LINE",
"462 463 LINE",
"460 471 LINE",
"162 -214 LINE"
);
}
);
width = 539;
}
);
},
{
glyphname = eight.osf;
lastChange = "2017-10-24 20:32:33 +0000";
layers = (
{
layerId = "F333AEC5-BB61-4D5E-9EDD-6124322D28F2";
paths = (
{
closed = 1;
nodes = (
"442 -10 OFFCURVE",
"535 64 OFFCURVE",
"535 175 CURVE SMOOTH",
"535 402 OFFCURVE",
"167 359 OFFCURVE",
"167 533 CURVE SMOOTH",
"167 595 OFFCURVE",
"217 637 OFFCURVE",
"292 637 CURVE SMOOTH",
"376 637 OFFCURVE",
"432 591 OFFCURVE",
"432 523 CURVE SMOOTH",
"432 457 OFFCURVE",
"378 402 OFFCURVE",
"296 387 CURVE",
"359 356 LINE",
"447 382 OFFCURVE",
"506 454 OFFCURVE",
"506 536 CURVE SMOOTH",
"506 637 OFFCURVE",
"424 704 OFFCURVE",
"302 704 CURVE SMOOTH",
"174 704 OFFCURVE",
"89 631 OFFCURVE",
"89 521 CURVE SMOOTH",
"89 288 OFFCURVE",
"455 346 OFFCURVE",
"455 168 CURVE SMOOTH",
"455 103 OFFCURVE",
"399 60 OFFCURVE",
"314 60 CURVE SMOOTH",
"214 60 OFFCURVE",
"148 110 OFFCURVE",
"148 186 CURVE SMOOTH",
"148 259 OFFCURVE",
"209 316 OFFCURVE",
"300 328 CURVE",
"246 361 LINE",
"139 347 OFFCURVE",
"68 272 OFFCURVE",
"68 175 CURVE SMOOTH",
"68 64 OFFCURVE",
"162 -10 OFFCURVE",
"302 -10 CURVE SMOOTH"
);
}
);
width = 599;
},
{
layerId = "51C2DFEF-3776-4D13-9284-96485B799B57";
width = 600;
},
{
layerId = "0B2E441B-685E-400D-9B9B-E078DEED62EF";
paths = (
{
closed = 1;
nodes = (
"432 -10 OFFCURVE",
"519 57 OFFCURVE",
"519 163 CURVE SMOOTH",
"519 389 OFFCURVE",
"124 324 OFFCURVE",
"124 540 CURVE SMOOTH",
"124 629 OFFCURVE",
"191 687 OFFCURVE",
"289 687 CURVE SMOOTH",
"387 687 OFFCURVE",
"462 628 OFFCURVE",
"462 543 CURVE SMOOTH",
"462 460 OFFCURVE",
"390 397 OFFCURVE",
"281 369 CURVE",
"297 358 LINE",
"410 385 OFFCURVE",
"481 454 OFFCURVE",
"481 543 CURVE SMOOTH",
"481 639 OFFCURVE",
"400 704 OFFCURVE",
"291 704 CURVE SMOOTH",
"181 704 OFFCURVE",
"105 639 OFFCURVE",
"105 538 CURVE SMOOTH",
"105 307 OFFCURVE",
"499 372 OFFCURVE",
"499 161 CURVE SMOOTH",
"499 67 OFFCURVE",
"422 7 OFFCURVE",
"304 7 CURVE SMOOTH",
"183 7 OFFCURVE",
"100 71 OFFCURVE",
"100 166 CURVE SMOOTH",
"100 254 OFFCURVE",
"172 325 OFFCURVE",
"281 352 CURVE",
"265 363 LINE",
"154 338 OFFCURVE",
"80 260 OFFCURVE",
"80 164 CURVE SMOOTH",
"80 60 OFFCURVE",
"169 -10 OFFCURVE",
"302 -10 CURVE SMOOTH"
);
}
);
width = 596;
}
);
},
{
glyphname = asterisk;
lastChange = "2017-10-22 14:10:04 +0000";
layers = (
{
layerId = "F333AEC5-BB61-4D5E-9EDD-6124322D28F2";
paths = (
{
closed = 1;
nodes = (
"432 566 LINE",
"395 627 LINE",
"228 506 LINE",
"249 471 LINE"
);
},
{
closed = 1;
nodes = (
"250 469 LINE",
"230 503 LINE",
"46 408 LINE",
"83 348 LINE"
);
},
{
closed = 1;
nodes = (
"274 282 LINE",
"260 488 LINE",
"220 488 LINE",
"203 282 LINE"
);
},
{
closed = 1;
nodes = (
"251 505 LINE",
"85 628 LINE",
"48 568 LINE",
"230 471 LINE"
);
},
{
closed = 1;
nodes = (
"432 406 LINE",
"250 503 LINE",
"229 468 LINE",
"395 346 LINE"
);
},
{
closed = 1;
nodes = (
"260 488 LINE",
"274 694 LINE",
"203 694 LINE",
"220 488 LINE"
);
}
);
width = 479;
},
{
layerId = "51C2DFEF-3776-4D13-9284-96485B799B57";
paths = (
{
closed = 1;
nodes = (
"470 526 LINE",
"405 643 LINE",
"233 511 LINE",
"257 467 LINE"
);
},
{
closed = 1;
nodes = (
"259 464 LINE",
"234 507 LINE",
"27 441 LINE",
"91 323 LINE"
);
},
{
closed = 1;
nodes = (
"320 272 LINE",
"272 488 LINE",
"222 488 LINE",
"171 272 LINE"
);
},
{
closed = 1;
nodes = (
"260 510 LINE",
"93 651 LINE",
"28 535 LINE",
"235 467 LINE"
);
},
{
closed = 1;
nodes = (
"465 437 LINE",
"260 507 LINE",
"233 463 LINE",
"399 320 LINE"
);
},
{
closed = 1;
nodes = (
"272 488 LINE",
"320 704 LINE",
"171 704 LINE",
"222 488 LINE"
);
}
);
width = 494;
},
{
layerId = "0B2E441B-685E-400D-9B9B-E078DEED62EF";
paths = (
{
closed = 1;
nodes = (
"417 585 LINE",
"405 603 LINE",
"234 497 LINE",
"240 488 LINE"
);
},
{
closed = 1;
nodes = (
"240 487 LINE",
"234 497 LINE",
"58 390 LINE",
"70 372 LINE"
);
},
{
closed = 1;
nodes = (
"245 283 LINE",
"242 487 LINE",
"228 487 LINE",
"224 283 LINE"
);
},
{
closed = 1;
nodes = (
"238 494 LINE",
"71 608 LINE",
"59 590 LINE",
"233 484 LINE"
);
},
{
closed = 1;
nodes = (
"419 387 LINE",
"240 494 LINE",
"233 484 LINE",
"407 369 LINE"
);
},
{
closed = 1;
nodes = (
"242 487 LINE",
"245 694 LINE",
"224 694 LINE",
"228 487 LINE"
);
}
);
width = 477;
}
);
unicode = 002A;
},
{
glyphname = numbersign;
lastChange = "2017-10-03 11:34:46 +0000";
layers = (
{
layerId = "F333AEC5-BB61-4D5E-9EDD-6124322D28F2";
paths = (
{
closed = 1;
nodes = (
"515 0 LINE",
"515 694 LINE",
"439 694 LINE",
"439 0 LINE"
);
},
{
closed = 1;
nodes = (
"645 178 LINE",
"645 248 LINE",
"44 248 LINE",
"44 178 LINE"
);
},
{
closed = 1;
nodes = (
"253 0 LINE",
"253 694 LINE",
"177 694 LINE",
"177 0 LINE"
);
},
{
closed = 1;
nodes = (
"645 448 LINE",
"645 518 LINE",
"44 518 LINE",
"44 448 LINE"
);
}
);
width = 689;
},
{
layerId = "51C2DFEF-3776-4D13-9284-96485B799B57";
paths = (
{
closed = 1;
nodes = (
"623 0 LINE",
"623 694 LINE",
"450 694 LINE",
"450 0 LINE"
);
},
{
closed = 1;
nodes = (
"729 147 LINE",
"729 280 LINE",
"38 280 LINE",
"38 147 LINE"
);
},
{
closed = 1;
nodes = (
"320 0 LINE",
"320 694 LINE",
"147 694 LINE",
"147 0 LINE"
);
},
{
closed = 1;
nodes = (
"729 417 LINE",
"729 550 LINE",
"38 550 LINE",
"38 417 LINE"
);
}
);
width = 767;
},
{
layerId = "0B2E441B-685E-400D-9B9B-E078DEED62EF";
paths = (
{
closed = 1;
nodes = (
"449 0 LINE",
"449 694 LINE",
"429 694 LINE",
"429 0 LINE"
);
},
{
closed = 1;
nodes = (
"590 206 LINE",
"590 222 LINE",
"49 222 LINE",
"49 206 LINE"
);
},
{
closed = 1;
nodes = (
"213 0 LINE",
"213 694 LINE",
"193 694 LINE",
"193 0 LINE"
);
},
{
closed = 1;
nodes = (
"590 476 LINE",
"590 492 LINE",
"49 492 LINE",
"49 476 LINE"
);
}
);
width = 639;
}
);
unicode = 0023;
},
{
glyphname = slash;
lastChange = "2017-10-03 15:23:25 +0000";
layers = (
{
layerId = "F333AEC5-BB61-4D5E-9EDD-6124322D28F2";
paths = (
{
closed = 1;
nodes = (
"107 -115 LINE",
"333 739 LINE",
"253 739 LINE",
"27 -115 LINE"
);
}
);
width = 360;
},
{
layerId = "51C2DFEF-3776-4D13-9284-96485B799B57";
paths = (
{
closed = 1;
nodes = (
"177 -115 LINE",
"401 739 LINE",
"231 739 LINE",
"7 -115 LINE"
);
}
);
width = 408;
},
{
layerId = "0B2E441B-685E-400D-9B9B-E078DEED62EF";
paths = (
{
closed = 1;
nodes = (
"62 -115 LINE",
"288 739 LINE",
"268 739 LINE",
"42 -115 LINE"
);
}
);
width = 330;
}
);
unicode = 002F;
},
{
glyphname = underscore;
lastChange = "2017-10-22 14:07:20 +0000";
layers = (
{
layerId = "F333AEC5-BB61-4D5E-9EDD-6124322D28F2";
paths = (
{
closed = 1;
nodes = (
"526 0 LINE",
"526 72 LINE",
"88 72 LINE",
"88 0 LINE"
);
}
);
width = 614;
},
{
layerId = "51C2DFEF-3776-4D13-9284-96485B799B57";
paths = (
{
closed = 1;
nodes = (
"526 0 LINE",
"526 135 LINE",
"68 135 LINE",
"68 0 LINE"
);
}
);
width = 594;
},
{
layerId = "0B2E441B-685E-400D-9B9B-E078DEED62EF";
paths = (
{
closed = 1;
nodes = (
"541 0 LINE",
"541 17 LINE",
"103 17 LINE",
"103 0 LINE"
);
}
);
width = 644;
}
);
unicode = 005F;
},
{
glyphname = braceleft;
lastChange = "2017-10-22 15:35:56 +0000";
layers = (
{
layerId = "F333AEC5-BB61-4D5E-9EDD-6124322D28F2";
paths = (
{
closed = 1;
nodes = (
"361 -105 LINE",
"275 -105 OFFCURVE",
"236 -81 OFFCURVE",
"236 -23 CURVE SMOOTH",
"236 113 LINE SMOOTH",
"236 205 OFFCURVE",
"195 266 OFFCURVE",
"126 277 CURVE",
"126 278 LINE",
"190 294 OFFCURVE",
"236 361 OFFCURVE",
"236 437 CURVE SMOOTH",
"236 573 LINE SMOOTH",
"236 632 OFFCURVE",
"274 657 OFFCURVE",
"361 657 CURVE",
"361 724 LINE",
"221 724 OFFCURVE",
"161 676 OFFCURVE",
"161 563 CURVE SMOOTH",
"161 427 LINE SMOOTH",
"161 368 OFFCURVE",
"112 312 OFFCURVE",
"41 291 CURVE",
"41 265 LINE",
"116 242 OFFCURVE",
"161 180 OFFCURVE",
"161 103 CURVE SMOOTH",
"161 -33 LINE SMOOTH",
"161 -128 OFFCURVE",
"221 -173 OFFCURVE",
"361 -173 CURVE"
);
}
);
width = 410;
},
{
associatedMasterId = "F333AEC5-BB61-4D5E-9EDD-6124322D28F2";
layerId = "26302E5E-336F-4C93-8632-6CFCDE496564";
name = "Aug 6 17, 20:39";
paths = (
{
closed = 1;
nodes = (
"334 -121 LINE",
"267 -108 OFFCURVE",
"222 -54 OFFCURVE",
"222 15 CURVE SMOOTH",
"222 111 LINE SMOOTH",
"222 180 OFFCURVE",
"188 245 OFFCURVE",
"136 275 CURVE",
"136 276 LINE",
"188 306 OFFCURVE",
"222 370 OFFCURVE",
"222 435 CURVE SMOOTH",
"222 536 LINE SMOOTH",
"222 604 OFFCURVE",
"267 657 OFFCURVE",
"334 669 CURVE",
"317 746 LINE",
"212 736 OFFCURVE",
"142 652 OFFCURVE",
"142 536 CURVE SMOOTH",
"142 435 LINE SMOOTH",
"142 368 OFFCURVE",
"95 311 OFFCURVE",
"22 289 CURVE",
"22 263 LINE",
"94 241 OFFCURVE",
"142 181 OFFCURVE",
"142 111 CURVE SMOOTH",
"142 15 LINE SMOOTH",
"142 -102 OFFCURVE",
"212 -186 OFFCURVE",
"317 -196 CURVE"
);
}
);
width = 363;
},
{
layerId = "51C2DFEF-3776-4D13-9284-96485B799B57";
paths = (
{
closed = 1;
nodes = (
"430 -45 LINE",
"348 -45 OFFCURVE",
"305 -13 OFFCURVE",
"305 47 CURVE SMOOTH",
"305 113 LINE SMOOTH",
"305 205 OFFCURVE",
"244 266 OFFCURVE",
"175 277 CURVE",
"175 278 LINE",
"239 294 OFFCURVE",
"305 361 OFFCURVE",
"305 437 CURVE SMOOTH",
"305 493 LINE SMOOTH",
"305 555 OFFCURVE",
"348 587 OFFCURVE",
"430 587 CURVE",
"430 724 LINE",
"214 724 OFFCURVE",
"130 652 OFFCURVE",
"130 543 CURVE SMOOTH",
"130 427 LINE SMOOTH",
"130 373 OFFCURVE",
"82 322 OFFCURVE",
"10 301 CURVE",
"10 255 LINE",
"82 233 OFFCURVE",
"130 172 OFFCURVE",
"130 103 CURVE SMOOTH",
"130 -13 LINE SMOOTH",
"130 -109 OFFCURVE",
"214 -173 OFFCURVE",
"430 -173 CURVE"
);
}
);
width = 460;
},
{
layerId = "0B2E441B-685E-400D-9B9B-E078DEED62EF";
paths = (
{
closed = 1;
nodes = (
"339 -144 LINE",
"245 -144 OFFCURVE",
"189 -100 OFFCURVE",
"189 -25 CURVE SMOOTH",
"189 111 LINE SMOOTH",
"189 190 OFFCURVE",
"145 256 OFFCURVE",
"78 277 CURVE",
"78 275 LINE",
"145 293 OFFCURVE",
"190 357 OFFCURVE",
"190 435 CURVE SMOOTH",
"190 571 LINE SMOOTH",
"190 649 OFFCURVE",
"245 695 OFFCURVE",
"339 695 CURVE",
"339 712 LINE",
"232 712 OFFCURVE",
"169 656 OFFCURVE",
"169 561 CURVE SMOOTH",
"169 425 LINE SMOOTH",
"169 358 OFFCURVE",
"126 302 OFFCURVE",
"59 285 CURVE",
"59 267 LINE",
"125 248 OFFCURVE",
"169 183 OFFCURVE",
"169 101 CURVE SMOOTH",
"169 -35 LINE SMOOTH",
"169 -114 OFFCURVE",
"232 -161 OFFCURVE",
"339 -161 CURVE"
);
}
);
width = 398;
}
);
unicode = 007B;
},
{
glyphname = bracketleft;
lastChange = "2017-10-22 15:37:19 +0000";
layers = (
{
layerId = "F333AEC5-BB61-4D5E-9EDD-6124322D28F2";
paths = (
{
closed = 1;
nodes = (
"333 -180 LINE",
"333 -112 LINE",
"181 -112 LINE",
"181 650 LINE",
"333 650 LINE",
"333 718 LINE",
"105 718 LINE",
"105 -180 LINE"
);
}
);
width = 382;
},
{
layerId = "51C2DFEF-3776-4D13-9284-96485B799B57";
paths = (
{
closed = 1;
nodes = (
"393 -180 LINE",
"393 -40 LINE",
"246 -40 LINE",
"246 578 LINE",
"393 578 LINE",
"393 718 LINE",
"81 718 LINE",
"81 -180 LINE"
);
}
);
width = 425;
},
{
layerId = "0B2E441B-685E-400D-9B9B-E078DEED62EF";
paths = (
{
closed = 1;
nodes = (
"311 -180 LINE",
"311 -163 LINE",
"143 -163 LINE",
"143 701 LINE",
"311 701 LINE",
"311 718 LINE",
"123 718 LINE",
"123 -180 LINE"
);
}
);
width = 370;
}
);
unicode = 005B;
},
{
glyphname = parenleft;
lastChange = "2017-10-22 15:41:12 +0000";
layers = (
{
layerId = "F333AEC5-BB61-4D5E-9EDD-6124322D28F2";
paths = (
{
closed = 1;
nodes = (
"265 -148 LINE",
"181 1 OFFCURVE",
"147 124 OFFCURVE",
"147 275 CURVE SMOOTH",
"147 424 OFFCURVE",
"180 542 OFFCURVE",
"263 694 CURVE",
"205 725 LINE",
"106 558 OFFCURVE",
"67 428 OFFCURVE",
"67 268 CURVE SMOOTH",
"67 106 OFFCURVE",
"107 -23 OFFCURVE",
"207 -179 CURVE"
);
}
);
width = 314;
},
{
layerId = "51C2DFEF-3776-4D13-9284-96485B799B57";
paths = (
{
closed = 1;
nodes = (
"314 -140 LINE",
"250 -40 OFFCURVE",
"209 122 OFFCURVE",
"209 265 CURVE SMOOTH",
"209 413 OFFCURVE",
"254 565 OFFCURVE",
"322 678 CURVE",
"202 740 LINE",
"105 628 OFFCURVE",
"40 434 OFFCURVE",
"40 255 CURVE SMOOTH",
"40 87 OFFCURVE",
"102 -97 OFFCURVE",
"196 -206 CURVE"
);
}
);
width = 341;
},
{
layerId = "0B2E441B-685E-400D-9B9B-E078DEED62EF";
paths = (
{
closed = 1;
nodes = (
"237 -160 LINE",
"135 10 OFFCURVE",
"110 98 OFFCURVE",
"110 271 CURVE SMOOTH",
"110 444 OFFCURVE",
"135 530 OFFCURVE",
"235 706 CURVE",
"219 714 LINE",
"123 549 OFFCURVE",
"89 436 OFFCURVE",
"89 267 CURVE SMOOTH",
"89 95 OFFCURVE",
"124 -16 OFFCURVE",
"221 -168 CURVE"
);
}
);
width = 300;
}
);
unicode = 0028;
},
{
glyphname = emdash;
lastChange = "2017-10-22 14:10:23 +0000";
layers = (
{
layerId = "F333AEC5-BB61-4D5E-9EDD-6124322D28F2";
paths = (
{
closed = 1;
nodes = (
"1088 209 LINE",
"1088 276 LINE",
"88 276 LINE",
"88 209 LINE"
);
}
);
width = 1176;
},
{
layerId = "51C2DFEF-3776-4D13-9284-96485B799B57";
paths = (
{
closed = 1;
nodes = (
"1068 175 LINE",
"1068 310 LINE",
"68 310 LINE",
"68 175 LINE"
);
}
);
width = 1136;
},
{
layerId = "0B2E441B-685E-400D-9B9B-E078DEED62EF";
paths = (
{
closed = 1;
nodes = (
"1103 229 LINE",
"1103 246 LINE",
"103 246 LINE",
"103 229 LINE"
);
}
);
width = 1206;
}
);
unicode = 2014;
},
{
glyphname = endash;
lastChange = "2017-10-22 14:10:34 +0000";
layers = (
{
layerId = "F333AEC5-BB61-4D5E-9EDD-6124322D28F2";
paths = (
{
closed = 1;
nodes = (
"588 209 LINE",
"588 276 LINE",
"88 276 LINE",
"88 209 LINE"
);
}
);
width = 676;
},
{
layerId = "51C2DFEF-3776-4D13-9284-96485B799B57";
paths = (
{
closed = 1;
nodes = (
"568 175 LINE",
"568 310 LINE",
"68 310 LINE",
"68 175 LINE"
);
}
);
width = 636;
},
{
layerId = "0B2E441B-685E-400D-9B9B-E078DEED62EF";
paths = (
{
closed = 1;
nodes = (
"603 229 LINE",
"603 246 LINE",
"103 246 LINE",
"103 229 LINE"
);
}
);
width = 706;
}
);
unicode = 2013;
},
{
glyphname = hyphen;
lastChange = "2017-10-22 14:10:49 +0000";
layers = (
{
layerId = "F333AEC5-BB61-4D5E-9EDD-6124322D28F2";
paths = (
{
closed = 1;
nodes = (
"378 240 LINE",
"378 307 LINE",
"88 307 LINE",
"88 240 LINE"
);
}
);
width = 466;
},
{
layerId = "51C2DFEF-3776-4D13-9284-96485B799B57";
paths = (
{
closed = 1;
nodes = (
"358 206 LINE",
"358 341 LINE",
"68 341 LINE",
"68 206 LINE"
);
}
);
width = 426;
},
{
layerId = "0B2E441B-685E-400D-9B9B-E078DEED62EF";
paths = (
{
closed = 1;
nodes = (
"373 260 LINE",
"373 277 LINE",
"103 277 LINE",
"103 260 LINE"
);
}
);
width = 476;
}
);
unicode = 002D;
},
{
glyphname = guilsinglleft;
lastChange = "2017-10-22 15:18:44 +0000";
layers = (
{
layerId = "F333AEC5-BB61-4D5E-9EDD-6124322D28F2";
paths = (
{
closed = 1;
nodes = (
"283 30 LINE",
"125 268 LINE",
"125 221 LINE",
"280 452 LINE",
"193 452 LINE",
"53 242 LINE",
"191 30 LINE"
);
}
);
width = 334;
},
{
layerId = "51C2DFEF-3776-4D13-9284-96485B799B57";
paths = (
{
closed = 1;
nodes = (
"338 27 LINE",
"178 268 LINE",
"178 221 LINE",
"334 453 LINE",
"164 453 LINE",
"23 242 LINE",
"163 27 LINE"
);
}
);
width = 359;
},
{
layerId = "0B2E441B-685E-400D-9B9B-E078DEED62EF";
paths = (
{
closed = 1;
nodes = (
"238 32 LINE",
"87 254 LINE",
"89 239 LINE",
"235 451 LINE",
"214 451 LINE",
"71 245 LINE",
"214 32 LINE"
);
}
);
width = 306;
}
);
unicode = 2039;
},
{
glyphname = guilsinglright;
lastChange = "2017-10-22 15:18:42 +0000";
layers = (
{
layerId = "F333AEC5-BB61-4D5E-9EDD-6124322D28F2";
paths = (
{
closed = 1;
nodes = (
"142 30 LINE",
"280 241 LINE",
"140 452 LINE",
"48 452 LINE",
"208 215 LINE",
"208 262 LINE",
"55 30 LINE"
);
}
);
width = 333;
},
{
layerId = "51C2DFEF-3776-4D13-9284-96485B799B57";
paths = (
{
closed = 1;
nodes = (
"196 27 LINE",
"337 242 LINE",
"196 453 LINE",
"21 453 LINE",
"182 214 LINE",
"182 261 LINE",
"26 27 LINE"
);
}
);
width = 360;
},
{
layerId = "0B2E441B-685E-400D-9B9B-E078DEED62EF";
paths = (
{
closed = 1;
nodes = (
"87 32 LINE",
"230 243 LINE",
"87 451 LINE",
"63 451 LINE",
"214 234 LINE",
"212 249 LINE",
"66 32 LINE"
);
}
);
width = 301;
}
);
unicode = 203A;
},
{
glyphname = colonsign;
lastChange = "2017-10-24 20:32:33 +0000";
layers = (
{
components = (
{
name = C;
transform = "{1, 0, 0, 1, 23, 0}";
}
);
layerId = "F333AEC5-BB61-4D5E-9EDD-6124322D28F2";
paths = (
{
closed = 1;
nodes = (
"404 26 LINE",
"380 -100 LINE",
"440 -100 LINE",
"464 26 LINE"
);
},
{
closed = 1;
nodes = (
"294 26 LINE",
"270 -100 LINE",
"330 -100 LINE",
"354 26 LINE"
);
},
{
closed = 1;
nodes = (
"431 694 LINE",
"452 814 LINE",
"392 814 LINE",
"371 694 LINE"
);
},
{
closed = 1;
nodes = (
"541 694 LINE",
"562 814 LINE",
"502 814 LINE",
"481 694 LINE"
);
}
);
width = 726;
},
{
layerId = "51C2DFEF-3776-4D13-9284-96485B799B57";
width = 600;
},
{
components = (
{
name = C;
transform = "{1, 0, 0, 1, 26, 0}";
}
);
layerId = "0B2E441B-685E-400D-9B9B-E078DEED62EF";
paths = (
{
closed = 1;
nodes = (
"427 3 LINE",
"408 -100 LINE",
"424 -100 LINE",
"443 3 LINE"
);
},
{
closed = 1;
nodes = (
"317 11 LINE",
"296 -100 LINE",
"312 -100 LINE",
"333 11 LINE"
);
},
{
closed = 1;
nodes = (
"413 694 LINE",
"434 814 LINE",
"418 814 LINE",
"397 694 LINE"
);
},
{
closed = 1;
nodes = (
"523 694 LINE",
"544 814 LINE",
"528 814 LINE",
"507 694 LINE"
);
}
);
width = 724;
}
);
unicode = 20A1;
},
{
glyphname = currency;
lastChange = "2017-10-24 20:32:33 +0000";
layers = (
{
layerId = "F333AEC5-BB61-4D5E-9EDD-6124322D28F2";
paths = (
{
closed = 1;
nodes = (
"457 131 OFFCURVE",
"539 215 OFFCURVE",
"539 342 CURVE SMOOTH",
"539 461 OFFCURVE",
"461 540 OFFCURVE",
"343 540 CURVE SMOOTH",
"219 540 OFFCURVE",
"137 456 OFFCURVE",
"137 331 CURVE SMOOTH",
"137 211 OFFCURVE",
"215 131 OFFCURVE",
"333 131 CURVE SMOOTH"
);
},
{
closed = 1;
nodes = (
"234 181 LINE",
"193 222 LINE",
"101 131 LINE",
"142 90 LINE"
);
},
{
closed = 1;
nodes = (
"574 131 LINE",
"482 221 LINE",
"442 181 LINE",
"534 90 LINE"
);
},
{
closed = 1;
nodes = (
"267 204 OFFCURVE",
"217 259 OFFCURVE",
"217 341 CURVE SMOOTH",
"217 417 OFFCURVE",
"263 467 OFFCURVE",
"333 467 CURVE SMOOTH",
"409 467 OFFCURVE",
"459 413 OFFCURVE",
"459 332 CURVE SMOOTH",
"459 255 OFFCURVE",
"413 204 OFFCURVE",
"343 204 CURVE SMOOTH"
);
},
{
closed = 1;
nodes = (
"234 488 LINE",
"142 580 LINE",
"101 539 LINE",
"192 448 LINE"
);
},
{
closed = 1;
nodes = (
"574 539 LINE",
"533 580 LINE",
"441 488 LINE",
"482 448 LINE"
);
}
);
width = 675;
},
{
layerId = "51C2DFEF-3776-4D13-9284-96485B799B57";
width = 600;
},
{
layerId = "0B2E441B-685E-400D-9B9B-E078DEED62EF";
paths = (
{
closed = 1;
nodes = (
"437 159 OFFCURVE",
"506 231 OFFCURVE",
"506 339 CURVE SMOOTH",
"506 443 OFFCURVE",
"438 513 OFFCURVE",
"336 513 CURVE SMOOTH",
"232 513 OFFCURVE",
"163 442 OFFCURVE",
"163 335 CURVE SMOOTH",
"163 229 OFFCURVE",
"231 159 OFFCURVE",
"333 159 CURVE SMOOTH"
);
},
{
closed = 1;
nodes = (
"226 204 LINE",
"214 216 LINE",
"112 117 LINE",
"124 105 LINE"
);
},
{
closed = 1;
nodes = (
"556 117 LINE",
"452 218 LINE",
"440 206 LINE",
"544 105 LINE"
);
},
{
closed = 1;
nodes = (
"245 177 OFFCURVE",
"184 241 OFFCURVE",
"184 338 CURVE SMOOTH",
"184 432 OFFCURVE",
"244 495 OFFCURVE",
"333 495 CURVE SMOOTH",
"424 495 OFFCURVE",
"485 431 OFFCURVE",
"485 336 CURVE SMOOTH",
"485 241 OFFCURVE",
"425 177 OFFCURVE",
"336 177 CURVE SMOOTH"
);
},
{
closed = 1;
nodes = (
"222 466 LINE",
"124 566 LINE",
"112 554 LINE",
"210 454 LINE"
);
},
{
closed = 1;
nodes = (
"556 554 LINE",
"544 566 LINE",
"444 466 LINE",
"456 454 LINE"
);
}
);
width = 668;
}
);
unicode = 00A4;
},
{
glyphname = dong;
lastChange = "2017-10-24 20:32:33 +0000";
layers = (
{
layerId = "F333AEC5-BB61-4D5E-9EDD-6124322D28F2";
paths = (
{
closed = 1;
nodes = (
"602 620 LINE",
"602 680 LINE",
"310 680 LINE",
"310 620 LINE"
);
},
{
closed = 1;
nodes = (
"531 130 LINE",
"531 739 LINE",
"451 739 LINE",
"451 186 LINE",
"475 130 LINE"
);
},
{
closed = 1;
nodes = (
"372 120 OFFCURVE",
"437 154 OFFCURVE",
"497 219 CURVE",
"478 269 LINE",
"431 217 OFFCURVE",
"380 190 OFFCURVE",
"324 190 CURVE SMOOTH",
"236 190 OFFCURVE",
"177 251 OFFCURVE",
"177 345 CURVE SMOOTH",
"177 437 OFFCURVE",
"233 492 OFFCURVE",
"316 492 CURVE SMOOTH",
"388 492 OFFCURVE",
"449 447 OFFCURVE",
"465 383 CURVE",
"497 446 LINE",
"473 513 OFFCURVE",
"420 562 OFFCURVE",
"324 562 CURVE SMOOTH",
"190 562 OFFCURVE",
"97 473 OFFCURVE",
"97 333 CURVE SMOOTH",
"97 202 OFFCURVE",
"180 120 OFFCURVE",
"298 120 CURVE SMOOTH"
);
},
{
closed = 1;
nodes = (
"548 0 LINE",
"548 60 LINE",
"126 60 LINE",
"126 0 LINE"
);
}
);
width = 686;
},
{
layerId = "51C2DFEF-3776-4D13-9284-96485B799B57";
width = 600;
},
{
layerId = "0B2E441B-685E-400D-9B9B-E078DEED62EF";
paths = (
{
closed = 1;
nodes = (
"527 646 LINE",
"527 662 LINE",
"261 662 LINE",
"261 646 LINE"
);
},
{
closed = 1;
nodes = (
"449 130 LINE",
"449 739 LINE",
"430 739 LINE",
"430 194 LINE",
"433 130 LINE"
);
},
{
closed = 1;
nodes = (
"337 120 OFFCURVE",
"400 157 OFFCURVE",
"441 211 CURVE",
"432 223 LINE",
"392 172 OFFCURVE",
"334 138 OFFCURVE",
"270 138 CURVE SMOOTH",
"168 138 OFFCURVE",
"92 224 OFFCURVE",
"92 350 CURVE SMOOTH",
"92 476 OFFCURVE",
"167 558 OFFCURVE",
"273 558 CURVE SMOOTH",
"348 558 OFFCURVE",
"404 517 OFFCURVE",
"432 463 CURVE",
"444 475 LINE",
"418 537 OFFCURVE",
"354 576 OFFCURVE",
"275 576 CURVE SMOOTH",
"155 576 OFFCURVE",
"71 485 OFFCURVE",
"71 348 CURVE SMOOTH",
"71 211 OFFCURVE",
"154 120 OFFCURVE",
"266 120 CURVE SMOOTH"
);
},
{
closed = 1;
nodes = (
"468 0 LINE",
"468 17 LINE",
"86 17 LINE",
"86 0 LINE"
);
}
);
width = 552;
}
);
unicode = 20AB;
},
{
glyphname = euro;
lastChange = "2017-10-24 20:32:33 +0000";
layers = (
{
components = (
{
name = C;
transform = "{1, 0, 0, 1, 100, 0}";
}
);
layerId = "F333AEC5-BB61-4D5E-9EDD-6124322D28F2";
paths = (
{
closed = 1;
nodes = (
"647 394 LINE",
"647 454 LINE",
"92 454 LINE",
"92 394 LINE"
);
},
{
closed = 1;
nodes = (
"624 254 LINE",
"624 314 LINE",
"92 314 LINE",
"92 254 LINE"
);
}
);
width = 806;
},
{
layerId = "51C2DFEF-3776-4D13-9284-96485B799B57";
width = 600;
},
{
components = (
{
name = C;
transform = "{1, 0, 0, 1, 111, 0}";
}
);
layerId = "0B2E441B-685E-400D-9B9B-E078DEED62EF";
paths = (
{
closed = 1;
nodes = (
"648 416 LINE",
"648 433 LINE",
"103 433 LINE",
"103 416 LINE"
);
},
{
closed = 1;
nodes = (
"625 276 LINE",
"625 293 LINE",
"103 293 LINE",
"103 276 LINE"
);
}
);
width = 813;
}
);
unicode = 20AC;
},
{
glyphname = guarani;
lastChange = "2017-10-24 20:32:33 +0000";
layers = (
{
associatedMasterId = "F333AEC5-BB61-4D5E-9EDD-6124322D28F2";
layerId = "1866C078-74D9-4E80-B9A0-67CF6B4C8CA4";
name = "Aug 16 17, 22:17";
paths = (
{
closed = 1;
nodes = (
"434 -9 OFFCURVE",
"495 34 OFFCURVE",
"541 74 CURVE",
"541 368 LINE",
"332 368 LINE",
"332 296 LINE",
"464 296 LINE",
"464 102 LINE",
"433 81 OFFCURVE",
"401 64 OFFCURVE",
"356 64 CURVE SMOOTH",
"240 64 OFFCURVE",
"173 177 OFFCURVE",
"173 351 CURVE SMOOTH",
"173 526 OFFCURVE",
"241 630 OFFCURVE",
"359 630 CURVE SMOOTH",
"409 630 OFFCURVE",
"465 612 OFFCURVE",
"507 585 CURVE",
"526 663 LINE",
"481 687 OFFCURVE",
"421 703 OFFCURVE",
"367 703 CURVE SMOOTH",
"209 703 OFFCURVE",
"93 564 OFFCURVE",
"93 340 CURVE SMOOTH",
"93 126 OFFCURVE",
"200 -9 OFFCURVE",
"350 -9 CURVE SMOOTH"
);
},
{
closed = 1;
nodes = (
"398 -49 LINE",
"398 58 LINE",
"322 58 LINE",
"322 -49 LINE"
);
},
{
closed = 1;
nodes = (
"398 633 LINE",
"398 739 LINE",
"323 739 LINE",
"323 633 LINE"
);
}
);
width = 646;
},
{
components = (
{
name = G;
},
{
name = _currencyvstem;
transform = "{1, 0, 0, 1, 4, -800}";
},
{
name = _currencyvstem;
transform = "{1, 0, 0, 1, -8, 0}";
}
);
layerId = "F333AEC5-BB61-4D5E-9EDD-6124322D28F2";
width = 794;
},
{
layerId = "51C2DFEF-3776-4D13-9284-96485B799B57";
width = 600;
},
{
components = (
{
name = G;
},
{
name = _currencyvstem;
transform = "{1, 0, 0, 1, 7, -800}";
},
{
name = _currencyvstem;
transform = "{1, 0, 0, 1, -5, 0}";
}
);
layerId = "0B2E441B-685E-400D-9B9B-E078DEED62EF";
width = 777;
}
);
unicode = 20B2;
},
{
glyphname = kip;
lastChange = "2017-10-24 20:32:33 +0000";
layers = (
{
components = (
{
name = K;
transform = "{1, 0, 0, 1, 52, 0}";
}
);
layerId = "F333AEC5-BB61-4D5E-9EDD-6124322D28F2";
paths = (
{
closed = 1;
nodes = (
"614 325 LINE",
"614 385 LINE",
"82 385 LINE",
"82 325 LINE"
);
}
);
width = 747;
},
{
layerId = "51C2DFEF-3776-4D13-9284-96485B799B57";
width = 600;
},
{
components = (
{
name = K;
transform = "{1, 0, 0, 1, 63, 0}";
}
);
layerId = "0B2E441B-685E-400D-9B9B-E078DEED62EF";
paths = (
{
closed = 1;
nodes = (
"545 347 LINE",
"545 364 LINE",
"93 364 LINE",
"93 347 LINE"
);
}
);
width = 688;
}
);
unicode = 20AD;
},
{
glyphname = liraTurkish;
lastChange = "2017-10-24 20:32:33 +0000";
layers = (
{
layerId = "F333AEC5-BB61-4D5E-9EDD-6124322D28F2";
paths = (
{
closed = 1;
nodes = (
"449 0 OFFCURVE",
"585 132 OFFCURVE",
"585 330 CURVE",
"505 330 LINE",
"505 174 OFFCURVE",
"405 70 OFFCURVE",
"254 70 CURVE",
"244 0 LINE"
);
},
{
closed = 1;
nodes = (
"254 0 LINE",
"254 694 LINE",
"177 694 LINE",
"177 0 LINE"
);
},
{
closed = 1;
nodes = (
"418 571 LINE",
"390 625 LINE",
"87 446 LINE",
"113 393 LINE"
);
},
{
closed = 1;
nodes = (
"418 421 LINE",
"390 475 LINE",
"87 296 LINE",
"113 243 LINE"
);
}
);
width = 671;
},
{
layerId = "51C2DFEF-3776-4D13-9284-96485B799B57";
width = 600;
},
{
layerId = "0B2E441B-685E-400D-9B9B-E078DEED62EF";
paths = (
{
closed = 1;
nodes = (
"419 0 OFFCURVE",
"563 132 OFFCURVE",
"563 330 CURVE",
"543 330 LINE",
"543 144 OFFCURVE",
"411 20 OFFCURVE",
"242 20 CURVE",
"232 0 LINE"
);
},
{
closed = 1;
nodes = (
"243 0 LINE",
"243 694 LINE",
"223 694 LINE",
"223 0 LINE"
);
},
{
closed = 1;
nodes = (
"400 583 LINE",
"391 598 LINE",
"104 429 LINE",
"111 415 LINE"
);
},
{
closed = 1;
nodes = (
"400 433 LINE",
"391 448 LINE",
"104 279 LINE",
"111 265 LINE"
);
}
);
width = 668;
}
);
unicode = 20BA;
},
{
glyphname = manat;
lastChange = "2017-10-24 20:32:33 +0000";
layers = (
{
layerId = "F333AEC5-BB61-4D5E-9EDD-6124322D28F2";
paths = (
{
closed = 1;
nodes = (
"184 0 LINE",
"184 228 LINE SMOOTH",
"184 406 OFFCURVE",
"257 525 OFFCURVE",
"366 525 CURVE SMOOTH",
"481 525 OFFCURVE",
"558 402 OFFCURVE",
"558 218 CURVE SMOOTH",
"558 0 LINE",
"632 0 LINE",
"632 228 LINE SMOOTH",
"632 448 OFFCURVE",
"530 595 OFFCURVE",
"376 595 CURVE SMOOTH",
"216 595 OFFCURVE",
"110 444 OFFCURVE",
"110 218 CURVE SMOOTH",
"110 0 LINE"
);
},
{
closed = 1;
nodes = (
"409 100 LINE",
"409 694 LINE",
"335 694 LINE",
"335 100 LINE"
);
}
);
width = 743;
},
{
layerId = "51C2DFEF-3776-4D13-9284-96485B799B57";
width = 600;
},
{
layerId = "0B2E441B-685E-400D-9B9B-E078DEED62EF";
paths = (
{
closed = 1;
nodes = (
"152 0 LINE",
"152 225 LINE SMOOTH",
"152 421 OFFCURVE",
"237 551 OFFCURVE",
"364 551 CURVE SMOOTH",
"493 551 OFFCURVE",
"579 419 OFFCURVE",
"579 222 CURVE SMOOTH",
"579 0 LINE",
"599 0 LINE",
"599 225 LINE SMOOTH",
"599 431 OFFCURVE",
"506 569 OFFCURVE",
"367 569 CURVE SMOOTH",
"225 569 OFFCURVE",
"131 430 OFFCURVE",
"131 222 CURVE SMOOTH",
"131 0 LINE"
);
},
{
closed = 1;
nodes = (
"376 100 LINE",
"376 694 LINE",
"356 694 LINE",
"356 100 LINE"
);
}
);
width = 731;
}
);
unicode = 20BC;
},
{
glyphname = naira;
lastChange = "2017-10-24 20:32:33 +0000";
layers = (
{
components = (
{
name = N;
transform = "{1, 0, 0, 1, 72, 0}";
}
);
layerId = "F333AEC5-BB61-4D5E-9EDD-6124322D28F2";
paths = (
{
closed = 1;
nodes = (
"704 384 LINE",
"839 384 LINE",
"839 444 LINE",
"704 444 LINE"
);
},
{
closed = 1;
nodes = (
"704 254 LINE",
"839 254 LINE",
"839 314 LINE",
"704 314 LINE"
);
},
{
closed = 1;
nodes = (
"229 314 LINE",
"93 314 LINE",
"93 254 LINE",
"229 254 LINE"
);
},
{
closed = 1;
nodes = (
"229 444 LINE",
"93 444 LINE",
"93 384 LINE",
"229 384 LINE"
);
}
);
width = 932;
},
{
layerId = "51C2DFEF-3776-4D13-9284-96485B799B57";
width = 600;
},
{
components = (
{
name = N;
transform = "{1, 0, 0, 1, 67, 0}";
}
);
layerId = "0B2E441B-685E-400D-9B9B-E078DEED62EF";
paths = (
{
closed = 1;
nodes = (
"684 406 LINE",
"789 406 LINE",
"789 423 LINE",
"684 423 LINE"
);
},
{
closed = 1;
nodes = (
"684 276 LINE",
"789 276 LINE",
"789 293 LINE",
"684 293 LINE"
);
},
{
closed = 1;
nodes = (
"209 293 LINE",
"103 293 LINE",
"103 276 LINE",
"209 276 LINE"
);
},
{
closed = 1;
nodes = (
"209 423 LINE",
"103 423 LINE",
"103 406 LINE",
"209 406 LINE"
);
}
);
width = 892;
}
);
unicode = 20A6;
},
{
glyphname = peseta;
lastChange = "2017-10-24 20:32:33 +0000";
layers = (
{
components = (
{
name = P;
transform = "{1, 0, 0, 1, 65, 0}";
}
);
layerId = "F333AEC5-BB61-4D5E-9EDD-6124322D28F2";
paths = (
{
closed = 1;
nodes = (
"592 434 LINE",
"723 434 LINE",
"723 494 LINE",
"592 494 LINE"
);
},
{
closed = 1;
nodes = (
"212 494 LINE",
"81 494 LINE",
"81 434 LINE",
"212 434 LINE"
);
}
);
width = 804;
},
{
layerId = "51C2DFEF-3776-4D13-9284-96485B799B57";
width = 600;
},
{
components = (
{
name = P;
transform = "{1, 0, 0, 1, 51, 0}";
}
);
layerId = "0B2E441B-685E-400D-9B9B-E078DEED62EF";
paths = (
{
closed = 1;
nodes = (
"559 456 LINE",
"664 456 LINE",
"664 473 LINE",
"559 473 LINE"
);
},
{
closed = 1;
nodes = (
"198 473 LINE",
"93 473 LINE",
"93 456 LINE",
"198 456 LINE"
);
}
);
width = 757;
}
);
unicode = 20A7;
},
{
glyphname = peso;
lastChange = "2017-10-24 20:32:33 +0000";
layers = (
{
components = (
{
name = P;
transform = "{1, 0, 0, 1, 72, 0}";
}
);
layerId = "F333AEC5-BB61-4D5E-9EDD-6124322D28F2";
paths = (
{
closed = 1;
nodes = (
"599 504 LINE",
"720 504 LINE",
"720 564 LINE",
"599 564 LINE"
);
},
{
closed = 1;
nodes = (
"219 564 LINE",
"88 564 LINE",
"88 504 LINE",
"219 504 LINE"
);
},
{
closed = 1;
nodes = (
"599 364 LINE",
"720 364 LINE",
"720 424 LINE",
"599 424 LINE"
);
},
{
closed = 1;
nodes = (
"219 424 LINE",
"88 424 LINE",
"88 364 LINE",
"219 364 LINE"
);
}
);
width = 808;
},
{
layerId = "51C2DFEF-3776-4D13-9284-96485B799B57";
width = 600;
},
{
components = (
{
name = P;
transform = "{1, 0, 0, 1, 62, 0}";
}
);
layerId = "0B2E441B-685E-400D-9B9B-E078DEED62EF";
paths = (
{
closed = 1;
nodes = (
"570 526 LINE",
"665 526 LINE",
"665 543 LINE",
"570 543 LINE"
);
},
{
closed = 1;
nodes = (
"209 543 LINE",
"104 543 LINE",
"104 526 LINE",
"209 526 LINE"
);
},
{
closed = 1;
nodes = (
"570 387 LINE",
"665 387 LINE",
"665 404 LINE",
"570 404 LINE"
);
},
{
closed = 1;
nodes = (
"209 404 LINE",
"104 404 LINE",
"104 387 LINE",
"209 387 LINE"
);
}
);
width = 769;
}
);
unicode = 20B1;
},
{
glyphname = ruble;
lastChange = "2017-10-24 20:32:33 +0000";
layers = (
{
layerId = "F333AEC5-BB61-4D5E-9EDD-6124322D28F2";
paths = (
{
closed = 1;
nodes = (
"279 0 LINE",
"279 694 LINE",
"196 694 LINE",
"196 0 LINE"
);
},
{
closed = 1;
nodes = (
"402 242 LINE SMOOTH",
"561 242 OFFCURVE",
"656 337 OFFCURVE",
"656 468 CURVE SMOOTH",
"656 602 OFFCURVE",
"557 694 OFFCURVE",
"412 694 CURVE SMOOTH",
"249 694 LINE",
"249 622 LINE",
"402 622 LINE SMOOTH",
"507 622 OFFCURVE",
"571 558 OFFCURVE",
"571 458 CURVE SMOOTH",
"571 365 OFFCURVE",
"516 314 OFFCURVE",
"412 314 CURVE SMOOTH",
"90 314 LINE",
"90 242 LINE"
);
},
{
closed = 1;
nodes = (
"443 105 LINE",
"443 165 LINE",
"90 165 LINE",
"90 105 LINE"
);
}
);
width = 743;
},
{
layerId = "51C2DFEF-3776-4D13-9284-96485B799B57";
width = 600;
},
{
layerId = "0B2E441B-685E-400D-9B9B-E078DEED62EF";
paths = (
{
closed = 1;
nodes = (
"216 0 LINE",
"216 694 LINE",
"195 694 LINE",
"195 0 LINE"
);
},
{
closed = 1;
nodes = (
"341 263 LINE SMOOTH",
"509 263 OFFCURVE",
"597 343 OFFCURVE",
"597 480 CURVE SMOOTH",
"597 615 OFFCURVE",
"512 694 OFFCURVE",
"346 694 CURVE SMOOTH",
"210 694 LINE",
"210 676 LINE",
"341 676 LINE SMOOTH",
"497 676 OFFCURVE",
"575 602 OFFCURVE",
"575 477 CURVE SMOOTH",
"575 353 OFFCURVE",
"499 281 OFFCURVE",
"346 281 CURVE SMOOTH",
"104 281 LINE",
"104 263 LINE"
);
},
{
closed = 1;
nodes = (
"400 127 LINE",
"400 144 LINE",
"104 144 LINE",
"104 127 LINE"
);
}
);
width = 709;
}
);
unicode = 20BD;
},
{
glyphname = rupeeIndian;
lastChange = "2017-10-24 20:32:33 +0000";
layers = (
{
layerId = "F333AEC5-BB61-4D5E-9EDD-6124322D28F2";
paths = (
{
closed = 1;
nodes = (
"272 295 LINE SMOOTH",
"415 295 OFFCURVE",
"514 372 OFFCURVE",
"514 499 CURVE SMOOTH",
"514 625 OFFCURVE",
"416 694 OFFCURVE",
"282 694 CURVE SMOOTH",
"105 694 LINE",
"105 632 LINE",
"272 632 LINE SMOOTH",
"369 632 OFFCURVE",
"429 584 OFFCURVE",
"429 491 CURVE SMOOTH",
"429 401 OFFCURVE",
"373 359 OFFCURVE",
"282 359 CURVE SMOOTH",
"105 359 LINE",
"105 295 LINE"
);
},
{
closed = 1;
nodes = (
"584 0 LINE",
"369 310 LINE",
"274 310 LINE",
"485 0 LINE"
);
},
{
closed = 1;
nodes = (
"597 466 LINE",
"597 526 LINE",
"105 526 LINE",
"105 466 LINE"
);
},
{
closed = 1;
nodes = (
"597 638 LINE",
"597 698 LINE",
"105 698 LINE",
"105 638 LINE"
);
}
);
width = 691;
},
{
layerId = "51C2DFEF-3776-4D13-9284-96485B799B57";
width = 600;
},
{
layerId = "0B2E441B-685E-400D-9B9B-E078DEED62EF";
paths = (
{
closed = 1;
nodes = (
"278 304 LINE SMOOTH",
"432 304 OFFCURVE",
"516 378 OFFCURVE",
"516 502 CURVE SMOOTH",
"516 623 OFFCURVE",
"434 694 OFFCURVE",
"282 694 CURVE SMOOTH",
"111 694 LINE",
"111 676 LINE",
"278 676 LINE SMOOTH",
"420 676 OFFCURVE",
"494 612 OFFCURVE",
"494 499 CURVE SMOOTH",
"494 387 OFFCURVE",
"420 321 OFFCURVE",
"284 321 CURVE SMOOTH",
"111 321 LINE",
"111 304 LINE"
);
},
{
closed = 1;
nodes = (
"548 0 LINE",
"363 317 LINE",
"341 317 LINE",
"522 0 LINE"
);
},
{
closed = 1;
nodes = (
"593 488 LINE",
"593 505 LINE",
"111 505 LINE",
"111 488 LINE"
);
},
{
closed = 1;
nodes = (
"593 677 LINE",
"593 694 LINE",
"111 694 LINE",
"111 677 LINE"
);
}
);
width = 695;
}
);
unicode = 20B9;
},
{
glyphname = won;
lastChange = "2017-10-24 20:32:33 +0000";
layers = (
{
components = (
{
name = W;
transform = "{1, 0, 0, 1, 79, 0}";
}
);
layerId = "F333AEC5-BB61-4D5E-9EDD-6124322D28F2";
paths = (
{
closed = 1;
nodes = (
"269 252 LINE",
"269 312 LINE",
"97 312 LINE",
"97 252 LINE"
);
},
{
closed = 1;
nodes = (
"239 392 LINE",
"239 452 LINE",
"97 452 LINE",
"97 392 LINE"
);
},
{
closed = 1;
nodes = (
"1087 312 LINE",
"915 312 LINE",
"915 252 LINE",
"1087 252 LINE"
);
},
{
closed = 1;
nodes = (
"1087 452 LINE",
"945 452 LINE",
"945 392 LINE",
"1087 392 LINE"
);
}
);
width = 1191;
},
{
layerId = "51C2DFEF-3776-4D13-9284-96485B799B57";
width = 600;
},
{
components = (
{
name = W;
transform = "{1, 0, 0, 1, 76, 0}";
}
);
layerId = "0B2E441B-685E-400D-9B9B-E078DEED62EF";
paths = (
{
closed = 1;
nodes = (
"276 274 LINE",
"276 291 LINE",
"114 291 LINE",
"114 274 LINE"
);
},
{
closed = 1;
nodes = (
"236 415 LINE",
"236 430 LINE",
"114 430 LINE",
"114 415 LINE"
);
},
{
closed = 1;
nodes = (
"1054 291 LINE",
"902 291 LINE",
"902 274 LINE",
"1054 274 LINE"
);
},
{
closed = 1;
nodes = (
"1054 431 LINE",
"942 431 LINE",
"942 414 LINE",
"1054 414 LINE"
);
}
);
width = 1169;
}
);
unicode = 20A9;
},
{
glyphname = yen;
lastChange = "2017-10-24 20:32:33 +0000";
layers = (
{
components = (
{
name = Y;
transform = "{1, 0, 0, 1, 30, 0}";
}
);
layerId = "F333AEC5-BB61-4D5E-9EDD-6124322D28F2";
paths = (
{
closed = 1;
nodes = (
"502 128 LINE",
"502 188 LINE",
"190 188 LINE",
"190 128 LINE"
);
},
{
closed = 1;
nodes = (
"502 268 LINE",
"502 328 LINE",
"190 328 LINE",
"190 268 LINE"
);
}
);
width = 716;
},
{
layerId = "51C2DFEF-3776-4D13-9284-96485B799B57";
width = 600;
},
{
components = (
{
name = Y;
transform = "{1, 0, 0, 1, 47, 0}";
}
);
layerId = "0B2E441B-685E-400D-9B9B-E078DEED62EF";
paths = (
{
closed = 1;
nodes = (
"489 200 LINE",
"489 217 LINE",
"177 217 LINE",
"177 200 LINE"
);
},
{
closed = 1;
nodes = (
"489 340 LINE",
"489 357 LINE",
"177 357 LINE",
"177 340 LINE"
);
}
);
width = 656;
}
);
unicode = 00A5;
},
{
glyphname = equivalence;
lastChange = "2017-10-24 20:32:33 +0000";
layers = (
{
layerId = "F333AEC5-BB61-4D5E-9EDD-6124322D28F2";
paths = (
{
closed = 1;
nodes = (
"596 476 LINE",
"596 545 LINE",
"131 545 LINE",
"131 476 LINE"
);
},
{
closed = 1;
nodes = (
"596 132 LINE",
"596 201 LINE",
"131 201 LINE",
"131 132 LINE"
);
},
{
closed = 1;
nodes = (
"596 304 LINE",
"596 373 LINE",
"131 373 LINE",
"131 304 LINE"
);
}
);
width = 727;
},
{
layerId = "51C2DFEF-3776-4D13-9284-96485B799B57";
width = 600;
},
{
layerId = "0B2E441B-685E-400D-9B9B-E078DEED62EF";
paths = (
{
closed = 1;
nodes = (
"569 502 LINE",
"569 519 LINE",
"154 519 LINE",
"154 502 LINE"
);
},
{
closed = 1;
nodes = (
"569 158 LINE",
"569 175 LINE",
"154 175 LINE",
"154 158 LINE"
);
},
{
closed = 1;
nodes = (
"569 330 LINE",
"569 347 LINE",
"154 347 LINE",
"154 330 LINE"
);
}
);
width = 723;
}
);
unicode = 2261;
},
{
glyphname = notidentical;
lastChange = "2017-10-24 20:32:33 +0000";
layers = (
{
layerId = "F333AEC5-BB61-4D5E-9EDD-6124322D28F2";
paths = (
{
closed = 1;
nodes = (
"533 614 LINE",
"479 645 LINE",
"154 60 LINE",
"204 32 LINE"
);
},
{
closed = 1;
nodes = (
"572 476 LINE",
"572 545 LINE",
"107 545 LINE",
"107 476 LINE"
);
},
{
closed = 1;
nodes = (
"572 132 LINE",
"572 201 LINE",
"107 201 LINE",
"107 132 LINE"
);
},
{
closed = 1;
nodes = (
"572 304 LINE",
"572 373 LINE",
"107 373 LINE",
"107 304 LINE"
);
}
);
width = 680;
},
{
layerId = "51C2DFEF-3776-4D13-9284-96485B799B57";
width = 600;
},
{
layerId = "0B2E441B-685E-400D-9B9B-E078DEED62EF";
paths = (
{
closed = 1;
nodes = (
"484 607 LINE",
"471 616 LINE",
"171 72 LINE",
"184 63 LINE"
);
},
{
closed = 1;
nodes = (
"530 502 LINE",
"530 519 LINE",
"115 519 LINE",
"115 502 LINE"
);
},
{
closed = 1;
nodes = (
"530 158 LINE",
"530 175 LINE",
"115 175 LINE",
"115 158 LINE"
);
},
{
closed = 1;
nodes = (
"530 330 LINE",
"530 347 LINE",
"115 347 LINE",
"115 330 LINE"
);
}
);
width = 646;
}
);
unicode = 2262;
},
{
glyphname = plus;
lastChange = "2017-10-24 18:16:44 +0000";
layers = (
{
layerId = "F333AEC5-BB61-4D5E-9EDD-6124322D28F2";
paths = (
{
closed = 1;
nodes = (
"368 92 LINE",
"368 620 LINE",
"298 620 LINE",
"298 92 LINE"
);
},
{
closed = 1;
nodes = (
"582 326 LINE",
"582 395 LINE",
"78 395 LINE",
"78 326 LINE"
);
}
);
width = 660;
},
{
layerId = "51C2DFEF-3776-4D13-9284-96485B799B57";
paths = (
{
closed = 1;
nodes = (
"403 89 LINE",
"403 623 LINE",
"243 623 LINE",
"243 89 LINE"
);
},
{
closed = 1;
nodes = (
"589 281 LINE",
"589 436 LINE",
"55 436 LINE",
"55 281 LINE"
);
}
);
width = 644;
},
{
layerId = "0B2E441B-685E-400D-9B9B-E078DEED62EF";
paths = (
{
closed = 1;
nodes = (
"338 92 LINE",
"338 618 LINE",
"320 618 LINE",
"320 92 LINE"
);
},
{
closed = 1;
nodes = (
"566 352 LINE",
"566 369 LINE",
"87 369 LINE",
"87 352 LINE"
);
}
);
width = 653;
}
);
unicode = 002B;
},
{
glyphname = minus;
lastChange = "2017-10-24 17:36:38 +0000";
layers = (
{
layerId = "F333AEC5-BB61-4D5E-9EDD-6124322D28F2";
paths = (
{
closed = 1;
nodes = (
"620 326 LINE",
"620 395 LINE",
"131 395 LINE",
"131 326 LINE"
);
}
);
width = 751;
},
{
layerId = "51C2DFEF-3776-4D13-9284-96485B799B57";
paths = (
{
closed = 1;
nodes = (
"621 286 LINE",
"621 435 LINE",
"102 435 LINE",
"102 286 LINE"
);
}
);
width = 723;
},
{
layerId = "0B2E441B-685E-400D-9B9B-E078DEED62EF";
paths = (
{
closed = 1;
nodes = (
"617 352 LINE",
"617 369 LINE",
"154 369 LINE",
"154 352 LINE"
);
}
);
width = 771;
}
);
unicode = 2212;
},
{
glyphname = multiply;
lastChange = "2017-10-24 18:16:11 +0000";
layers = (
{
layerId = "F333AEC5-BB61-4D5E-9EDD-6124322D28F2";
paths = (
{
closed = 1;
nodes = (
"513 160 LINE",
"138 557 LINE",
"88 507 LINE",
"463 110 LINE"
);
},
{
closed = 1;
nodes = (
"509 503 LINE",
"459 553 LINE",
"80 166 LINE",
"130 116 LINE"
);
}
);
width = 594;
},
{
layerId = "51C2DFEF-3776-4D13-9284-96485B799B57";
paths = (
{
closed = 1;
nodes = (
"546 195 LINE",
"167 583 LINE",
"47 463 LINE",
"426 75 LINE"
);
},
{
closed = 1;
nodes = (
"545 464 LINE",
"428 581 LINE",
"49 194 LINE",
"166 77 LINE"
);
}
);
width = 592;
},
{
layerId = "0B2E441B-685E-400D-9B9B-E078DEED62EF";
paths = (
{
closed = 1;
nodes = (
"477 139 LINE",
"111 536 LINE",
"100 525 LINE",
"466 128 LINE"
);
},
{
closed = 1;
nodes = (
"473 523 LINE",
"462 534 LINE",
"94 146 LINE",
"105 135 LINE"
);
}
);
width = 570;
}
);
unicode = 00D7;
},
{
glyphname = divide;
lastChange = "2017-10-24 19:59:07 +0000";
layers = (
{
components = (
{
name = _dot;
transform = "{1, 0, 0, 1, 196, -101}";
},
{
name = _dot;
transform = "{1, 0, 0, 1, 196, -495}";
}
);
layerId = "F333AEC5-BB61-4D5E-9EDD-6124322D28F2";
paths = (
{
closed = 1;
nodes = (
"570 326 LINE",
"570 395 LINE",
"78 395 LINE",
"78 326 LINE"
);
}
);
width = 654;
},
{
components = (
{
name = _dot;
transform = "{1, 0, 0, 1, 155, -119}";
},
{
name = _dot;
transform = "{1, 0, 0, 1, 155, -517}";
}
);
layerId = "51C2DFEF-3776-4D13-9284-96485B799B57";
paths = (
{
closed = 1;
nodes = (
"590 292 LINE",
"590 427 LINE",
"48 427 LINE",
"48 292 LINE"
);
}
);
width = 638;
},
{
components = (
{
name = _dot;
transform = "{1, 0, 0, 1, 224, -69}";
},
{
name = _dot;
transform = "{1, 0, 0, 1, 236, -473}";
}
);
layerId = "0B2E441B-685E-400D-9B9B-E078DEED62EF";
paths = (
{
closed = 1;
nodes = (
"540 349 LINE",
"540 366 LINE",
"88 366 LINE",
"88 349 LINE"
);
}
);
width = 647;
}
);
unicode = 00F7;
},
{
glyphname = equal;
lastChange = "2017-10-24 18:17:37 +0000";
layers = (
{
layerId = "F333AEC5-BB61-4D5E-9EDD-6124322D28F2";
paths = (
{
closed = 1;
nodes = (
"596 436 LINE",
"596 505 LINE",
"131 505 LINE",
"131 436 LINE"
);
},
{
closed = 1;
nodes = (
"596 196 LINE",
"596 265 LINE",
"131 265 LINE",
"131 196 LINE"
);
}
);
width = 727;
},
{
layerId = "51C2DFEF-3776-4D13-9284-96485B799B57";
paths = (
{
closed = 1;
nodes = (
"587 396 LINE",
"587 546 LINE",
"102 546 LINE",
"102 396 LINE"
);
},
{
closed = 1;
nodes = (
"587 156 LINE",
"587 306 LINE",
"102 306 LINE",
"102 156 LINE"
);
}
);
width = 689;
},
{
layerId = "0B2E441B-685E-400D-9B9B-E078DEED62EF";
paths = (
{
closed = 1;
nodes = (
"584 462 LINE",
"584 479 LINE",
"154 479 LINE",
"154 462 LINE"
);
},
{
closed = 1;
nodes = (
"584 222 LINE",
"584 239 LINE",
"154 239 LINE",
"154 222 LINE"
);
}
);
width = 738;
}
);
unicode = 003D;
},
{
glyphname = notequal;
lastChange = "2017-10-24 18:23:00 +0000";
layers = (
{
layerId = "F333AEC5-BB61-4D5E-9EDD-6124322D28F2";
paths = (
{
closed = 1;
nodes = (
"497 577 LINE",
"443 608 LINE",
"174 122 LINE",
"224 94 LINE"
);
},
{
closed = 1;
nodes = (
"563 196 LINE",
"563 265 LINE",
"98 265 LINE",
"98 196 LINE"
);
},
{
closed = 1;
nodes = (
"563 436 LINE",
"563 505 LINE",
"98 505 LINE",
"98 436 LINE"
);
}
);
width = 661;
},
{
layerId = "51C2DFEF-3776-4D13-9284-96485B799B57";
paths = (
{
closed = 1;
nodes = (
"533 603 LINE",
"426 664 LINE",
"110 94 LINE",
"213 36 LINE"
);
},
{
closed = 1;
nodes = (
"565 156 LINE",
"565 306 LINE",
"80 306 LINE",
"80 156 LINE"
);
},
{
closed = 1;
nodes = (
"565 396 LINE",
"565 546 LINE",
"80 546 LINE",
"80 396 LINE"
);
}
);
width = 645;
},
{
layerId = "0B2E441B-685E-400D-9B9B-E078DEED62EF";
paths = (
{
closed = 1;
nodes = (
"443 589 LINE",
"430 598 LINE",
"187 115 LINE",
"200 106 LINE"
);
},
{
closed = 1;
nodes = (
"518 222 LINE",
"518 239 LINE",
"103 239 LINE",
"103 222 LINE"
);
},
{
closed = 1;
nodes = (
"518 462 LINE",
"518 479 LINE",
"103 479 LINE",
"103 462 LINE"
);
}
);
width = 621;
}
);
unicode = 2260;
},
{
glyphname = greater;
lastChange = "2017-10-23 20:42:54 +0000";
layers = (
{
layerId = "F333AEC5-BB61-4D5E-9EDD-6124322D28F2";
paths = (
{
closed = 1;
nodes = (
"533 306 LINE",
"533 370 LINE",
"87 599 LINE",
"87 516 LINE",
"477 325 LINE",
"477 353 LINE",
"87 163 LINE",
"87 85 LINE"
);
}
);
width = 606;
},
{
layerId = "51C2DFEF-3776-4D13-9284-96485B799B57";
paths = (
{
closed = 1;
nodes = (
"523 266 LINE",
"523 420 LINE",
"77 640 LINE",
"77 465 LINE",
"367 325 LINE",
"367 353 LINE",
"77 207 LINE",
"77 41 LINE"
);
}
);
width = 574;
},
{
layerId = "0B2E441B-685E-400D-9B9B-E078DEED62EF";
paths = (
{
closed = 1;
nodes = (
"507 328 LINE",
"507 352 LINE",
"91 587 LINE",
"91 567 LINE",
"502 334 LINE",
"502 345 LINE",
"91 113 LINE",
"91 94 LINE"
);
}
);
width = 596;
}
);
unicode = 003E;
},
{
glyphname = greaterequal;
lastChange = "2017-10-23 20:45:05 +0000";
layers = (
{
layerId = "F333AEC5-BB61-4D5E-9EDD-6124322D28F2";
paths = (
{
closed = 1;
nodes = (
"573 379 LINE",
"573 438 LINE",
"102 626 LINE",
"102 553 LINE",
"512 400 LINE",
"511 422 LINE",
"102 264 LINE",
"102 198 LINE"
);
},
{
closed = 1;
nodes = (
"573 61 LINE",
"573 126 LINE",
"108 126 LINE",
"108 61 LINE"
);
}
);
width = 661;
},
{
layerId = "51C2DFEF-3776-4D13-9284-96485B799B57";
paths = (
{
closed = 1;
nodes = (
"558 369 LINE",
"558 498 LINE",
"90 667 LINE",
"90 512 LINE",
"397 420 LINE",
"396 442 LINE",
"90 346 LINE",
"90 196 LINE"
);
},
{
closed = 1;
nodes = (
"558 26 LINE",
"558 161 LINE",
"90 161 LINE",
"90 26 LINE"
);
}
);
width = 625;
},
{
layerId = "0B2E441B-685E-400D-9B9B-E078DEED62EF";
paths = (
{
closed = 1;
nodes = (
"573 397 LINE",
"573 423 LINE",
"102 599 LINE",
"102 580 LINE",
"570 406 LINE",
"570 413 LINE",
"102 239 LINE",
"102 222 LINE"
);
},
{
closed = 1;
nodes = (
"573 85 LINE",
"573 102 LINE",
"108 102 LINE",
"108 85 LINE"
);
}
);
width = 600;
}
);
unicode = 2265;
},
{
glyphname = plusminus;
lastChange = "2017-10-24 20:32:33 +0000";
layers = (
{
layerId = "F333AEC5-BB61-4D5E-9EDD-6124322D28F2";
paths = (
{
closed = 1;
nodes = (
"362 177 LINE",
"362 653 LINE",
"292 653 LINE",
"292 177 LINE"
);
},
{
closed = 1;
nodes = (
"561 69 LINE",
"561 134 LINE",
"99 134 LINE",
"99 69 LINE"
);
},
{
closed = 1;
nodes = (
"562 385 LINE",
"562 454 LINE",
"86 454 LINE",
"86 385 LINE"
);
}
);
width = 650;
},
{
layerId = "51C2DFEF-3776-4D13-9284-96485B799B57";
width = 600;
},
{
layerId = "0B2E441B-685E-400D-9B9B-E078DEED62EF";
paths = (
{
closed = 1;
nodes = (
"340 177 LINE",
"340 653 LINE",
"321 653 LINE",
"321 177 LINE"
);
},
{
closed = 1;
nodes = (
"549 93 LINE",
"549 110 LINE",
"116 110 LINE",
"116 93 LINE"
);
},
{
closed = 1;
nodes = (
"550 411 LINE",
"550 428 LINE",
"104 428 LINE",
"104 411 LINE"
);
}
);
width = 657;
}
);
unicode = 00B1;
},
{
glyphname = approxequal;
lastChange = "2017-10-24 20:32:33 +0000";
layers = (
{
layerId = "F333AEC5-BB61-4D5E-9EDD-6124322D28F2";
paths = (
{
closed = 1;
nodes = (
"155 419 OFFCURVE",
"198 453 OFFCURVE",
"241 453 CURVE SMOOTH",
"307 453 OFFCURVE",
"339 377 OFFCURVE",
"414 377 CURVE SMOOTH",
"467 377 OFFCURVE",
"528 414 OFFCURVE",
"550 500 CURVE",
"506 517 LINE",
"489 474 OFFCURVE",
"457 447 OFFCURVE",
"420 447 CURVE SMOOTH",
"359 447 OFFCURVE",
"334 523 OFFCURVE",
"246 523 CURVE SMOOTH",
"190 523 OFFCURVE",
"124 493 OFFCURVE",
"98 398 CURVE",
"142 381 LINE"
);
},
{
closed = 1;
nodes = (
"155 219 OFFCURVE",
"198 253 OFFCURVE",
"241 253 CURVE SMOOTH",
"306 253 OFFCURVE",
"338 177 OFFCURVE",
"414 177 CURVE SMOOTH",
"467 177 OFFCURVE",
"528 214 OFFCURVE",
"550 300 CURVE",
"506 317 LINE",
"489 274 OFFCURVE",
"457 247 OFFCURVE",
"420 247 CURVE SMOOTH",
"359 247 OFFCURVE",
"334 323 OFFCURVE",
"246 323 CURVE SMOOTH",
"190 323 OFFCURVE",
"124 293 OFFCURVE",
"98 198 CURVE",
"142 181 LINE"
);
}
);
width = 649;
},
{
layerId = "51C2DFEF-3776-4D13-9284-96485B799B57";
width = 600;
},
{
layerId = "0B2E441B-685E-400D-9B9B-E078DEED62EF";
paths = (
{
closed = 1;
nodes = (
"141 445 OFFCURVE",
"183 484 OFFCURVE",
"232 484 CURVE SMOOTH",
"305 484 OFFCURVE",
"328 398 OFFCURVE",
"409 398 CURVE SMOOTH",
"468 398 OFFCURVE",
"511 444 OFFCURVE",
"524 491 CURVE",
"512 496 LINE",
"495 455 OFFCURVE",
"456 417 OFFCURVE",
"410 417 CURVE SMOOTH",
"341 417 OFFCURVE",
"317 503 OFFCURVE",
"235 503 CURVE SMOOTH",
"180 503 OFFCURVE",
"128 463 OFFCURVE",
"114 407 CURVE",
"126 402 LINE"
);
},
{
closed = 1;
nodes = (
"141 242 OFFCURVE",
"183 281 OFFCURVE",
"232 281 CURVE SMOOTH",
"305 281 OFFCURVE",
"328 195 OFFCURVE",
"409 195 CURVE SMOOTH",
"468 195 OFFCURVE",
"511 241 OFFCURVE",
"524 288 CURVE",
"512 293 LINE",
"495 252 OFFCURVE",
"456 214 OFFCURVE",
"410 214 CURVE SMOOTH",
"341 214 OFFCURVE",
"317 300 OFFCURVE",
"235 300 CURVE SMOOTH",
"180 300 OFFCURVE",
"128 260 OFFCURVE",
"114 204 CURVE",
"126 199 LINE"
);
}
);
width = 590;
}
);
unicode = 2248;
},
{
glyphname = asciitilde;
lastChange = "2017-10-24 20:32:33 +0000";
layers = (
{
layerId = "F333AEC5-BB61-4D5E-9EDD-6124322D28F2";
paths = (
{
closed = 1;
nodes = (
"165 276 OFFCURVE",
"197 303 OFFCURVE",
"239 303 CURVE SMOOTH",
"287 303 OFFCURVE",
"330 227 OFFCURVE",
"405 227 CURVE SMOOTH",
"476 227 OFFCURVE",
"534 269 OFFCURVE",
"554 347 CURVE",
"502 370 LINE",
"486 320 OFFCURVE",
"452 297 OFFCURVE",
"414 297 CURVE SMOOTH",
"363 297 OFFCURVE",
"328 373 OFFCURVE",
"248 373 CURVE SMOOTH",
"177 373 OFFCURVE",
"120 327 OFFCURVE",
"101 254 CURVE",
"153 231 LINE"
);
}
);
width = 651;
},
{
layerId = "51C2DFEF-3776-4D13-9284-96485B799B57";
width = 600;
},
{
layerId = "0B2E441B-685E-400D-9B9B-E078DEED62EF";
paths = (
{
closed = 1;
nodes = (
"157 299 OFFCURVE",
"199 338 OFFCURVE",
"246 338 CURVE SMOOTH",
"311 338 OFFCURVE",
"352 251 OFFCURVE",
"431 251 CURVE SMOOTH",
"484 251 OFFCURVE",
"535 291 OFFCURVE",
"551 346 CURVE",
"536 351 LINE",
"520 308 OFFCURVE",
"483 269 OFFCURVE",
"435 269 CURVE SMOOTH",
"364 269 OFFCURVE",
"326 357 OFFCURVE",
"251 357 CURVE SMOOTH",
"193 357 OFFCURVE",
"139 310 OFFCURVE",
"125 260 CURVE",
"139 255 LINE"
);
}
);
width = 671;
}
);
unicode = 007E;
},
{
glyphname = logicalnot;
lastChange = "2017-10-24 20:32:33 +0000";
layers = (
{
layerId = "F333AEC5-BB61-4D5E-9EDD-6124322D28F2";
paths = (
{
closed = 1;
nodes = (
"564 328 LINE",
"564 395 LINE",
"88 395 LINE",
"88 328 LINE"
);
},
{
closed = 1;
nodes = (
"564 152 LINE",
"564 353 LINE",
"484 353 LINE",
"484 152 LINE"
);
}
);
width = 695;
},
{
layerId = "51C2DFEF-3776-4D13-9284-96485B799B57";
width = 600;
},
{
layerId = "0B2E441B-685E-400D-9B9B-E078DEED62EF";
paths = (
{
closed = 1;
nodes = (
"528 353 LINE",
"528 370 LINE",
"92 370 LINE",
"92 353 LINE"
);
},
{
closed = 1;
nodes = (
"528 152 LINE",
"528 353 LINE",
"508 353 LINE",
"508 152 LINE"
);
}
);
width = 682;
}
);
unicode = 00AC;
},
{
glyphname = infinity;
lastChange = "2017-10-24 20:32:33 +0000";
layers = (
{
layerId = "F333AEC5-BB61-4D5E-9EDD-6124322D28F2";
paths = (
{
closed = 1;
nodes = (
"793 145 OFFCURVE",
"866 224 OFFCURVE",
"866 343 CURVE SMOOTH",
"866 457 OFFCURVE",
"797 533 OFFCURVE",
"692 533 CURVE SMOOTH",
"476 533 OFFCURVE",
"435 215 OFFCURVE",
"283 215 CURVE SMOOTH",
"222 215 OFFCURVE",
"182 266 OFFCURVE",
"182 342 CURVE SMOOTH",
"182 415 OFFCURVE",
"222 463 OFFCURVE",
"282 463 CURVE SMOOTH",
"440 463 OFFCURVE",
"466 145 OFFCURVE",
"683 145 CURVE SMOOTH"
);
},
{
closed = 1;
nodes = (
"486 145 OFFCURVE",
"526 463 OFFCURVE",
"683 463 CURVE SMOOTH",
"746 463 OFFCURVE",
"786 411 OFFCURVE",
"786 331 CURVE SMOOTH",
"786 258 OFFCURVE",
"749 215 OFFCURVE",
"688 215 CURVE SMOOTH",
"522 215 OFFCURVE",
"511 533 OFFCURVE",
"289 533 CURVE SMOOTH",
"177 533 OFFCURVE",
"102 453 OFFCURVE",
"102 333 CURVE SMOOTH",
"102 220 OFFCURVE",
"170 145 OFFCURVE",
"273 145 CURVE SMOOTH"
);
}
);
width = 968;
},
{
layerId = "51C2DFEF-3776-4D13-9284-96485B799B57";
width = 600;
},
{
layerId = "0B2E441B-685E-400D-9B9B-E078DEED62EF";
paths = (
{
closed = 1;
nodes = (
"771 171 OFFCURVE",
"832 238 OFFCURVE",
"832 340 CURVE SMOOTH",
"832 440 OFFCURVE",
"773 507 OFFCURVE",
"684 507 CURVE SMOOTH",
"489 507 OFFCURVE",
"448 189 OFFCURVE",
"275 189 CURVE SMOOTH",
"199 189 OFFCURVE",
"147 249 OFFCURVE",
"147 339 CURVE SMOOTH",
"147 429 OFFCURVE",
"200 489 OFFCURVE",
"279 489 CURVE SMOOTH",
"461 489 OFFCURVE",
"479 171 OFFCURVE",
"679 171 CURVE SMOOTH"
);
},
{
closed = 1;
nodes = (
"464 171 OFFCURVE",
"504 489 OFFCURVE",
"681 489 CURVE SMOOTH",
"759 489 OFFCURVE",
"812 427 OFFCURVE",
"812 337 CURVE SMOOTH",
"812 247 OFFCURVE",
"759 189 OFFCURVE",
"681 189 CURVE SMOOTH",
"500 189 OFFCURVE",
"481 507 OFFCURVE",
"282 507 CURVE SMOOTH",
"189 507 OFFCURVE",
"127 439 OFFCURVE",
"127 336 CURVE SMOOTH",
"127 236 OFFCURVE",
"185 171 OFFCURVE",
"272 171 CURVE SMOOTH"
);
}
);
width = 959;
}
);
unicode = 221E;
},
{
glyphname = emptyset;
lastChange = "2017-10-24 20:32:33 +0000";
layers = (
{
layerId = "F333AEC5-BB61-4D5E-9EDD-6124322D28F2";
paths = (
{
closed = 1;
nodes = (
"532 68 OFFCURVE",
"646 179 OFFCURVE",
"646 345 CURVE SMOOTH",
"646 507 OFFCURVE",
"536 615 OFFCURVE",
"372 615 CURVE SMOOTH",
"202 615 OFFCURVE",
"89 503 OFFCURVE",
"89 335 CURVE SMOOTH",
"89 175 OFFCURVE",
"198 68 OFFCURVE",
"362 68 CURVE SMOOTH"
);
},
{
closed = 1;
nodes = (
"250 138 OFFCURVE",
"169 221 OFFCURVE",
"169 345 CURVE SMOOTH",
"169 465 OFFCURVE",
"246 545 OFFCURVE",
"362 545 CURVE SMOOTH",
"484 545 OFFCURVE",
"566 461 OFFCURVE",
"566 335 CURVE SMOOTH",
"566 217 OFFCURVE",
"488 138 OFFCURVE",
"372 138 CURVE SMOOTH"
);
},
{
closed = 1;
nodes = (
"596 630 LINE",
"540 667 LINE",
"135 69 LINE",
"191 32 LINE"
);
}
);
width = 734;
},
{
layerId = "51C2DFEF-3776-4D13-9284-96485B799B57";
width = 600;
},
{
layerId = "0B2E441B-685E-400D-9B9B-E078DEED62EF";
paths = (
{
closed = 1;
nodes = (
"521 74 OFFCURVE",
"629 181 OFFCURVE",
"629 342 CURVE SMOOTH",
"629 502 OFFCURVE",
"522 609 OFFCURVE",
"361 609 CURVE SMOOTH",
"199 609 OFFCURVE",
"91 501 OFFCURVE",
"91 340 CURVE SMOOTH",
"91 180 OFFCURVE",
"198 74 OFFCURVE",
"359 74 CURVE SMOOTH"
);
},
{
closed = 1;
nodes = (
"211 92 OFFCURVE",
"111 192 OFFCURVE",
"111 342 CURVE SMOOTH",
"111 491 OFFCURVE",
"210 591 OFFCURVE",
"358 591 CURVE SMOOTH",
"509 591 OFFCURVE",
"609 491 OFFCURVE",
"609 340 CURVE SMOOTH",
"609 191 OFFCURVE",
"510 92 OFFCURVE",
"361 92 CURVE SMOOTH"
);
},
{
closed = 1;
nodes = (
"569 647 LINE",
"555 657 LINE",
"151 58 LINE",
"165 48 LINE"
);
}
);
width = 720;
}
);
unicode = 2205;
},
{
glyphname = integral;
lastChange = "2017-10-24 20:32:33 +0000";
layers = (
{
layerId = "F333AEC5-BB61-4D5E-9EDD-6124322D28F2";
paths = (
{
closed = 1;
nodes = (
"263 -170 OFFCURVE",
"328 -115 OFFCURVE",
"328 -3 CURVE SMOOTH",
"328 161 OFFCURVE",
"188 417 OFFCURVE",
"188 582 CURVE SMOOTH",
"188 653 OFFCURVE",
"214 676 OFFCURVE",
"261 676 CURVE SMOOTH",
"285 676 OFFCURVE",
"305 670 OFFCURVE",
"326 662 CURVE",
"350 731 LINE",
"324 743 OFFCURVE",
"302 749 OFFCURVE",
"269 749 CURVE SMOOTH",
"181 749 OFFCURVE",
"108 705 OFFCURVE",
"108 571 CURVE SMOOTH",
"108 387 OFFCURVE",
"247 127 OFFCURVE",
"247 -10 CURVE SMOOTH",
"247 -74 OFFCURVE",
"217 -97 OFFCURVE",
"177 -97 CURVE SMOOTH",
"156 -97 OFFCURVE",
"125 -91 OFFCURVE",
"101 -82 CURVE",
"77 -152 LINE",
"106 -164 OFFCURVE",
"138 -170 OFFCURVE",
"169 -170 CURVE SMOOTH"
);
}
);
width = 429;
},
{
layerId = "51C2DFEF-3776-4D13-9284-96485B799B57";
width = 600;
},
{
layerId = "0B2E441B-685E-400D-9B9B-E078DEED62EF";
paths = (
{
closed = 1;
nodes = (
"265 -170 OFFCURVE",
"320 -100 OFFCURVE",
"320 -12 CURVE SMOOTH",
"320 151 OFFCURVE",
"129 404 OFFCURVE",
"129 580 CURVE SMOOTH",
"129 668 OFFCURVE",
"177 732 OFFCURVE",
"247 732 CURVE SMOOTH",
"268 732 OFFCURVE",
"291 726 OFFCURVE",
"316 715 CURVE",
"322 731 LINE",
"296 742 OFFCURVE",
"273 749 OFFCURVE",
"248 749 CURVE SMOOTH",
"169 749 OFFCURVE",
"110 678 OFFCURVE",
"110 577 CURVE SMOOTH",
"110 396 OFFCURVE",
"301 138 OFFCURVE",
"301 -15 CURVE SMOOTH",
"301 -86 OFFCURVE",
"260 -153 OFFCURVE",
"189 -153 CURVE SMOOTH",
"166 -153 OFFCURVE",
"133 -146 OFFCURVE",
"106 -129 CURVE",
"100 -144 LINE",
"127 -160 OFFCURVE",
"160 -170 OFFCURVE",
"189 -170 CURVE SMOOTH"
);
}
);
width = 423;
}
);
unicode = 222B;
},
{
glyphname = Ohm;
lastChange = "2017-10-24 20:04:05 +0000";
layers = (
{
layerId = "F333AEC5-BB61-4D5E-9EDD-6124322D28F2";
paths = (
{
closed = 1;
nodes = (
"345 0 LINE",
"345 53 LINE",
"254 124 OFFCURVE",
"193 260 OFFCURVE",
"193 394 CURVE SMOOTH",
"193 538 OFFCURVE",
"279 631 OFFCURVE",
"410 631 CURVE SMOOTH",
"546 631 OFFCURVE",
"643 529 OFFCURVE",
"643 388 CURVE SMOOTH",
"643 266 OFFCURVE",
"581 132 OFFCURVE",
"489 53 CURVE",
"489 0 LINE",
"741 0 LINE",
"741 72 LINE",
"577 72 LINE",
"666 135 OFFCURVE",
"725 265 OFFCURVE",
"725 397 CURVE SMOOTH",
"725 581 OFFCURVE",
"603 704 OFFCURVE",
"421 704 CURVE SMOOTH",
"234 704 OFFCURVE",
"110 576 OFFCURVE",
"110 385 CURVE SMOOTH",
"110 247 OFFCURVE",
"169 122 OFFCURVE",
"258 72 CURVE",
"92 72 LINE",
"92 0 LINE"
);
}
);
width = 833;
},
{
layerId = "51C2DFEF-3776-4D13-9284-96485B799B57";
paths = (
{
closed = 1;
nodes = (
"356 0 LINE",
"356 115 LINE",
"295 175 OFFCURVE",
"255 286 OFFCURVE",
"255 393 CURVE SMOOTH",
"255 490 OFFCURVE",
"311 554 OFFCURVE",
"396 554 CURVE SMOOTH",
"486 554 OFFCURVE",
"546 487 OFFCURVE",
"546 387 CURVE SMOOTH",
"546 290 OFFCURVE",
"505 181 OFFCURVE",
"444 115 CURVE",
"444 0 LINE",
"729 0 LINE",
"729 156 LINE",
"597 156 LINE",
"675 194 OFFCURVE",
"727 290 OFFCURVE",
"727 397 CURVE SMOOTH",
"727 581 OFFCURVE",
"598 704 OFFCURVE",
"404 704 CURVE SMOOTH",
"207 704 OFFCURVE",
"75 576 OFFCURVE",
"75 383 CURVE SMOOTH",
"75 278 OFFCURVE",
"126 187 OFFCURVE",
"202 156 CURVE",
"80 156 LINE",
"80 0 LINE"
);
}
);
width = 804;
},
{
layerId = "0B2E441B-685E-400D-9B9B-E078DEED62EF";
paths = (
{
closed = 1;
nodes = (
"337 0 LINE",
"337 13 LINE",
"221 98 OFFCURVE",
"144 249 OFFCURVE",
"144 391 CURVE SMOOTH",
"144 567 OFFCURVE",
"250 685 OFFCURVE",
"409 685 CURVE SMOOTH",
"573 685 OFFCURVE",
"683 567 OFFCURVE",
"683 391 CURVE SMOOTH",
"683 260 OFFCURVE",
"605 108 OFFCURVE",
"488 13 CURVE",
"488 0 LINE",
"714 0 LINE",
"714 18 LINE",
"521 18 LINE",
"631 115 OFFCURVE",
"705 266 OFFCURVE",
"705 394 CURVE SMOOTH",
"705 580 OFFCURVE",
"588 704 OFFCURVE",
"412 704 CURVE SMOOTH",
"238 704 OFFCURVE",
"122 578 OFFCURVE",
"122 388 CURVE SMOOTH",
"122 245 OFFCURVE",
"195 97 OFFCURVE",
"304 18 CURVE",
"111 18 LINE",
"111 0 LINE"
);
}
);
width = 825;
}
);
unicode = 2126;
},
{
glyphname = increment;
lastChange = "2017-10-24 20:32:33 +0000";
layers = (
{
layerId = "F333AEC5-BB61-4D5E-9EDD-6124322D28F2";
paths = (
{
closed = 1;
nodes = (
"635 1 LINE",
"635 54 LINE",
"405 694 LINE",
"308 694 LINE",
"75 54 LINE",
"75 1 LINE"
);
},
{
closed = 1;
nodes = (
"350.553 616.47 LINE",
"545.345 68 LINE",
"157.556 68 LINE"
);
}
);
width = 710;
},
{
layerId = "51C2DFEF-3776-4D13-9284-96485B799B57";
width = 600;
},
{
layerId = "0B2E441B-685E-400D-9B9B-E078DEED62EF";
paths = (
{
closed = 1;
nodes = (
"617 1 LINE",
"617 14 LINE",
"358 694 LINE",
"340 694 LINE",
"87 14 LINE",
"87 1 LINE"
);
},
{
closed = 1;
nodes = (
"349 666 LINE",
"592 18 LINE",
"111 18 LINE"
);
}
);
width = 703;
}
);
unicode = 2206;
},
